<?xml version="1.0" encoding="utf-8"?>
<!-- Generator: Adobe Illustrator 24.1.2, SVG Export Plug-In . SVG Version: 6.00 Build 0)  -->
<svg version="1.1" baseProfile="tiny" id="Слой_1"
	 xmlns="http://www.w3.org/2000/svg" xmlns:xlink="http://www.w3.org/1999/xlink" x="0px" y="0px" viewBox="0 0 1045 206"
	 overflow="visible" xml:space="preserve">
<g>
	<path fill="#FDFDFD" d="M522.5,0.1c172.6,0,345.3,0,517.9-0.1c3.7,0,4.6,0.8,4.6,4.6c-0.1,65.8-0.1,131.5,0,197.3
		c0,3.4-0.7,4.1-4.1,4.1c-345.6-0.1-691.2-0.1-1036.8,0c-3.4,0-4.1-0.7-4.1-4.1C0.1,136,0.1,70,0,4.1C0,0.7,0.7,0,4.1,0
		C176.9,0.1,349.7,0.1,522.5,0.1z M577.2,161.8c23.8,0,47.6,0,71.5,0c1.8,0,3.7,0,5.4-0.4c21.1-4.8,34.9-17.6,41.6-38.1
		c4.3-13.3,8.5-26.6,12.8-39.8c2.2-6.8,4.2-13.6,3.5-21c-1.1-12.5-9.8-21-22.3-21c-47.8-0.1-95.6-0.2-143.4,0
		c-21,0.1-35.6,11.5-42.4,31.5c-1.5,4.6-3.1,9.1-4.6,13.7c-4.9,15-10.2,29.9-14.4,45.1c-4.4,15.7,6.2,30.7,23.3,30.1
		C531.2,161.3,554.2,161.8,577.2,161.8z M182,161c15.8,0,31-0.1,46.1,0.1c4,0.1,5.8-1.1,7-5c11.9-36.8,23.9-73.5,36-110.3
		c1.2-3.7,0.9-4.7-3.4-4.7c-48.1,0.2-96.3,0.1-144.4,0.1c-9.8,0-19.6-0.2-29.3,1.7c-14.3,2.8-25.3,10-30.2,24.2
		c-6,17.3-11.6,34.6-17.3,52c-4.6,13.8-9.1,27.7-13.8,42.1c5.5,0,10.5,0,15.5,0c18.8,0.1,32.6-8.7,42.5-24.3
		c4.1-6.5,5.8-14.1,8.2-21.3c1-2.8,2.1-3.9,5.3-3.7c7.1,0.3,14.3,0.1,21.5,0.1c22.2,0,44.3,0,66.5,0c5.7,0,5.8,0,4,5.6
		c-1.6,5.1-3.3,10.1-5,15.2C188.2,142,185.1,151.3,182,161z M808.3,88c1.4,2.1,2.2,3.4,3,4.6c14.9,21.6,29.8,43.2,44.6,64.9
		c1.9,2.8,3.7,4,7.2,3.9c17.2-0.2,34.3-0.1,51.5-0.1c1.2,0,2.7,0.7,3.7-0.7c-0.3-0.4-0.5-0.8-0.8-1.2c-9.5-13.6-19-27.2-28.5-40.9
		c-0.9-1.3-2.7-2.6-1.7-4.3c1-1.7,3-0.8,4.6-0.9c4.8-0.1,9.7,0.3,14.5-0.1c13.7-1,23.9-7.1,29.6-20c3.2-7.2,5.5-14.6,7.4-22.2
		c1.9-7.8,1.4-15.6-4.6-22c-5.4-5.7-12.2-7.6-19.8-7.5c-56.6,0.1-113.3,0.1-169.9-0.1c-3.5,0-4.9,1-5.9,4.2
		c-7,21.8-14.1,43.6-21.2,65.4c-5.1,15.6-10.1,31.2-15.3,46.8c-0.9,2.8-0.7,3.9,2.6,3.6c3.8-0.3,7.7-0.3,11.5-0.1
		c24.3,1.4,41.8-17.2,47.2-34.4c5.9-18.7,12.3-37.2,18.5-55.8c0.8-2.3,1.5-4,4.7-4c32.1,0.1,64.3,0.1,96.4,0c3,0,4,0.8,2.9,3.7
		c-1.8,4.8-3.5,9.7-5.1,14.6c-0.8,2.4-2.5,2.7-4.6,2.6c-7.2-0.1-14.3,0-21.5,0C842.7,88,826,88,808.3,88z M463.3,161.8
		c0.3-1.7-0.7-2.3-1.3-3c-15.3-17.7-30.6-35.6-46.1-53.1c-2.8-3.2-2.8-4.6,0.8-7c25.7-16.5,51.2-33.3,76.8-49.9
		c3.2-2.1,6.3-4.3,10.4-7.2c-16.1,0-30.9,0.1-45.6,0c-8.8-0.1-16.6,2.9-24.1,7c-13.6,7.3-26,16.7-39,24.9c-3.5,2.2-5.6,2.1-8.3-1.2
		c-5.7-6.9-12-13.4-18-20.1c-6.9-7.7-15.7-10.7-25.8-10.7c-12.3,0-24.7,0-37,0.1c-1.9,0-3.9-0.9-5.9,0.6c0.4,0.6,0.8,1.1,1.2,1.6
		c15.5,17.9,30.9,35.8,46.4,53.5c2.9,3.3,3.3,5-0.9,7.7c-18.8,11.9-37.4,24.2-56.1,36.3c-10.1,6.5-20.1,13.1-31.3,20.5
		c16.3,0,31.1,0,45.9,0c8.9,0,16.9-2.9,24.5-7.2c13.6-7.7,26.5-16.5,39.4-25.2c3.2-2.2,5-1.7,7.3,1.2c7.9,9.7,16.1,19,24.1,28.6
		c1.5,1.8,3,2.7,5.4,2.7C425.1,161.7,444.1,161.8,463.3,161.8z M287.5,57c-8.8,26.9-17.4,53.3-26.5,80.8
		c21.2-13.8,41.5-27,61.8-40.2C311,83.9,299.4,70.7,287.5,57z M1006.2,49.3c0.3,0.1,0.7,0.1,1,0.2c0,2.8-0.1,5.5,0,8.3
		c0,1.3-0.7,3.2,1.8,3.3c2.7,0.1,1.8-1.8,1.8-3.1c0.1-4.5,0.1-9,0-13.5c0-1.2,1.1-3.2-1.5-3.4c-2.1-0.2-3.8,0-4.5,2.6
		c-1,3.6-2.5,7.1-4.1,11.5c-1.7-4.7-3.1-8.4-4.3-12.1c-0.7-2.3-2.3-1.9-3.9-1.9c-2.1-0.1-1.8,1.4-1.8,2.7c0,5,0,10,0,15
		c0,1.2,0,2.3,1.7,2.3c1.6,0,1.9-0.9,1.9-2.2c0-2.9,0-5.9,0-8.8c2.3,2.7,3.4,5.7,4.5,8.8c0.3,0.9,0.5,2,1.7,2.2
		c1.6,0.2,1.8-1.1,2.2-2.2C1004,55.6,1005.1,52.5,1006.2,49.3z M978.1,52.2c0,2.2,0.1,4.3,0,6.5c-0.1,1.6,0.4,2.5,2.2,2.4
		c1.8-0.1,1.5-1.3,1.6-2.5c0-3.3,0.1-6.6,0-9.9c-0.1-2.9-0.2-5.4,3.9-4.6c1.2,0.2,2.4,0.1,2.2-1.7c-0.1-1.5-1.2-1.3-2.2-1.3
		c-3.8,0-7.6,0-11.4,0c-1,0-2.5-0.5-2.5,1.4c-0.1,1.9,1.3,1.7,2.4,1.5c3.6-0.6,4.2,1.3,3.9,4.2C978,49.5,978.1,50.9,978.1,52.2z"/>
	<path fill="#191916" d="M577.2,161.8c-23,0-46-0.6-69,0.2c-17.1,0.5-27.7-14.4-23.3-30.1c4.2-15.2,9.5-30.1,14.4-45.1
		c1.5-4.6,3.1-9.1,4.6-13.7c6.7-20.1,21.4-31.4,42.4-31.5c47.8-0.3,95.6-0.2,143.4,0c12.5,0,21.2,8.6,22.3,21
		c0.7,7.3-1.4,14.1-3.5,21c-4.3,13.3-8.5,26.6-12.8,39.8c-6.7,20.5-20.4,33.3-41.6,38.1c-1.8,0.4-3.6,0.4-5.4,0.4
		C624.8,161.8,601,161.8,577.2,161.8z M587.5,134.9c16.1,0,32.3-0.1,48.4,0.1c2.8,0,4.4-0.5,5.4-3.5c6.4-20,12.9-39.9,19.7-59.7
		c1.2-3.6,0.6-4.6-3.3-4.6c-32.3,0.1-64.6,0.1-96.9,0c-3.3,0-4.7,1.3-5.6,4.2c-6.4,19.8-12.7,39.6-19.4,59.3c-1.3,4-0.3,4.5,3.3,4.5
		C555.2,134.8,571.3,134.9,587.5,134.9z"/>
	<path fill="#191916" d="M182,161c3.2-9.7,6.2-19,9.2-28.2c1.7-5.1,3.4-10.1,5-15.2c1.8-5.6,1.7-5.6-4-5.6c-22.2,0-44.3,0-66.5,0
		c-7.2,0-14.3,0.2-21.5-0.1c-3.2-0.1-4.3,0.9-5.3,3.7c-2.5,7.2-4.1,14.8-8.2,21.3c-9.8,15.6-23.6,24.4-42.5,24.3c-5,0-9.9,0-15.5,0
		c4.7-14.4,9.2-28.2,13.8-42.1c5.7-17.3,11.3-34.7,17.3-52C68.7,52.9,79.7,45.7,94,42.9c9.7-1.9,19.5-1.7,29.3-1.7
		c48.1,0,96.3,0.1,144.4-0.1c4.3,0,4.6,1,3.4,4.7c-12.1,36.7-24.2,73.5-36,110.3c-1.3,3.9-3,5.1-7,5C212.9,160.9,197.8,161,182,161z
		 M157.5,86c11.5,0,22.9,0,34.4,0c14.9,0,14.8,0,19-14.3c1-3.3,0.7-4.6-3.3-4.5c-29.4,0.2-58.9,0.1-88.3,0c-3,0-4.9,0.5-5.6,4
		c-0.7,3.5-2.1,6.9-3.4,10.3c-1.3,3.4-0.7,4.6,3.2,4.6C128.3,85.8,142.9,86,157.5,86z"/>
	<path fill="#191916" d="M808.3,88c17.7,0,34.3,0,50.9,0c7.2,0,14.3-0.1,21.5,0c2.2,0,3.8-0.2,4.6-2.6c1.6-4.9,3.4-9.7,5.1-14.6
		c1.1-2.9,0-3.7-2.9-3.7c-32.1,0.1-64.3,0.1-96.4,0c-3.2,0-3.9,1.8-4.7,4c-6.2,18.6-12.5,37.1-18.5,55.8
		c-5.5,17.1-23,35.8-47.2,34.4c-3.8-0.2-7.7-0.2-11.5,0.1c-3.3,0.3-3.5-0.8-2.6-3.6c5.2-15.6,10.2-31.2,15.3-46.8
		c7.1-21.8,14.2-43.5,21.2-65.4c1-3.1,2.4-4.2,5.9-4.2c56.6,0.2,113.3,0.1,169.9,0.1c7.7,0,14.4,1.8,19.8,7.5c6,6.4,6.5,14.2,4.6,22
		c-1.8,7.5-4.2,15-7.4,22.2c-5.7,12.9-16,19-29.6,20c-4.8,0.3-9.7,0-14.5,0.1c-1.6,0-3.6-0.8-4.6,0.9c-1,1.7,0.8,3.1,1.7,4.3
		c9.4,13.7,19,27.3,28.5,40.9c0.3,0.4,0.5,0.8,0.8,1.2c-1,1.5-2.4,0.7-3.7,0.7c-17.2,0-34.3-0.1-51.5,0.1c-3.5,0-5.3-1.1-7.2-3.9
		c-14.8-21.7-29.7-43.3-44.6-64.9C810.6,91.4,809.8,90.1,808.3,88z"/>
	<path fill="#191916" d="M463.3,161.8c-19.2,0-38.2,0-57.1,0.1c-2.4,0-3.9-0.8-5.4-2.7c-8-9.6-16.2-19-24.1-28.6
		c-2.4-2.9-4.1-3.4-7.3-1.2c-13,8.7-25.9,17.5-39.4,25.2c-7.6,4.3-15.6,7.3-24.5,7.2c-14.8-0.1-29.5,0-45.9,0
		c11.2-7.4,21.3-13.9,31.3-20.5c18.7-12.2,37.2-24.4,56.1-36.3c4.3-2.7,3.8-4.4,0.9-7.7c-15.6-17.8-31-35.7-46.4-53.5
		c-0.4-0.5-0.8-1-1.2-1.6c2-1.5,4-0.5,5.9-0.6c12.3-0.1,24.7,0,37-0.1c10.1,0,18.9,2.9,25.8,10.7c6,6.7,12.2,13.2,18,20.1
		c2.7,3.3,4.8,3.4,8.3,1.2c13-8.3,25.4-17.6,39-24.9c7.6-4.1,15.4-7,24.1-7c14.8,0.1,29.5,0,45.6,0c-4.1,2.9-7.2,5.1-10.4,7.2
		c-25.6,16.7-51.1,33.4-76.8,49.9c-3.6,2.3-3.7,3.7-0.8,7c15.5,17.6,30.8,35.4,46.1,53.1C462.6,159.5,463.6,160.1,463.3,161.8z"/>
	<path fill="#FE050F" d="M287.5,57c11.9,13.7,23.5,27,35.4,40.6c-20.3,13.2-40.6,26.4-61.8,40.2C270.1,110.3,278.7,83.9,287.5,57z"
		/>
	<path fill="#191916" d="M1006.2,49.3c-1.2,3.2-2.3,6.4-3.5,9.6c-0.4,1-0.6,2.4-2.2,2.2c-1.2-0.2-1.4-1.2-1.7-2.2
		c-1.1-3-2.2-6-4.5-8.8c0,2.9,0,5.9,0,8.8c0,1.3-0.3,2.2-1.9,2.2c-1.7,0-1.7-1.1-1.7-2.3c0-5,0-10,0-15c0-1.3-0.3-2.8,1.8-2.7
		c1.6,0.1,3.2-0.3,3.9,1.9c1.1,3.7,2.6,7.4,4.3,12.1c1.6-4.4,3.1-7.9,4.1-11.5c0.7-2.6,2.4-2.8,4.5-2.6c2.6,0.2,1.5,2.2,1.5,3.4
		c0.1,4.5,0.1,9,0,13.5c0,1.3,0.8,3.2-1.8,3.1c-2.5-0.1-1.8-2-1.8-3.3c-0.1-2.8,0-5.5,0-8.3C1006.9,49.4,1006.6,49.3,1006.2,49.3z"
		/>
	<path fill="#191916" d="M978.1,52.2c0-1.3-0.1-2.7,0-4c0.3-3-0.3-4.8-3.9-4.2c-1.1,0.2-2.5,0.3-2.4-1.5c0.1-1.9,1.5-1.4,2.5-1.4
		c3.8-0.1,7.6,0,11.4,0c0.9,0,2-0.2,2.2,1.3c0.2,1.8-1.1,1.9-2.2,1.7c-4.1-0.8-4.1,1.7-3.9,4.6c0.2,3.3,0,6.6,0,9.9
		c0,1.1,0.3,2.4-1.6,2.5c-1.8,0.1-2.3-0.8-2.2-2.4C978.2,56.5,978.1,54.3,978.1,52.2z"/>
	<path fill="#FDFDFD" d="M587.5,134.9c-16.1,0-32.3-0.1-48.4,0.1c-3.6,0-4.6-0.5-3.3-4.5c6.7-19.7,13-39.5,19.4-59.3
		c0.9-2.9,2.3-4.2,5.6-4.2c32.3,0.1,64.6,0.1,96.9,0c3.8,0,4.5,1,3.3,4.6c-6.7,19.9-13.3,39.8-19.7,59.7c-1,3.1-2.6,3.6-5.4,3.5
		C619.8,134.8,603.6,134.9,587.5,134.9z"/>
	<path fill="#FDFDFD" d="M157.5,86c-14.6,0-29.3-0.1-43.9,0.1c-4,0.1-4.6-1.2-3.2-4.6c1.3-3.4,2.8-6.8,3.4-10.3c0.7-3.5,2.6-4,5.6-4
		c29.4,0.1,58.9,0.1,88.3,0c4,0,4.2,1.2,3.3,4.5c-4.2,14.3-4.1,14.3-19,14.3C180.5,86,169,86,157.5,86z"/>
</g>
</svg>
