<?xml version="1.0" encoding="UTF-8" standalone="no"?>
<svg
   xmlns:dc="http://purl.org/dc/elements/1.1/"
   xmlns:cc="http://creativecommons.org/ns#"
   xmlns:rdf="http://www.w3.org/1999/02/22-rdf-syntax-ns#"
   xmlns:svg="http://www.w3.org/2000/svg"
   xmlns="http://www.w3.org/2000/svg"
   xml:space="preserve"
   enable-background="new 0 0 1024 417"
   viewBox="0 0 1033.986 427.09399"
   height="427.09399"
   width="1033.986"
   y="0px"
   x="0px"
   id="Ebene_1"
   version="1.1"><defs
     id="defs25" /><path
     style="fill:#e20026"
     id="path3"
     d="m 597.704,422.093 c -35.789,0 -57.251,-23.611 -57.251,-58.077 0,-34.494 21.462,-58.104 57.251,-58.104 35.844,0 57.195,23.61 57.195,58.104 0,34.466 -21.351,58.077 -57.195,58.077 m 0,-21.875 c 20.112,0 23.418,-18.749 23.418,-36.202 0,-17.439 -3.306,-36.243 -23.418,-36.243 -20.058,0 -23.363,18.804 -23.363,36.243 0,17.453 3.306,36.202 23.363,36.202" /><path
     style="fill:#e20026"
     id="path5"
     d="m 686.583,309.19 0,-21.601 32.703,-11.819 0,33.42 24.713,0 0,21.848 -24.713,0 0,50.873 c 0,14.423 2.231,18.308 13.583,18.308 3.526,0 6.998,-0.413 10.496,-0.634 l 0,19.217 c -3.719,1.805 -21.269,3.292 -25.76,3.292 -25.595,0 -31.022,-13.334 -31.022,-37.139 l 0,-53.917 -22.096,0 0,-21.848 22.096,0 z" /><path
     style="fill:#e20026"
     id="path7"
     d="m 815.963,422.093 c -35.734,0 -57.086,-23.611 -57.086,-58.077 0,-34.494 21.352,-58.104 57.086,-58.104 35.926,0 57.223,23.61 57.223,58.104 0,34.466 -21.297,58.077 -57.223,58.077 m 0,-21.875 c 20.222,0 23.418,-18.749 23.418,-36.202 0,-17.439 -3.196,-36.243 -23.418,-36.243 -19.975,0 -23.281,18.804 -23.281,36.243 0,17.453 3.306,36.202 23.281,36.202" /><path
     style="fill:#e20026"
     id="path9"
     d="m 533.152,418.54 -43.09,-69.869 c 19.093,-9.423 29.699,-25.761 29.699,-43.007 0,-30.596 -27.633,-45.267 -54.716,-45.474 l -67.362,0 0,158.377 34.135,0 0,-64.331 21.985,0 39.398,64.304 39.951,0 z m -101.443,-132.025 28.433,0 c 14.822,0.248 23.611,6.144 23.611,20.182 0,14.051 -8.789,21.476 -23.611,21.737 l -28.433,0 0,-41.919 z" /><polygon
     transform="translate(4.67,3.187)"
     style="fill:#e20026"
     id="polygon11"
     points="1024.316,415.27 990.236,415.27 597.139,22.021 205.53,415.27 0.33,415.27 413.815,1.827 610.859,1.813 " /><path
     style="fill:#e20026"
     id="path13"
     d="m 597.704,422.093 c -35.789,0 -57.251,-23.611 -57.251,-58.077 0,-34.494 21.462,-58.104 57.251,-58.104 35.844,0 57.195,23.61 57.195,58.104 0,34.466 -21.351,58.077 -57.195,58.077 m 0,-21.875 c 20.112,0 23.418,-18.749 23.418,-36.202 0,-17.439 -3.306,-36.243 -23.418,-36.243 -20.058,0 -23.363,18.804 -23.363,36.243 0,17.453 3.306,36.202 23.363,36.202" /><path
     style="fill:#e20026"
     id="path15"
     d="m 686.583,309.19 0,-21.601 32.703,-11.819 0,33.42 24.713,0 0,21.848 -24.713,0 0,50.873 c 0,14.423 2.231,18.308 13.583,18.308 3.526,0 6.998,-0.413 10.496,-0.634 l 0,19.217 c -3.719,1.805 -21.269,3.292 -25.76,3.292 -25.595,0 -31.022,-13.334 -31.022,-37.139 l 0,-53.917 -22.096,0 0,-21.848 22.096,0 z" /><path
     style="fill:#e20026"
     id="path17"
     d="m 815.963,422.093 c -35.734,0 -57.086,-23.611 -57.086,-58.077 0,-34.494 21.352,-58.104 57.086,-58.104 35.926,0 57.223,23.61 57.223,58.104 0,34.466 -21.297,58.077 -57.223,58.077 m 0,-21.875 c 20.222,0 23.418,-18.749 23.418,-36.202 0,-17.439 -3.196,-36.243 -23.418,-36.243 -19.975,0 -23.281,18.804 -23.281,36.243 0,17.453 3.306,36.202 23.281,36.202" /><path
     style="fill:#e20026"
     id="path19"
     d="m 533.152,418.54 -43.09,-69.869 c 19.093,-9.423 29.699,-25.761 29.699,-43.007 0,-30.596 -27.633,-45.267 -54.716,-45.474 l -67.362,0 0,158.377 34.135,0 0,-64.331 21.985,0 39.398,64.304 39.951,0 z m -101.443,-132.025 28.433,0 c 14.822,0.248 23.611,6.144 23.611,20.182 0,14.051 -8.789,21.476 -23.611,21.737 l -28.433,0 0,-41.919 z" /><polygon
     transform="translate(4.67,3.187)"
     style="fill:#e20026"
     id="polygon21"
     points="1024.316,415.27 990.236,415.27 597.139,22.021 205.53,415.27 0.33,415.27 413.815,1.827 610.859,1.813 " /></svg>