<?xml version="1.0" encoding="utf-8"?>
<!-- Generator: Adobe Illustrator 24.1.2, SVG Export Plug-In . SVG Version: 6.00 Build 0)  -->
<svg version="1.1" baseProfile="tiny" id="Слой_1"
	 xmlns="http://www.w3.org/2000/svg" xmlns:xlink="http://www.w3.org/1999/xlink" x="0px" y="0px" viewBox="0 0 2578 1122"
	 overflow="visible" xml:space="preserve">
<g>
	<path fill="#FEFEFE" d="M1289,1121.9c-428.1,0-856.3,0-1284.4,0.1c-3.7,0-4.6-0.8-4.6-4.6C0.1,746.5,0.1,375.5,0,4.6
		C0,0.8,0.8,0,4.6,0c856.3,0.1,1712.5,0.1,2568.8,0c3.7,0,4.6,0.8,4.6,4.6c-0.1,370.9-0.1,741.9,0,1112.8c0,3.7-0.8,4.6-4.6,4.6
		C2145.3,1121.9,1717.1,1121.9,1289,1121.9z M1182.2,486c-24.5,0-49,0.1-73.5-0.1c-3.3,0-4.7,0.6-4.6,4.3c0.2,11,0.2,22,0,33
		c-0.1,3.5,1.1,4.7,4.6,4.6c7.7-0.2,15.3,0.1,23-0.1c3.4-0.1,4.6,0.8,4.6,4.4c-0.2,17.8-0.2,35.7,0,53.5c0,3.4-1.2,5-4.2,5.3
		c-14.3,1.4-28.6,3.6-43.1,1.1c-20.4-3.6-35.1-14.4-43.1-33.8c-8.4-20.3-9.6-41.5-6.7-62.8c1.9-14,7.6-26.6,17.7-36.9
		c16.9-17.3,38.3-23.4,61.5-24.3c13.6-0.6,27.3-0.6,40.9,0.7c7.9,0.8,15.9,0.5,23.8,1.3c12.8,1.3,25.6,3.2,38.3,4.8
		c4,0.5,9.4,2.8,11.7,1.1c2.4-1.8,1.8-7.6,2.4-11.6c1.8-12.4,3.6-24.8,5.4-37.2c0.4-2.7-0.7-3.7-3.4-4.3c-19.9-3.8-40-6.6-60.1-8.7
		c-20.9-2.3-42-3.2-63-3.9c-23.4-0.9-46.8-0.1-70.1,2.6c-22.5,2.6-44.5,7.2-65.3,16.3c-25,10.9-45.4,27.3-57.6,52.3
		c-10.5,21.5-13.3,44.5-12.5,68.3c0.4,13.4,1.1,26.7,4.1,39.9c5.4,23.3,16.6,42.9,36.2,57.3c13.5,9.9,28.5,16.3,44.5,21
		c31.7,9.4,64.4,10.7,97.1,11.7c7.9,0.2,15.9-0.5,23.9-0.7c7.1-0.2,14.3-0.4,21.4-0.8c19.4-1,38.6-2.8,57.8-5.1
		c20.6-2.5,41.1-5.8,61.4-9.9c3.7-0.7,4.8-2,4.8-5.8c-0.1-44.2-0.1-88.3,0-132.5c0-3.8-0.8-5-4.9-5
		C1230.9,486.1,1206.5,486,1182.2,486z M1883,555.2c-0.3,0.1-0.7,0.1-1,0.2c-2-4.3-3.9-8.6-6-12.9c-14.5-30.4-29-60.8-43.5-91.1
		c-10.4-21.7-20.8-43.5-31.1-65.3c-1.2-2.5-2.6-3.9-5.6-3.9c-45.5,0.1-91,0-136.5,0.1c-10.8,0-18.2,7.3-18.2,17.5
		c0,78.3,0,156.6-0.1,234.9c0,3.6,1,4.4,4.5,4.4c15.7-0.2,31.3-0.3,47,0c4.5,0.1,5.7-1.1,5.7-5.7c-0.2-54.2-0.1-108.3-0.1-162.5
		c0-1.7,0-3.5,0-5.2c2.9,4.1,4.8,8.4,6.9,12.6c14.9,31.1,29.8,62.3,44.7,93.4c10.2,21.3,20.5,42.5,30.6,63.9
		c1.3,2.8,2.8,3.4,5.6,3.4c46-0.1,92,0,138-0.1c9.4,0,16.3-6.9,16.3-16.4c0-78.6,0-157.3,0.1-235.9c0-4.1-1.5-4.5-4.9-4.5
		c-15.7,0.2-31.3,0.2-47,0c-4.1-0.1-5.3,1-5.3,5.2c0.1,54.2,0.1,108.3,0.1,162.5C1883,551.6,1883,553.4,1883,555.2z M1462.2,639
		c41.2,0,82.3-0.1,123.5,0.1c7.6,0,10.9-4.2,12.1-9.4c3.3-14.3,6-28.7,9.3-42.9c1.2-5.2-0.2-5.8-5-5.8
		c-51.3,0.2-102.6,0.1-153.9,0.1c-10,0-13.1-3.1-13.1-12.9c0-9,0.3-18-0.1-27c-0.2-4.6,1.4-5.4,5.6-5.3c49.1,0.1,98.3,0,147.4,0.2
		c3.9,0,5.1-1,5-5c-0.3-13.2-0.3-26.3,0-39.5c0.1-4.6-1.1-5.8-5.7-5.8c-49.1,0.2-98.3,0.1-147.4,0.2c-3.5,0-5-0.6-4.8-4.5
		c0.3-10.3,0.2-20.7,0.1-31c-0.1-4.7,2.4-7.5,6.2-9.2c2.4-1.1,5-1.3,7.8-1.3c51.5,0.1,103,0,154.4,0.1c3.6,0,4.8-0.2,3.7-4.5
		c-3.4-13.5-6.3-27.2-9.1-40.9c-2.1-10.4-4.5-12.5-14.9-12.5c-79.1,0-158.3,0-237.4,0.1c-4.4,0-9,0.2-13.3,1.3
		c-19.8,5-32.5,21.5-32.5,41.9c0,57,0,113.9-0.1,170.9c0,3.5,0.4,7,1.2,10.3c4.7,20.1,23.3,32.5,41.1,32.3
		C1382.2,638.7,1422.2,639,1462.2,639z M885.9,440c-3.1-14.5-6.1-28.5-8.9-42.5c-2.8-13.5-5-15.3-18.9-15.3c-76.3,0-152.6,0-229,0
		c-4.6,0-9.2,0.2-13.9,0.7c-20.6,2.2-37.1,19.6-37.2,41.3c0,58,0,116,0,174c0,21.9,19,40.8,40.9,40.8c78.8,0,157.6,0,236.5,0
		c3.5,0,7,0.1,10.5,0c4.7-0.2,8-2.6,9-7.1c3.5-15.1,6.6-30.2,10.2-45.3c1.2-4.8-0.3-5.5-4.8-5.5c-51.5,0.2-103,0.1-154.5,0.1
		c-10.1,0-13-2.9-13-13.1c0-8.7,0.3-17.3-0.1-26c-0.3-5.1,1.3-6.3,6.3-6.2c48.8,0.2,97.7,0.1,146.5,0.2c4.5,0,5.6-1.2,5.5-5.5
		c-0.3-12.8-0.4-25.7,0-38.5c0.2-5.2-1.4-6.2-6.3-6.2c-48.8,0.2-97.7,0-146.5,0.2c-4.5,0-5.6-1.3-5.4-5.6c0.3-8.7,0.5-17.3,0-26
		c-0.6-10,4.5-14.6,14.6-14.6c47.7,0.1,95.3,0.1,143,0.1C875.3,440,880.3,440,885.9,440z M230.7,644.9c8.8,0.1,15.2-0.5,21.7-0.8
		c17-0.9,33.9-2.5,50.6-6.1c32.1-6.8,54.2-24.9,63.3-57c4.9-17.2,3.7-34.5-3.9-50.8c-10.4-22.3-30-33-52.6-39.2
		c-11.7-3.2-23.6-4.4-35.7-5.2c-13.5-0.9-27-2.6-40.5-3.8c-13.3-1.3-26.8-1.4-39.9-4.1c-14.2-3-18.5-8.7-19.5-19.6
		c-0.9-9.6,6.6-17.3,18.2-20.3c10.5-2.8,21.3-3.5,31.9-3.8c20.8-0.6,41.6-0.6,62.4,0.9c8.7,0.6,17.4,1.9,26.1,2.6
		c11.2,0.9,22.3,2.7,33.4,4.4c3,0.5,3.6-0.4,3.9-3.2c1.9-15,3.7-30.1,6.2-45c0.6-3.9-0.2-4.3-3.5-5c-20.9-3.8-41.9-6.9-63.1-9.1
		c-18.8-1.9-37.7-2.8-56.5-3.5c-25.6-1-51.1,0-76.6,2.7c-19.1,2-37.9,5.2-55.8,12.4c-13.2,5.3-25.2,12.5-33.9,24.2
		c-10.4,14-13.4,29.8-12.9,46.8c0.6,20.6,9.3,36.9,25.1,49.5c18.7,14.9,41,19.6,64.3,21.2c8.9,0.6,17.8,1.3,26.7,2.1
		c14.2,1.2,28.3,2.5,42.5,4c8.5,0.9,17.2,1,25.3,4c13.9,5.1,16.7,14.8,12.8,27.3c-2.6,8.5-10.4,11.5-18.2,13.6
		c-12.4,3.5-25.2,3.5-37.9,3.9c-26.1,0.8-52.1-0.4-78.1-2.7c-16.1-1.4-32.2-3-48.1-5.9c-3-0.5-3.1,0.8-3.4,3.2
		c-1.9,14.9-3.5,29.9-6.3,44.6c-0.9,5,1.2,5.2,4.3,5.9c28.9,5.7,58.1,8.8,87.4,10.9c17.2,1.2,34.5,1.3,51.7,2
		C212.4,646.3,222.7,644.3,230.7,644.9z M2516.3,639c-13.7-29.4-26.9-57.9-40.2-86.4c-10.2-21.8-20.4-43.6-30.6-65.5
		c-15.1-32.4-30.2-64.8-45.2-97.3c-2.4-5.1-6.3-7.6-11.6-7.6c-43.1-0.1-86.3,0-129.4,0c-6.5,0-10.7,3-13.2,9.1
		c-8.4,20-17,40-25.5,60c-10.5,24.5-21,49.1-31.5,73.6c-11.2,26.1-22.3,52.1-33.5,78.2c-5,11.8-10.1,23.6-15.3,35.9
		c1.9,0,3.2,0,4.5,0c17,0,34-0.1,51,0.1c3.8,0.1,5.1-1.5,6.4-4.6c6-14.6,12.3-29.1,18.4-43.7c1.1-2.7,2.5-4,5.8-4
		c40.8,0.1,81.6,0.1,122.4,0c3,0,4.4,1,5.5,3.6c6.5,14.8,13.4,29.4,19.8,44.2c1.5,3.5,3.2,4.5,7,4.5c38.3-0.2,76.6-0.1,115-0.1
		C2502.4,639,2508.9,639,2516.3,639z M534.1,510.9c0-41.1-0.1-82.3,0.1-123.4c0-4-0.8-5.3-5.1-5.3c-41.6,0.2-83.3,0.2-124.9,0
		c-4.3,0-5.1,1.4-5.1,5.4c0.1,82.1,0.1,164.2,0,246.4c0,4.1,0.9,5.3,5.1,5.3c41.6-0.2,83.3-0.2,124.9,0c4.3,0,5.1-1.3,5.1-5.3
		C534,592.8,534.1,551.8,534.1,510.9z M2118.9,510.5c0-41,0-82,0.1-123c0-3.9-0.5-5.5-5-5.4c-41.5,0.2-83,0.2-124.5,0
		c-4.6,0-5.5,1.6-5.5,5.8c0.1,82,0.1,164,0,245.9c0,4.2,1.1,5.2,5.2,5.2c41.5-0.2,83-0.2,124.5,0c4.7,0,5.3-1.6,5.3-5.6
		C2118.9,592.5,2118.9,551.5,2118.9,510.5z M1281.8,841.5c-24.7-25.9-49.2-51.6-74.5-78.1c0,32.9,0.1,64.5-0.1,96.1
		c0,4.9,2.2,4.7,5.7,4.8c3.5,0,5.7,0.1,5.6-4.7c-0.3-21.2-0.1-42.3-0.1-63.5c0-1.7-0.4-3.5,0.7-5.5c24.8,26,49.3,51.6,74.2,77.7
		c0.3-1.2,0.5-1.6,0.5-2c0-31.7-0.1-63.3,0.1-95c0-5.6-3.7-3.4-6.2-3.6c-2.5-0.2-5.1-1-5.1,3.6c0.3,21.5,0.1,43,0.1,64.5
		C1282.6,837.5,1283.2,839.3,1281.8,841.5z M1867.2,842.5c-25.3-26.6-49.9-52.4-75.1-78.9c-0.1,1.5-0.2,2.1-0.2,2.7
		c0,31.5,0.1,63-0.1,94.5c0,5.7,3.9,3,6.2,3.4c2.4,0.4,5.1,1,5-3.6c-0.3-21.8-0.1-43.7-0.1-65.5c0-1.3-0.8-2.9,0.8-4.2
		c24.5,25.7,49,51.3,73.9,77.4c0.1-1.4,0.2-1.7,0.2-2c0-31.3-0.1-62.7,0.1-94c0-4.1-1.2-5-5-4.8c-3.5,0.2-6.1-0.3-6,5
		C1867.4,795.5,1867.2,818.5,1867.2,842.5z M1051.7,866c28.6,0,51.1-22,51.1-49.9c0-27.2-22.7-50-50-50.1
		c-27.3-0.1-50.7,22.7-50.8,49.4C1002,843.5,1024.1,866,1051.7,866z M318.4,816.5c0.7-26.3-21.8-49.7-48.8-50.5
		c-27.4-0.9-51.3,21.6-51.8,48.9c-0.5,30.5,22.8,49.3,46.2,51C293.8,868.1,318.1,845.2,318.4,816.5z M2274.2,815.7
		c0,14.8,0.1,29.6-0.1,44.5c0,3.4,1,4.3,4.2,4.2c6.2-0.2,12.3,0,18.5-0.1c28.8-0.6,47.6-18.2,49.4-46.3
		c1.4-21.6-11.4-40.7-31.8-47.5c-12.4-4.1-25.3-2.5-38.1-2.8c-3.1-0.1-2.1,2.5-2.1,4.1C2274.2,786.4,2274.2,801.1,2274.2,815.7z
		 M628.1,803.9c0.1,0,0.2,0,0.3,0c0-10.5-0.3-21,0.1-31.5c0.2-4.6-1.7-5-5.4-4.9c-3.7,0.1-6,0-5.9,5.1c0.3,20.6-0.1,41.3-0.1,61.9
		c0,14.5-11.8,20.7-21.7,21.3c-15.1,0.9-24.8-8.8-24.9-24.8c-0.1-19.6-0.2-39.3,0.1-58.9c0.1-4.6-2-4.7-5.3-4.5
		c-3,0.2-6.1-1.1-6,4.4c0.4,19.5,0,39,0.2,58.4c0,5.8,0.5,11.6,3.1,17c6.2,12.8,20.5,20.5,36.2,18.4c15.4-2,29.3-13.1,29.4-31.4
		C628.1,824.2,628.1,814.1,628.1,803.9z M2452.6,816.1c0,14.7,0.1,29.3-0.1,44c0,3.1,0.5,4.3,4,4.3c14-0.2,28-0.3,42,0
		c4.5,0.1,4.1-2.3,4.2-5.2c0.1-3.3-0.1-5.2-4.4-5c-10.5,0.3-21,0-31.5,0.2c-2.8,0-3.7-0.8-3.7-3.7c0.2-10,0.2-20,0-30
		c-0.1-3.5,1.3-4.1,4.3-4c10,0.1,20-0.2,30,0.2c4.5,0.2,4.2-2.1,4.2-5.2c0.1-3.2,0-5.2-4.3-5.1c-10,0.3-20,0-30,0.2
		c-3.3,0.1-4.3-1-4.2-4.2c0.2-7,0.2-14,0-21c-0.1-3.2,1-3.9,4-3.9c10.5,0.2,21-0.1,31.5,0.2c4.1,0.1,4.2-1.9,4-4.8
		c-0.2-2.7,0.8-5.5-4-5.4c-14.2,0.3-28.3,0.2-42.5,0c-3.4-0.1-3.7,1.3-3.7,4.1C2452.7,786.5,2452.6,801.3,2452.6,816.1z M1429.8,866
		c14.6,0,26.4-8.8,29.8-22.3c3.5-13.7-2.1-24.5-16.5-31.9c-1.9-1-3.9-1.9-5.8-2.8c-5.2-2.4-10.8-4.1-15.4-7.6
		c-9-6.7-7.5-18.9,2.7-23.6c7.9-3.6,15.8-1.5,21.9,6.2c4,5,5.7-0.9,8.4-1.6c3.4-0.9,1.1-3.1,0-4.5c-7.7-10.2-17.7-13.7-30.2-11
		c-10.1,2.2-17.7,9.8-19.6,20c-1.8,9.4,2.3,18.4,11.8,23.8c7.7,4.4,16,7.9,23.9,12.1c6.2,3.3,9.6,8.7,8.7,15.9
		c-1.1,9.5-8,16.2-17.3,17.2c-9.2,1-17.6-4.3-20.5-13.8c-1.1-3.5-2.5-4-5.5-2.8c-1.1,0.4-2.2,0.6-3.4,0.9c-2.3,0.5-2.9,1.4-2.1,4
		C1405.1,858.2,1415.3,866,1429.8,866z M95,866c2.5,0.3,5.4-0.3,8.3-1c11-2.7,20.1-12.5,21.7-23.4c1.8-12.6-2.2-21-13.7-27.8
		c-3-1.8-6.1-3.3-9.3-4.8c-5.5-2.6-11.4-4.5-16.2-8.3c-3.6-2.9-5.5-6.4-4.9-11.2c0.8-6.3,4.5-10.4,10.3-12.2
		c7-2.2,13.9-1.5,18.4,4.9c3.2,4.5,5.6,3.8,9.4,1.2c2.6-1.8,2.6-2.9,1-5.3c-6.9-10-18.3-14.1-31.2-10.9
		c-9.2,2.2-17.4,10.6-18.6,19.4c-1.4,10.1,1.8,18.4,10.8,23.8c3.4,2,6.9,3.9,10.6,5.5c5.3,2.4,10.6,4.6,15.4,7.8
		c3.9,2.5,6.7,5.9,7.2,10.7c1.2,10.5-4.7,18.8-15.1,21.3c-9.4,2.2-19.3-3.3-22.3-12.9c-1.2-3.9-2.8-4.7-6.3-3.1
		c-1,0.5-2.2,0.8-3.3,1c-1.7,0.4-2.4,0.7-1.7,2.9C69.4,857.7,79.9,866,95,866z M2014.7,866c3.6,0.6,7.6-0.7,11.5-2
		c17.1-5.9,24.5-28.8,13.9-42.6c-3.7-4.9-9-7.6-14.4-10.4c-6.9-3.5-14.5-5.5-20.7-10.5c-3.9-3.1-5.4-6.9-4.5-11.8
		c1.1-6.2,5-10,10.8-11.6c6.9-1.9,13.1-0.6,18.1,5c4,4.5,5.1,4.5,9.9,0.6c1.5-1.2,1.6-2,0.7-3.7c-9.3-16.5-36.6-17.3-46.9-1.3
		c-7.9,12.4-3.9,26.6,9.6,34.2c7.8,4.3,16.5,6.9,23.9,11.9c6.4,4.4,8.7,10.9,6.5,18.3c-2.5,8.4-9.7,13.9-18.5,13.9
		c-8.7,0.1-16.5-5.1-18.7-13.5c-1.1-4.1-2.6-4.3-5.8-2.9c-0.9,0.4-1.9,0.5-2.9,0.7c-2.5,0.5-2.9,1.6-2.1,4.2
		C1989.6,858.1,2000,866,2014.7,866z M762.1,821.5c0-13.3,0.1-26.6-0.1-39.9c0-3,0.5-4.1,3.8-4c5.3,0.3,10.7-0.2,16,0.2
		c4,0.3,4.3-1.8,4.1-4.8c-0.2-2.7,0.9-5.5-3.9-5.4c-16.6,0.3-33.3,0.3-49.9,0c-4.1-0.1-4.2,1.8-3.9,4.8c0.2,2.5-1.3,5.9,3.8,5.5
		c4.8-0.4,9.7,0.2,14.5-0.2c4.1-0.3,5.2,0.9,5.2,5.1c-0.2,25.6,0,51.2-0.2,76.9c-0.1,4.8,2.1,4.7,5.6,4.8c3.8,0.1,5.5-0.4,5.3-5
		C761.8,846.8,762.1,834.1,762.1,821.5z M423.7,815.7c0,15,0.1,30-0.1,44.9c0,2.7,0.6,3.8,3.5,3.7c10.1-0.2,20.3-0.3,30.5,0
		c4.8,0.1,3.3-2.9,3.4-5.2c0.1-2.6,0.8-5.3-3.7-5c-6,0.4-12-0.1-18,0.2c-3.7,0.2-4.7-0.8-4.7-4.6c0.2-26-0.1-51.9,0.2-77.9
		c0.1-5.6-3.3-4-6.2-4.2c-3-0.2-5.2-0.4-5.1,4.1C423.9,786.4,423.7,801,423.7,815.7z M1669.3,815.9c0,14.6,0.3,29.3-0.1,43.9
		c-0.2,5.4,2.9,4.3,5.9,4.5c3.2,0.1,5.4,0.4,5.4-4.4c-0.3-29.3-0.2-58.6,0-87.8c0-4-1.2-5-4.8-4.5c-2.9,0.4-6.7-1.6-6.5,4.4
		C1669.5,786.6,1669.3,801.3,1669.3,815.9z M887,815.7c0,15,0.2,29.9-0.1,44.9c-0.1,4.5,2.5,3.8,5,3.7c2.6-0.2,6,1.6,6-3.8
		c-0.2-29.6-0.2-59.2,0-88.8c0-5.8-3.8-3.5-6.4-3.9c-3.2-0.6-4.6,0.3-4.5,4.1C887.2,786.4,887,801,887,815.7z M2151.6,816
		c0,14.6,0.2,29.3-0.1,43.9c-0.1,4.7,2.1,4.6,5.3,4.4c2.9-0.2,5.6,0.9,5.6-4.2c-0.3-29.4-0.3-58.9,0-88.3c0-5.1-2.7-4-5.6-4.2
		c-3.3-0.2-5.4-0.2-5.3,4.5C2151.8,786.7,2151.6,801.3,2151.6,816z M2533.2,410.6c0.1-16.2-13.1-30.4-28.5-30.6
		c-18.3-0.2-32.1,12.3-32.5,29.7c-0.4,16.7,13.4,30.9,30.2,31.3C2519,441.4,2533.1,427.5,2533.2,410.6z"/>
	<path fill="#4A7FC4" d="M1182.2,486c24.3,0,48.7,0.1,73-0.1c4,0,4.9,1.2,4.9,5c-0.1,44.2-0.1,88.3,0,132.5c0,3.7-1.2,5-4.8,5.8
		c-20.3,4.2-40.8,7.5-61.4,9.9c-19.2,2.3-38.5,4.1-57.8,5.1c-7.1,0.4-14.3,0.6-21.4,0.8c-8,0.3-15.9,1-23.9,0.7
		c-32.7-1-65.4-2.3-97.1-11.7c-15.9-4.7-31-11.2-44.5-21c-19.6-14.4-30.8-34-36.2-57.3c-3.1-13.1-3.7-26.4-4.1-39.9
		c-0.7-23.8,2-46.7,12.5-68.3c12.2-25,32.6-41.4,57.6-52.3c20.8-9.1,42.8-13.7,65.3-16.3c23.3-2.7,46.7-3.5,70.1-2.6
		c21,0.8,42.1,1.7,63,3.9c20.1,2.2,40.2,4.9,60.1,8.7c2.7,0.5,3.8,1.6,3.4,4.3c-1.8,12.4-3.6,24.8-5.4,37.2c-0.6,4.1,0,9.8-2.4,11.6
		c-2.3,1.8-7.7-0.6-11.7-1.1c-12.8-1.6-25.5-3.5-38.3-4.8c-7.9-0.8-15.9-0.5-23.8-1.3c-13.6-1.4-27.3-1.3-40.9-0.7
		c-23.2,0.9-44.6,7.1-61.5,24.3c-10.1,10.3-15.7,22.9-17.7,36.9c-2.9,21.4-1.7,42.5,6.7,62.8c8,19.4,22.7,30.2,43.1,33.8
		c14.4,2.5,28.7,0.3,43.1-1.1c3-0.3,4.3-1.9,4.2-5.3c-0.2-17.8-0.2-35.7,0-53.5c0-3.6-1.2-4.5-4.6-4.4c-7.7,0.2-15.3-0.1-23,0.1
		c-3.5,0.1-4.6-1.2-4.6-4.6c0.2-11,0.2-22,0-33c-0.1-3.7,1.3-4.3,4.6-4.3C1133.2,486.1,1157.7,486,1182.2,486z"/>
	<path fill="#4A7FC4" d="M1883,555.2c0-1.8,0-3.6,0-5.4c0-54.2,0-108.3-0.1-162.5c0-4.2,1.2-5.3,5.3-5.2c15.7,0.2,31.3,0.2,47,0
		c3.4,0,4.9,0.5,4.9,4.5c-0.1,78.6-0.1,157.3-0.1,235.9c0,9.5-6.9,16.4-16.3,16.4c-46,0-92,0-138,0.1c-2.7,0-4.3-0.6-5.6-3.4
		c-10.1-21.4-20.4-42.6-30.6-63.9c-14.9-31.1-29.8-62.3-44.7-93.4c-2-4.2-4-8.5-6.9-12.6c0,1.7,0,3.5,0,5.2
		c0,54.2-0.1,108.3,0.1,162.5c0,4.6-1.2,5.8-5.7,5.7c-15.7-0.3-31.3-0.2-47,0c-3.5,0-4.5-0.8-4.5-4.4c0.1-78.3,0.1-156.6,0.1-234.9
		c0-10.2,7.4-17.4,18.2-17.5c45.5-0.1,91,0,136.5-0.1c3,0,4.4,1.4,5.6,3.9c10.3,21.8,20.7,43.5,31.1,65.3
		c14.5,30.4,29,60.8,43.5,91.1c2,4.3,4,8.6,6,12.9C1882.3,555.3,1882.6,555.2,1883,555.2z"/>
	<path fill="#4A7FC4" d="M1462.2,639c-40,0-80-0.2-120,0.1c-17.7,0.2-36.4-12.3-41.1-32.3c-0.8-3.4-1.2-6.8-1.2-10.3
		c0.1-57,0-113.9,0.1-170.9c0-20.4,12.7-37,32.5-41.9c4.3-1.1,8.9-1.3,13.3-1.3c79.1-0.1,158.3-0.1,237.4-0.1
		c10.4,0,12.7,2.1,14.9,12.5c2.8,13.7,5.7,27.3,9.1,40.9c1.1,4.3-0.2,4.5-3.7,4.5c-51.5-0.1-103,0-154.4-0.1c-2.7,0-5.4,0.2-7.8,1.3
		c-3.8,1.8-6.3,4.6-6.2,9.2c0.1,10.3,0.2,20.7-0.1,31c-0.1,4,1.3,4.5,4.8,4.5c49.1-0.1,98.3,0,147.4-0.2c4.6,0,5.8,1.2,5.7,5.8
		c-0.3,13.2-0.3,26.3,0,39.5c0.1,4-1.1,5-5,5c-49.1-0.1-98.3,0-147.4-0.2c-4.2,0-5.8,0.7-5.6,5.3c0.4,9,0.1,18,0.1,27
		c0,9.8,3.1,12.9,13.1,12.9c51.3,0,102.6,0.1,153.9-0.1c4.8,0,6.2,0.6,5,5.8c-3.4,14.2-6.1,28.6-9.3,42.9c-1.2,5.1-4.5,9.4-12.1,9.4
		C1544.5,638.9,1503.3,639,1462.2,639z"/>
	<path fill="#4A7FC4" d="M885.9,440c-5.5,0-10.5,0-15.5,0c-47.7,0-95.3,0.1-143-0.1c-10.2,0-15.2,4.6-14.6,14.6
		c0.5,8.6,0.3,17.3,0,26c-0.2,4.3,0.9,5.6,5.4,5.6c48.8-0.2,97.7,0,146.5-0.2c4.9,0,6.5,1,6.3,6.2c-0.4,12.8-0.3,25.7,0,38.5
		c0.1,4.4-1,5.6-5.5,5.5c-48.8-0.2-97.7,0-146.5-0.2c-5,0-6.6,1.1-6.3,6.2c0.5,8.6,0.1,17.3,0.1,26c0,10.1,2.9,13.1,13,13.1
		c51.5,0,103,0.1,154.5-0.1c4.5,0,5.9,0.7,4.8,5.5c-3.6,15-6.7,30.2-10.2,45.3c-1,4.5-4.3,6.9-9,7.1c-3.5,0.1-7,0-10.5,0
		c-78.8,0-157.6,0-236.5,0c-21.9,0-40.9-18.9-40.9-40.8c0-58,0-116,0-174c0-21.7,16.5-39.2,37.2-41.3c4.7-0.5,9.3-0.7,13.9-0.7
		c76.3,0,152.6,0,229,0c13.9,0,16.1,1.9,18.9,15.3C879.8,411.6,882.8,425.5,885.9,440z"/>
	<path fill="#4A7FC4" d="M230.7,644.9c-8-0.7-18.3,1.3-28.6,0.9c-17.2-0.7-34.5-0.8-51.7-2c-29.3-2.1-58.5-5.2-87.4-10.9
		c-3.1-0.6-5.2-0.9-4.3-5.9c2.8-14.7,4.4-29.7,6.3-44.6c0.3-2.4,0.4-3.7,3.4-3.2c15.9,2.9,32,4.5,48.1,5.9c26,2.3,52.1,3.4,78.1,2.7
		c12.7-0.4,25.5-0.4,37.9-3.9c7.8-2.2,15.6-5.1,18.2-13.6c3.8-12.5,1.1-22.2-12.8-27.3c-8.2-3-16.8-3.1-25.3-4
		c-14.1-1.5-28.3-2.7-42.5-4c-8.9-0.8-17.8-1.5-26.7-2.1c-23.2-1.6-45.5-6.2-64.3-21.2c-15.8-12.6-24.5-29-25.1-49.5
		c-0.5-17,2.5-32.8,12.9-46.8c8.7-11.7,20.7-18.9,33.9-24.2c17.9-7.1,36.7-10.4,55.8-12.4c25.5-2.6,51-3.6,76.6-2.7
		c18.9,0.7,37.7,1.6,56.5,3.5c21.2,2.2,42.2,5.3,63.1,9.1c3.3,0.6,4.2,1.1,3.5,5c-2.5,14.9-4.3,30-6.2,45c-0.3,2.8-1,3.6-3.9,3.2
		c-11.1-1.7-22.2-3.5-33.4-4.4c-8.7-0.7-17.4-2-26.1-2.6c-20.8-1.5-41.6-1.5-62.4-0.9c-10.7,0.3-21.4,1-31.9,3.8
		c-11.6,3-19.1,10.7-18.2,20.3c1,10.9,5.3,16.6,19.5,19.6c13.1,2.8,26.6,2.9,39.9,4.1c13.5,1.3,27,3,40.5,3.8
		c12.1,0.8,24,2,35.7,5.2c22.6,6.2,42.2,16.9,52.6,39.2c7.6,16.3,8.8,33.5,3.9,50.8c-9.1,32.1-31.2,50.2-63.3,57
		c-16.7,3.6-33.6,5.1-50.6,6.1C245.9,644.5,239.5,645.1,230.7,644.9z"/>
	<path fill="#4A7FC4" d="M2516.3,639c-7.4,0-13.8,0-20.3,0c-38.3,0-76.6-0.1-115,0.1c-3.7,0-5.5-1-7-4.5
		c-6.4-14.8-13.3-29.5-19.8-44.2c-1.2-2.6-2.6-3.6-5.5-3.6c-40.8,0.1-81.6,0.1-122.4,0c-3.3,0-4.7,1.3-5.8,4
		c-6.1,14.6-12.4,29.1-18.4,43.7c-1.3,3.2-2.6,4.7-6.4,4.6c-17-0.2-34-0.1-51-0.1c-1.3,0-2.5,0-4.5,0c5.3-12.4,10.3-24.1,15.3-35.9
		c11.2-26.1,22.3-52.1,33.5-78.2c10.5-24.5,21-49.1,31.5-73.6c8.5-20,17.1-39.9,25.5-60c2.5-6.1,6.7-9.1,13.2-9.1
		c43.1,0,86.3,0,129.4,0c5.4,0,9.3,2.4,11.6,7.6c15,32.5,30.1,64.9,45.2,97.3c10.2,21.8,20.4,43.6,30.6,65.5
		C2489.3,581.1,2502.6,609.6,2516.3,639z M2244,535.7c28.4,0,56.5,0,85.2,0c-14.7-32.5-29.2-64.5-43.7-96.7
		C2282.9,442.5,2248.6,522.6,2244,535.7z"/>
	<path fill="#4A7FC4" d="M534.1,510.9c0,41-0.1,82,0.1,122.9c0,4-0.8,5.3-5.1,5.3c-41.6-0.2-83.3-0.2-124.9,0
		c-4.2,0-5.1-1.2-5.1-5.3c0.1-82.1,0.1-164.2,0-246.4c0-4,0.8-5.4,5.1-5.4c41.6,0.2,83.3,0.2,124.9,0c4.3,0,5.1,1.3,5.1,5.3
		C534,428.6,534.1,469.7,534.1,510.9z"/>
	<path fill="#4A7FC4" d="M2118.9,510.5c0,41-0.1,82,0.1,123c0,4.1-0.5,5.7-5.3,5.6c-41.5-0.2-83-0.2-124.5,0c-4.1,0-5.2-1.1-5.2-5.2
		c0.1-82,0.1-164,0-245.9c0-4.2,0.9-5.8,5.5-5.8c41.5,0.2,83,0.2,124.5,0c4.5,0,5,1.6,5,5.4C2118.9,428.5,2118.9,469.5,2118.9,510.5
		z"/>
	<path fill="#151513" d="M1281.8,841.5c1.5-2.2,0.9-4,0.9-5.7c0-21.5,0.2-43-0.1-64.5c-0.1-4.6,2.6-3.8,5.1-3.6
		c2.5,0.2,6.2-2,6.2,3.6c-0.2,31.7-0.1,63.3-0.1,95c0,0.4-0.2,0.9-0.5,2c-24.9-26-49.3-51.7-74.2-77.7c-1.1,2-0.7,3.8-0.7,5.5
		c0,21.2-0.2,42.3,0.1,63.5c0.1,4.9-2.1,4.8-5.6,4.7c-3.5,0-5.7,0.2-5.7-4.8c0.3-31.6,0.1-63.2,0.1-96.1
		C1232.6,789.9,1257.1,815.6,1281.8,841.5z"/>
	<path fill="#151513" d="M1867.2,842.5c0-24,0.2-47-0.1-70c-0.1-5.3,2.5-4.8,6-5c3.8-0.2,5,0.8,5,4.8c-0.2,31.3-0.1,62.7-0.1,94
		c0,0.3,0,0.7-0.2,2c-25-26.1-49.4-51.8-73.9-77.4c-1.6,1.3-0.8,2.9-0.8,4.2c-0.1,21.8-0.2,43.7,0.1,65.5c0.1,4.6-2.6,3.9-5,3.6
		c-2.3-0.3-6.2,2.4-6.2-3.4c0.2-31.5,0.1-63,0.1-94.5c0-0.6,0.1-1.2,0.2-2.7C1817.3,790.1,1841.9,815.9,1867.2,842.5z"/>
	<path fill="#151513" d="M1051.7,866c-27.6,0-49.7-22.5-49.6-50.6c0-26.8,23.4-49.6,50.8-49.4c27.3,0.1,50,22.9,50,50.1
		C1102.7,844,1080.2,866,1051.7,866z M1013,815.7c0,22.3,17.6,40.2,39.4,40.2c21.3,0,39.3-18.1,39.5-39.8
		c0.2-21.5-17.9-39.8-39.4-39.9C1030.8,776.2,1013,793.9,1013,815.7z"/>
	<path fill="#151513" d="M318.4,816.5c-0.3,28.7-24.6,51.6-54.4,49.4c-23.4-1.7-46.7-20.6-46.2-51c0.5-27.3,24.4-49.8,51.8-48.9
		C296.6,766.8,319.1,790.1,318.4,816.5z M307.4,816.2c0.7-20.8-16.5-40-39.1-40.2c-21.6-0.1-39.6,18.4-39.6,39.4
		c0,22.6,17.9,39.6,37.3,40.6C288.9,857.2,308.2,837.5,307.4,816.2z"/>
	<path fill="#151513" d="M2274.2,815.7c0-14.7,0-29.3,0-44c0-1.6-1-4.1,2.1-4.1c12.7,0.3,25.6-1.3,38.1,2.8
		c20.4,6.7,33.2,25.9,31.8,47.5c-1.8,28.1-20.6,45.8-49.4,46.3c-6.2,0.1-12.3-0.1-18.5,0.1c-3.2,0.1-4.3-0.8-4.2-4.2
		C2274.3,845.4,2274.2,830.5,2274.2,815.7z M2284.9,815.4c0,5.8,0,11.7,0,17.5c0,5.8,0.2,11.7-0.1,17.5c-0.1,3.1,0.7,4.2,3.8,3.9
		c4-0.3,8-0.1,12-0.4c15.8-0.9,29-11.6,33.2-26.9c4.5-16.1-1.5-33.6-14.2-42.5c-9.4-6.6-20.1-6.9-30.9-7c-3.1,0-3.9,0.8-3.9,3.9
		C2285.1,792.8,2284.9,804.1,2284.9,815.4z"/>
	<path fill="#151513" d="M628.1,803.9c0,10.2,0,20.3,0,30.5c-0.1,18.3-14,29.4-29.4,31.4c-15.7,2.1-29.9-5.6-36.2-18.4
		c-2.6-5.4-3.1-11.2-3.1-17c-0.1-19.5,0.2-39-0.2-58.4c-0.1-5.5,3.1-4.2,6-4.4c3.3-0.2,5.4-0.1,5.3,4.5c-0.3,19.6-0.2,39.3-0.1,58.9
		c0.1,16,9.8,25.8,24.9,24.8c9.9-0.6,21.7-6.8,21.7-21.3c0-20.6,0.4-41.3,0.1-61.9c-0.1-5.1,2.2-5,5.9-5.1c3.8-0.1,5.6,0.3,5.4,4.9
		c-0.4,10.5-0.1,21-0.1,31.5C628.3,803.9,628.2,803.9,628.1,803.9z"/>
	<path fill="#151513" d="M2452.6,816.1c0-14.8,0.1-29.6-0.1-44.5c0-2.8,0.3-4.1,3.7-4.1c14.2,0.2,28.3,0.3,42.5,0
		c4.8-0.1,3.8,2.7,4,5.4c0.2,3,0.1,4.9-4,4.8c-10.5-0.3-21,0-31.5-0.2c-3,0-4.1,0.7-4,3.9c0.2,7,0.2,14,0,21
		c-0.1,3.3,0.9,4.3,4.2,4.2c10-0.2,20,0.2,30-0.2c4.3-0.2,4.4,1.9,4.3,5.1c-0.1,3,0.2,5.3-4.2,5.2c-10-0.4-20,0-30-0.2
		c-3,0-4.4,0.5-4.3,4c0.2,10,0.2,20,0,30c0,2.8,0.8,3.7,3.7,3.7c10.5-0.1,21,0.2,31.5-0.2c4.3-0.1,4.5,1.8,4.4,5
		c-0.1,2.9,0.4,5.3-4.2,5.2c-14-0.3-28-0.2-42,0c-3.5,0.1-4-1.2-4-4.3C2452.7,845.4,2452.6,830.8,2452.6,816.1z"/>
	<path fill="#151513" d="M1429.8,866c-14.6,0-24.8-7.8-29.1-21.7c-0.8-2.6-0.2-3.5,2.1-4c1.1-0.3,2.3-0.5,3.4-0.9
		c3-1.2,4.4-0.7,5.5,2.8c2.9,9.4,11.3,14.8,20.5,13.8c9.2-1,16.1-7.7,17.3-17.2c0.9-7.2-2.5-12.6-8.7-15.9
		c-7.9-4.2-16.1-7.7-23.9-12.1c-9.4-5.4-13.6-14.3-11.8-23.8c2-10.2,9.5-17.8,19.6-20c12.5-2.7,22.5,0.8,30.2,11
		c1,1.4,3.3,3.6,0,4.5c-2.7,0.7-4.4,6.6-8.4,1.6c-6.1-7.7-14-9.8-21.9-6.2c-10.3,4.7-11.7,16.9-2.7,23.6c4.7,3.5,10.2,5.2,15.4,7.6
		c2,0.9,3.9,1.8,5.8,2.8c14.4,7.4,20,18.1,16.5,31.9C1456.3,857.1,1444.5,866,1429.8,866z"/>
	<path fill="#151513" d="M95,866c-15.1,0-25.6-8.2-29.5-22.4c-0.6-2.2,0.1-2.5,1.7-2.9c1.1-0.3,2.3-0.6,3.3-1
		c3.4-1.6,5.1-0.8,6.3,3.1c2.9,9.6,12.9,15.1,22.3,12.9c10.4-2.5,16.3-10.8,15.1-21.3c-0.6-4.9-3.3-8.2-7.2-10.7
		c-4.9-3.2-10.2-5.4-15.4-7.8c-3.6-1.6-7.2-3.5-10.6-5.5c-9-5.4-12.2-13.7-10.8-23.8c1.2-8.8,9.4-17.2,18.6-19.4
		c12.9-3.1,24.3,1,31.2,10.9c1.7,2.4,1.7,3.5-1,5.3c-3.8,2.6-6.1,3.4-9.4-1.2c-4.5-6.3-11.5-7.1-18.4-4.9
		c-5.8,1.8-9.5,5.9-10.3,12.2c-0.6,4.8,1.3,8.3,4.9,11.2c4.9,3.9,10.7,5.7,16.2,8.3c3.1,1.5,6.3,3,9.3,4.8
		c11.5,6.8,15.5,15.1,13.7,27.8c-1.6,10.9-10.7,20.7-21.7,23.4C100.5,865.7,97.5,866.2,95,866z"/>
	<path fill="#151513" d="M2014.7,866c-14.8,0-25.2-7.9-29.4-21.5c-0.8-2.6-0.3-3.7,2.1-4.2c1-0.2,2-0.3,2.9-0.7
		c3.2-1.4,4.7-1.1,5.8,2.9c2.2,8.4,10,13.6,18.7,13.5c8.7-0.1,16-5.5,18.5-13.9c2.2-7.3-0.1-13.9-6.5-18.3
		c-7.4-5.1-16.1-7.6-23.9-11.9c-13.6-7.6-17.6-21.8-9.6-34.2c10.2-16,37.5-15.2,46.9,1.3c0.9,1.7,0.8,2.5-0.7,3.7
		c-4.9,3.9-6,3.9-9.9-0.6c-5-5.6-11.2-6.9-18.1-5c-5.9,1.6-9.7,5.4-10.8,11.6c-0.9,4.9,0.7,8.7,4.5,11.8c6.2,4.9,13.8,7,20.7,10.5
		c5.4,2.7,10.6,5.5,14.4,10.4c10.6,13.9,3.1,36.7-13.9,42.6C2022.4,865.3,2018.4,866.5,2014.7,866z"/>
	<path fill="#151513" d="M762.1,821.5c0,12.6-0.2,25.3,0.1,37.9c0.1,4.5-1.5,5.1-5.3,5c-3.5-0.1-5.7,0-5.6-4.8
		c0.3-25.6,0-51.2,0.2-76.9c0-4.2-1.1-5.4-5.2-5.1c-4.8,0.4-9.7-0.2-14.5,0.2c-5,0.4-3.5-2.9-3.8-5.5c-0.3-2.9-0.2-4.8,3.9-4.8
		c16.6,0.3,33.3,0.3,49.9,0c4.8-0.1,3.7,2.7,3.9,5.4c0.2,3,0,5.1-4.1,4.8c-5.3-0.4-10.7,0.1-16-0.2c-3.2-0.2-3.8,1-3.8,4
		C762.1,794.9,762.1,808.2,762.1,821.5z"/>
	<path fill="#151513" d="M423.7,815.7c0-14.6,0.2-29.3-0.1-43.9c-0.1-4.5,2.2-4.3,5.1-4.1c2.8,0.2,6.2-1.4,6.2,4.2
		c-0.3,26,0,51.9-0.2,77.9c0,3.8,1,4.8,4.7,4.6c6-0.3,12,0.2,18-0.2c4.5-0.3,3.8,2.4,3.7,5c-0.1,2.3,1.4,5.4-3.4,5.2
		c-10.1-0.3-20.3-0.2-30.5,0c-3,0.1-3.5-1-3.5-3.7C423.8,845.6,423.7,830.7,423.7,815.7z"/>
	<path fill="#151513" d="M1669.3,815.9c0-14.6,0.3-29.3-0.1-43.9c-0.2-5.9,3.6-4,6.5-4.4c3.5-0.5,4.8,0.5,4.8,4.5
		c-0.2,29.3-0.2,58.6,0,87.8c0,4.8-2.2,4.5-5.4,4.4c-3-0.1-6.1,0.9-5.9-4.5C1669.5,845.2,1669.3,830.6,1669.3,815.9z"/>
	<path fill="#151513" d="M887,815.7c0-14.6,0.1-29.3-0.1-43.9c-0.1-3.8,1.3-4.7,4.5-4.1c2.6,0.5,6.4-1.9,6.4,3.9
		c-0.2,29.6-0.2,59.2,0,88.8c0,5.4-3.4,3.7-6,3.8c-2.5,0.2-5.1,0.8-5-3.7C887.2,845.6,887,830.6,887,815.7z"/>
	<path fill="#151513" d="M2151.6,816c0-14.6,0.2-29.3-0.1-43.9c-0.1-4.6,2-4.7,5.3-4.5c2.8,0.2,5.6-0.9,5.6,4.2
		c-0.3,29.4-0.3,58.9,0,88.3c0,5.1-2.7,4-5.6,4.2c-3.3,0.2-5.5,0.2-5.3-4.4C2151.8,845.2,2151.6,830.6,2151.6,816z"/>
	<path fill="#151513" d="M2533.2,410.6c-0.2,17-14.2,30.8-30.8,30.4c-16.8-0.4-30.5-14.6-30.2-31.3c0.4-17.4,14.1-29.9,32.5-29.7
		C2520.1,380.2,2533.4,394.4,2533.2,410.6z M2503.3,385c-12.7-1.1-25.9,10.1-26.1,25.1c-0.2,14,11.6,25.8,25.5,25.9
		c13.6,0.1,25.4-11.7,25.4-25.4C2528.3,396.5,2517.1,385.1,2503.3,385z"/>
	<path fill="#FEFEFE" d="M2244,535.7c4.5-13.1,38.9-93.3,41.5-96.7c14.5,32.2,29,64.2,43.7,96.7
		C2300.5,535.7,2272.5,535.7,2244,535.7z"/>
	<path fill="#FEFEFE" d="M1013,815.7c0-21.8,17.8-39.5,39.6-39.4c21.5,0.1,39.6,18.4,39.4,39.9c-0.2,21.7-18.2,39.8-39.5,39.8
		C1030.6,855.9,1013,838,1013,815.7z"/>
	<path fill="#FEFEFE" d="M307.4,816.2c0.8,21.3-18.5,40.9-41.5,39.8c-19.3-1-37.3-18-37.3-40.6c0-20.9,18-39.5,39.6-39.4
		C290.8,776.2,308.1,795.4,307.4,816.2z"/>
	<path fill="#FEFEFE" d="M2284.9,815.4c0-11.3,0.1-22.6-0.1-34c-0.1-3.1,0.8-3.9,3.9-3.9c10.8,0.1,21.5,0.4,30.9,7
		c12.7,8.9,18.7,26.4,14.2,42.5c-4.2,15.3-17.4,26-33.2,26.9c-4,0.2-8,0-12,0.4c-3.1,0.3-4-0.8-3.8-3.9c0.3-5.8,0.1-11.7,0.1-17.5
		C2284.9,827.1,2284.9,821.3,2284.9,815.4z"/>
	<path fill="#FEFEFE" d="M2503.3,385c13.8,0,25,11.5,24.9,25.6c-0.1,13.7-11.8,25.5-25.4,25.4c-13.9-0.1-25.6-11.9-25.5-25.9
		C2477.4,395.2,2490.7,383.9,2503.3,385z M2514.5,428.1c0-0.5,0.1-0.7,0.1-0.8c-2.5-3.7-4.9-7.5-7.5-11.1c-1.5-2.1-2.9-3.7,1.1-4.8
		c2.1-0.5,3.3-2.6,4.1-4.8c1.4-4.2,0.5-7.9-2.4-11c-2.1-2.2-11.2-3.7-13.8-2.6c-1.3,0.5-1,1.6-1,2.5c0,10,0,20-0.1,30
		c0,2.1,0.5,2.9,2.8,2.9c2.2,0,2.4-1.1,2.3-2.8c-0.1-3.1,0-6.1,0-9.5C2505.7,419.5,2505.1,429.9,2514.5,428.1z"/>
	<path fill="#151513" d="M2514.5,428.1c-9.4,1.8-8.8-8.7-14.6-12c0,3.3,0,6.4,0,9.5c0,1.7-0.1,2.8-2.3,2.8c-2.3,0-2.8-0.8-2.8-2.9
		c0.1-10,0-20,0.1-30c0-0.9-0.3-1.9,1-2.5c2.6-1.1,11.7,0.4,13.8,2.6c3,3.1,3.8,6.8,2.4,11c-0.7,2.2-1.9,4.2-4.1,4.8
		c-4,1-2.6,2.6-1.1,4.8c2.6,3.6,5,7.4,7.5,11.1C2514.6,427.4,2514.5,427.6,2514.5,428.1z M2499.9,403.1c1.1,1.6-1.6,4.8,2.4,4.8
		c3.1,0,5.1-1.7,5.2-4.8c0.1-3.1-1.7-4.9-4.9-5C2498.2,397.9,2501.1,401.5,2499.9,403.1z"/>
	<path fill="#FEFEFE" d="M2499.9,403.1c1.1-1.6-1.8-5.2,2.7-5c3.2,0.1,5,1.9,4.9,5c-0.1,3.1-2.1,4.9-5.2,4.8
		C2498.4,407.9,2501,404.7,2499.9,403.1z"/>
</g>
</svg>
