<?xml version="1.0" encoding="utf-8"?>
<!-- Generator: Adobe Illustrator 24.1.2, SVG Export Plug-In . SVG Version: 6.00 Build 0)  -->
<svg version="1.1" baseProfile="tiny" id="Слой_1"
	 xmlns="http://www.w3.org/2000/svg" xmlns:xlink="http://www.w3.org/1999/xlink" x="0px" y="0px" viewBox="0 0 192.8 192.8"
	 overflow="visible" xml:space="preserve">
<g>
	<polygon fill-rule="evenodd" fill="#FFFFFF" points="0,0 192.8,0 192.8,192.8 0,192.8 0,0 	"/>
	<path fill-rule="evenodd" fill="#0068AA" d="M144.6,93.6V39.3h14.7v20.1c1.2,0,2.2-2.2,3.1-6.6l3.6-13.5h14.7l-3.7,13.5
		c-1.8,6.7-3.3,11.4-5.3,11.9c5.1,2.4,10.6,9.4,10.8,15l0.5,13.9h-14.4l0-10.8c0-4.3-4.8-7.9-9.4-8.6v19.3H144.6L144.6,93.6z"/>
	<polygon fill-rule="evenodd" fill="#0068AA" points="125.1,63.2 125.1,39.1 139.2,39.1 139.2,93.6 125.1,93.6 113.6,68.9 
		113.6,93.6 99.5,93.6 99.5,39.1 113.6,39.1 113.6,39.1 113.9,39.1 125.1,63.2 	"/>
	<path fill-rule="evenodd" fill="#0068AA" d="M11.3,39.3h14.8v36.3c0,1.3,0.3,2.3,0.9,3c0.6,0.7,2.2,1.1,3,1.1c0.8,0,3.4-0.4,4-1.1
		c0.6-0.7,0.9-1.7,0.9-3V39.3h14.8V75c0,1.5,0.3,2.6,1,3.4c0.7,0.8,3.3,1.2,4.2,1.2c0.9,0,2.5-0.3,3.2-1c0.6-0.7,0.9-1.7,0.9-3V39.3
		h14.8v38.1c0,2.7-0.5,5.2-1.6,7.4c-1.1,2.2-2.6,4.1-4.4,5.7c-1.9,1.6-3.9,2.8-6.2,3.6c-2.3,0.8-4.6,1.2-6.8,1.2
		c-5.3,0-9.2-1.9-11.8-5.6c-1.5,1.7-3.3,3-5.5,3.9c-2.2,0.9-4.5,1.3-6.9,1.3c-3.2,0-6.2-0.7-9.2-2.1c-2.9-1.4-5.3-3.5-7.2-6.3
		c-1.8-2.8-2.7-6-2.7-9.7V39.3L11.3,39.3z"/>
	<path fill-rule="evenodd" fill="#0068AA" d="M136.5,154.1c5-4,8.4-8.8,8.9-13.9h13.2c1.3,0,9.2,0.1,10.4,0c4.7-0.5,3.2-7.1,0-7.3
		l-7.9-0.3c-3.6-0.1-16.4-2.1-16.1-16.5c0.3-14.4,12.3-18.2,19.4-18.2h17.8v15.2h-18.5c-7.7,0-4.1,6.8-1.9,6.9l9.9,0.4
		c7.5,0.3,14.6,5.9,14.1,18.2c-0.5,12.3-9.6,15.4-22.1,15.4H136.5L136.5,154.1z"/>
	<path fill-rule="evenodd" fill="#0068AA" d="M101.4,98h14.6v36.3c0,7.9,10.8,8.2,10.8,0V98h14.6v36.3c0,2.9-0.4,5.6-1.2,8
		c-0.8,2.4-2.1,4.5-3.7,6.2c-1.7,1.7-3.8,3.1-6.3,4c-2.5,0.9-5.4,1.4-8.8,1.4c-3.1,0-5.9-0.5-8.4-1.6c-2.5-1.1-4.7-2.6-6.4-4.5
		c-1.7-1.9-3-4-3.9-6.3c-0.9-2.3-1.3-4.8-1.3-7.3V98L101.4,98z"/>
	<polygon fill-rule="evenodd" fill="#0068AA" points="11,152.5 11,98 25.1,98 25.1,118.2 37.9,118.2 37.9,98 52,98 52,152.5 
		37.9,152.5 37.9,131.9 25.1,131.9 25.1,152.5 11,152.5 	"/>
	<path fill-rule="evenodd" fill="#0068AA" d="M97.4,154H82.8v-13.9H71.9V154H57.3v-36.3c0-2.9,0.4-5.6,1.2-8
		c0.8-2.4,2.1-4.5,3.7-6.2c1.7-1.7,3.8-3.1,6.3-4c2.5-0.9,5.4-1.4,8.8-1.4c3.1,0,5.9,0.5,8.4,1.6c2.5,1.1,4.7,2.6,6.4,4.5
		c1.7,1.9,3,4,3.9,6.3c0.9,2.3,1.3,4.8,1.3,7.3V154L97.4,154z M82.8,127v-9.3c0-7.9-10.8-8.2-10.8,0v9.3H82.8L82.8,127z"/>
	<polygon fill-rule="evenodd" fill="#0068AA" points="79.5,39.1 93.7,39.1 93.7,93.6 79.5,93.6 79.5,39.1 	"/>
	<path fill="#0068AA" d="M2.8,31.6h187.1v129.6H2.8V31.6L2.8,31.6z M4.8,33.5v125.8H188V33.5H4.8L4.8,33.5z"/>
</g>
</svg>
