<?xml version="1.0" encoding="utf-8"?>
<!-- Generator: Adobe Illustrator 20.1.0, SVG Export Plug-In . SVG Version: 6.00 Build 0)  -->
<svg version="1.1" id="Ebene_1" xmlns="http://www.w3.org/2000/svg" xmlns:xlink="http://www.w3.org/1999/xlink" x="0px" y="0px"
	 viewBox="0 0 774.4 415.7" style="enable-background:new 0 0 774.4 415.7;" xml:space="preserve">
<style type="text/css">
	.st0{fill-rule:evenodd;clip-rule:evenodd;fill:#4A4A49;}
	.st1{fill-rule:evenodd;clip-rule:evenodd;fill:#D20A11;}
</style>
<g>
	<g>
		<path class="st0" d="M302.2,383.2h-7.1l-8,8.4c-0.4,0.5-0.6,0.6-2.1,2.6v-3.3v-7.7h-5.6v25.9h5.6v-8.4l3.3-3.3l7.8,11.7h7.1
			l-11.1-15.6L302.2,383.2z"/>
		<path class="st0" d="M321.9,390.3h-5v9.3c0,1.8-0.2,2.8-0.6,3.6c-0.7,1.4-1.9,2.1-3.5,2.1c-1.5,0-2.6-0.6-3-1.7
			c-0.3-0.7-0.3-1.1-0.3-2.9v-10.3h-5.1v11.9c0,4.9,2,7.3,6.5,7.3c2.7,0,4.6-1.1,6.2-3.2v2.7h4.8V390.3z"/>
		<path class="st0" d="M331.6,390.3h-4.9v18.7h5.1v-9.8c0-1.6,0.2-2.5,0.5-3.3c0.7-1.3,2-2,3.6-2c2.4,0,3.3,1.2,3.3,4.3v10.8h5
			v-11.8c0-2.5-0.2-3.8-1-4.9c-1-1.5-3-2.5-5.4-2.5c-2.7,0-4.5,0.9-6.2,3.1V390.3z"/>
		<path class="st0" d="M363.8,395.8c-0.3-4-3-5.9-8.1-5.9c-5.3,0-8.2,2-8.2,5.6c0,1.8,0.9,3.4,2.2,4.2c1.2,0.7,1.9,0.9,5.4,1.6
			c3.6,0.8,4.2,1.3,4.2,2.4c0,1.5-1.3,2.4-3.5,2.4c-2.5,0-3.7-1-3.9-3.2h-4.9c0.2,4.4,3.2,6.7,8.8,6.7c5.3,0,8.6-2.4,8.6-6.3
			c0-3.2-1.8-4.7-7.2-5.8c-4.1-0.9-4.6-1.2-4.6-2.4c0-1.2,1.1-1.8,2.9-1.8c2.2,0,3.2,0.7,3.5,2.5H363.8z"/>
		<path class="st0" d="M377.8,390.3h-3.8v-5.7h-5.1v5.7h-3.2v3.4h3.2v8.7c0,3.2,0.1,4.1,0.8,5c0.8,1.4,2.2,1.8,5.1,1.8
			c1,0,1.7,0,3-0.2v-3.9c-0.7,0.1-1.1,0.1-1.5,0.1c-1.9,0-2.2-0.4-2.2-2.7v-8.9h3.8V390.3z"/>
		<path class="st0" d="M396,395.8c-0.3-4-3.1-5.9-8.2-5.9c-5.2,0-8.1,2-8.1,5.6c0,1.8,0.9,3.4,2.2,4.2c1.2,0.7,1.9,0.9,5.4,1.6
			c3.6,0.8,4.3,1.3,4.3,2.4c0,1.5-1.4,2.4-3.5,2.4c-2.5,0-3.7-1-4-3.2h-4.7c0.2,4.4,3.1,6.7,8.7,6.7c5.3,0,8.6-2.4,8.6-6.3
			c0-3.2-1.8-4.7-7.2-5.8c-4.2-0.9-4.6-1.2-4.6-2.4c0-1.2,1.1-1.8,2.9-1.8c2.2,0,3.2,0.7,3.5,2.5H396z"/>
		<path class="st0" d="M410,390.3h-3.8v-5.7h-5.1v5.7h-3.2v3.4h3.2v8.7c0,3.2,0.1,4.1,0.7,5c0.9,1.4,2.3,1.8,5.2,1.8
			c0.9,0,1.7,0,3-0.2v-3.9c-0.7,0.1-1.1,0.1-1.5,0.1c-1.9,0-2.2-0.4-2.2-2.7v-8.9h3.8V390.3z"/>
		<path class="st0" d="M421.4,389.9c-5.8,0-9.7,4-9.7,9.9c0,5.9,3.9,9.9,9.7,9.9c5.9,0,9.7-4,9.7-9.9
			C431,393.6,427.3,389.9,421.4,389.9 M421.4,393.6c2.9,0,4.5,2.2,4.5,6.1c0,3.8-1.7,6-4.5,6c-2.8,0-4.5-2.2-4.5-6
			C416.8,396,418.6,393.6,421.4,393.6"/>
		<path class="st0" d="M444.5,383.2c-1.5-0.1-2-0.1-2.6-0.1c-4.6,0-6.5,1.7-6.5,6.3v1h-3.1v3.4h3.1v15.4h5.1v-15.4h3.7v-3.4h-3.8
			v-1.5c0-1.5,0.5-1.9,2.3-1.9c0.6,0,1.1,0,1.7,0.1V383.2z"/>
		<path class="st0" d="M457.8,383.2c-1.4-0.1-1.9-0.1-2.6-0.1c-4.6,0-6.4,1.7-6.4,6.3v1h-3.1v3.4h3.1v15.4h5v-15.4h3.7v-3.4h-3.7
			v-1.5c0-1.5,0.4-1.9,2.3-1.9c0.5,0,1,0,1.6,0.1V383.2z"/>
		<rect x="458.3" y="397.1" class="st0" width="9.9" height="4.6"/>
		<polygon class="st0" points="490.3,383.2 472.2,383.2 472.2,409.1 477.9,409.1 477.9,398.5 488.8,398.5 488.8,393.9 477.9,393.9 
			477.9,387.9 490.3,387.9 		"/>
		<path class="st0" d="M505.4,403.2c-0.8,1.9-1.9,2.7-3.9,2.7c-2.7,0-4.3-1.7-4.3-4.9h13.4v-0.7c0-6.4-3.7-10.4-9.3-10.4
			c-5.4,0-9.4,4.2-9.4,9.9c0,5.9,3.8,9.9,9.6,9.9c4.3,0,7.7-2.4,8.8-6.4H505.4z M497.2,397.7c0.3-2.5,1.8-4.2,4.2-4.2
			c2.3,0,3.7,1.4,4.1,4.2H497.2z"/>
		<path class="st0" d="M519,390.3h-4.9v18.7h5.1v-9.8c0-1.6,0.2-2.5,0.5-3.3c0.7-1.3,2-2,3.6-2c2.4,0,3.2,1.2,3.2,4.3v10.8h5.1
			v-11.8c0-2.5-0.3-3.8-1-4.9c-1.1-1.5-3-2.5-5.4-2.5c-2.7,0-4.6,0.9-6.2,3.1V390.3z"/>
		<path class="st0" d="M551.3,395.8c-0.4-4-3.1-5.9-8.1-5.9c-5.3,0-8.3,2-8.3,5.6c0,1.8,1,3.4,2.3,4.2c1.2,0.7,1.9,0.9,5.4,1.6
			c3.6,0.8,4.3,1.3,4.3,2.4c0,1.5-1.3,2.4-3.5,2.4c-2.5,0-3.7-1-3.9-3.2h-4.9c0.2,4.4,3.2,6.7,8.8,6.7c5.3,0,8.6-2.4,8.6-6.3
			c0-3.2-1.8-4.7-7.2-5.8c-4.1-0.9-4.6-1.2-4.6-2.4c0-1.2,1.1-1.8,2.9-1.8c2.2,0,3.2,0.7,3.5,2.5H551.3z"/>
		<path class="st0" d="M565.3,390.3h-3.8v-5.7h-5.1v5.7h-3.2v3.4h3.2v8.7c0,3.2,0.1,4.1,0.7,5c0.9,1.4,2.3,1.8,5.2,1.8
			c0.9,0,1.7,0,3-0.2v-3.9c-0.7,0.1-1.1,0.1-1.5,0.1c-1.9,0-2.2-0.4-2.2-2.7v-8.9h3.8V390.3z"/>
		<path class="st0" d="M580.5,403.2c-0.8,1.9-1.9,2.7-3.9,2.7c-2.7,0-4.3-1.7-4.3-4.9h13.4v-0.7c0-6.4-3.7-10.4-9.2-10.4
			c-5.5,0-9.5,4.2-9.5,9.9c0,5.9,3.8,9.9,9.6,9.9c4.3,0,7.7-2.4,8.8-6.4H580.5z M572.3,397.7c0.3-2.5,1.9-4.2,4.2-4.2
			c2.3,0,3.8,1.4,4.1,4.2H572.3z"/>
		<path class="st0" d="M601.2,390.1c-0.5-0.1-0.9-0.1-1.2-0.1c-2.7,0-4.6,1.3-6,3.8v-3.4h-4.9v18.7h5.1v-7.8c0-2.1,0.2-3.3,0.7-4.2
			c0.9-1.5,2.4-2.5,4.3-2.5c0.6,0,1.1,0.1,1.9,0.3V390.1z"/>
		<path class="st0" d="M619.4,395.8c-0.3-4-3-5.9-8.1-5.9c-5.2,0-8.2,2-8.2,5.6c0,1.8,0.9,3.4,2.3,4.2c1.1,0.7,1.8,0.9,5.4,1.6
			c3.5,0.8,4.2,1.3,4.2,2.4c0,1.5-1.3,2.4-3.4,2.4c-2.5,0-3.8-1-4-3.2h-4.9c0.3,4.4,3.3,6.7,8.8,6.7c5.3,0,8.7-2.4,8.7-6.3
			c0-3.2-1.9-4.7-7.3-5.8c-4.1-0.9-4.6-1.2-4.6-2.4c0-1.2,1.1-1.8,2.9-1.8c2.2,0,3.3,0.7,3.5,2.5H619.4z"/>
		<path class="st0" d="M640.5,390.3h-5.3l-2.9,8.9c-0.4,1.2-0.7,2.2-1.3,4.6c-0.6-2.2-0.9-3.3-1.3-4.3l-3.1-9.2h-5.5l6.7,17.6
			c0.1,0.3,0.2,0.7,0.2,1.2c0,1.6-0.9,2.3-3,2.3h-1.4h-0.6v4.3h2.1h0.3h1.1c2,0,3.3-0.4,4.5-1.5c0.9-1,1.4-2,2.6-5.1L640.5,390.3z"
			/>
		<path class="st0" d="M657.9,395.8c-0.4-4-3.1-5.9-8.2-5.9c-5.2,0-8.2,2-8.2,5.6c0,1.8,0.9,3.4,2.3,4.2c1.2,0.7,1.9,0.9,5.4,1.6
			c3.6,0.8,4.3,1.3,4.3,2.4c0,1.5-1.4,2.4-3.5,2.4c-2.5,0-3.7-1-4-3.2h-4.9c0.3,4.4,3.3,6.7,8.8,6.7c5.4,0,8.7-2.4,8.7-6.3
			c0-3.2-1.8-4.7-7.2-5.8c-4.2-0.9-4.6-1.2-4.6-2.4c0-1.2,1.1-1.8,2.9-1.8c2.2,0,3.2,0.7,3.5,2.5H657.9z"/>
		<path class="st0" d="M671.9,390.3h-3.8v-5.7H663v5.7h-3.2v3.4h3.2v8.7c0,3.2,0.1,4.1,0.7,5c0.9,1.4,2.3,1.8,5.2,1.8
			c0.9,0,1.7,0,3-0.2v-3.9c-0.7,0.1-1.1,0.1-1.5,0.1c-1.9,0-2.2-0.4-2.2-2.7v-8.9h3.8V390.3z"/>
		<path class="st0" d="M687.1,403.2c-0.8,1.9-1.9,2.7-3.9,2.7c-2.7,0-4.2-1.7-4.3-4.9h13.4v-0.7c0-6.4-3.7-10.4-9.3-10.4
			c-5.4,0-9.4,4.2-9.4,9.9c0,5.9,3.8,9.9,9.6,9.9c4.3,0,7.7-2.4,8.8-6.4H687.1z M678.9,397.7c0.3-2.5,1.8-4.2,4.2-4.2
			c2.3,0,3.7,1.4,4.1,4.2H678.9z"/>
		<path class="st0" d="M700.7,390.3h-4.9v18.7h5.1v-10.1c0-3.4,1.3-4.9,3.8-4.9c2,0,2.8,1.1,2.8,3.6v11.5h5.1v-10.1
			c0-1.6,0.1-2.3,0.4-3c0.5-1.2,1.7-1.9,3.2-1.9c2.2,0,3.1,1.1,3.1,3.9v11.2h5.1v-12.7c0-4.2-2.3-6.6-6.4-6.6c-2.6,0-4.5,1-6.1,3.1
			c-1.1-2.1-2.8-3.1-5.2-3.1c-2.7,0-4.4,0.9-6,3V390.3z"/>
		<path class="st0" d="M741.4,403.2c-0.8,1.9-1.9,2.7-3.9,2.7c-2.7,0-4.3-1.7-4.3-4.9h13.4v-0.7c0-6.4-3.7-10.4-9.2-10.4
			c-5.5,0-9.5,4.2-9.5,9.9c0,5.9,3.8,9.9,9.6,9.9c4.3,0,7.7-2.4,8.8-6.4H741.4z M733.2,397.7c0.3-2.5,1.8-4.2,4.2-4.2
			c2.3,0,3.8,1.4,4.1,4.2H733.2z"/>
	</g>
	<g>
		<path class="st0" d="M212.4,196.7c0,0.1,0.2,0.1,0.3,0H212.4z"/>
		<path class="st0" d="M328.4,68.2c-0.3,0.2-0.6,0.2-0.8,0l0.3,0.5L328.4,68.2z"/>
		<path class="st0" d="M355,76.3L355,76.3L355,76.3z"/>
		<path class="st0" d="M439.4,103c0.6,0.8,1.5,0.3,2.4,0.5l-0.5-0.7C440.8,103.4,439.9,102.7,439.4,103"/>
		<path class="st0" d="M448.3,21c0.2-0.3,0.5-0.6,1-0.7c-0.4,0.8,0.5,1.4,1.2,1.4c0-0.8,1.4,0.2,1.3-0.8c-1.7,0.3-1.8-2.3-3.6-0.9
			l-0.4,0.4C447.9,20.6,448,21,448.3,21"/>
		<path class="st0" d="M590.8,175.8c-1.4-0.4-2.4-0.6-3.9-0.9c-0.5,0.1-0.8-1.1-1.3-0.2c-0.7-0.5-1.5-0.9-2.2-1.1v-0.2
			c-0.4-1.4-1.4-0.5-2.1-0.8v0.5c-0.4,0.1-0.7,0.4-1-0.1c0.2-0.2,0.4-0.2,0.5-0.4c-0.6-0.8-1.5-0.1-2.4-0.6c-0.5,0.1,0,0.6-0.1,0.9
			H578c-0.2,0-0.3-0.2-0.3-0.4l-0.7,0.3c-0.5,0-0.4-0.5-0.4-0.8c-1.1-0.8-2.8,0.2-3.7-0.9c-0.4,0.9-1.4-0.1-1.9,0.2
			c0.3,1.4-1.3-0.2-1.9,0.4c-0.3-0.9-1.1-0.8-1.6-1.2c0.2,0.7-0.6,0.7-1.2,0.7c-0.7,0.3-1.2-0.4-1.5-1c0,0.4-0.7,0.9-1.1,0.4
			l0.6-0.9c-0.8,0-2,0.1-3-0.2c-0.5,0.1-1.3,0.6-1.7,0.2c-1.1,0.8-1.2-1.3-2.2-0.6c-1.2-0.5-2.2,0.1-3.3-0.1l-0.1-0.7l-0.7,0.6
			c-0.3-0.7-0.9-0.6-1.3-0.4c-0.8-0.6-1.2,0.6-2,0.5c-1.2,0.3,0-0.9-0.1-1.1h-0.4c-0.5,1-1.5-0.1-1.9,0.2l-0.3-0.5
			c-0.1,1.1-1.1,0-1.4,0.2c-0.7-0.7-1.2,0.3-1.7-0.5c-0.8,0.3-2-0.1-2.8,0c-0.6,0.5-1.6,0.1-2-0.3c-0.8-0.2-1.6-0.2-2.2-0.6
			c-0.9,1.2-1.6,0.5-2.3-0.3c-0.5,0.3-1.4-0.4-1.9,0.1c-1.1,0.4-2.1-1-3.2-0.7l-0.1,1.1c-1.1-1.5-2.4-0.4-3.9-1
			c-0.8,1.2-1.4-0.5-2.2,0.4c0-0.1-0.3-0.2-0.2-0.4c-0.5,0.2-1.4-0.5-1.7,0.3c-0.2-0.1-0.2-0.3-0.4-0.5c-0.6-0.4-1.4-0.7-1.7,0.2
			c-0.2-1.2-1.5,0.3-2.2-0.3v-0.4c-0.9,0.1-1.9-0.1-2.6,0.6c-0.4-0.7-1.4-0.8-2-0.7l-0.2-0.2c-0.8,1.1-1.4-0.8-2.2,0.2
			c-0.8-0.4-1.8-0.7-2.6-0.2c-0.7,0-1.4-0.5-2.1-0.2c-0.6-0.8-1.4,0.7-1.6-0.3c-1.2,1.4-3.2-1.4-4.3,0.2c-0.1-0.1-0.4-0.2-0.4-0.5
			c-0.4,0.1-1.3,0.1-1.4-0.3c-0.6,0.1-1.4,0-1.9,0.6c-0.4-0.2,0.1-0.5-0.2-0.8c-0.4-0.1-0.7,0.3-1.2,0.3c-1-0.5-2.4,0.4-3-0.5
			c-0.6,0.1-1.4-0.3-2,0.1c-0.9-0.1-1.4,0.1-2-0.3c0.2,0.1-0.3,0.7-0.7,0.7c-0.7-1.4-1.8,0.3-2.6-0.9l-0.3,0.9
			c-1,0.1-0.5-1.1-1.4-1.1c-0.6,0.5-1.7,0-2.2,1l-0.4-1l-0.5,0.7c-0.3,0.1-0.5-0.1-0.6-0.3c-0.8-0.5-1.7-0.3-2.2,0.2
			c0.6-0.5,0.1-1.3-0.4-1.5c-0.5,2-2.9,0.1-4.2,0.9c-1.2-0.9-1.5,0.8-2.9-0.1c-0.7,0.5-2.4-0.9-2.4,0.4c0.1,0.5,0.7-0.3,0.6,0.4
			c-0.2,0.4-0.6,0.4-1,0.4c-0.8-2.9-4-0.9-5.8-1.5c-0.2,1-0.6-0.4-1.2,0c-1.2,0.7-2.6-0.3-3.9-0.1c-1.2,1.1-2.3-0.6-3.4,0.1
			c-0.1-0.1-0.3-0.3-0.2-0.5c-0.5,1-1.7-0.2-2.2,0.7l-0.4-0.7l-1.3,0.7v-0.2l-1.2-0.1v-0.4c-0.6,0-0.9,0.7-1.1,1.2
			c-0.6,0-1.3,0-1.6-0.5c-1,0.4-1.7-0.1-2.7-0.7c-0.5,1.5-1.9-0.5-2.5,1.2c-0.5,0-1.1,0-1.4-0.3c-0.4,0-1,0.4-0.7,0.9
			c0.4,0.4,0.9-0.4,1.2,0.3c-0.5,0.2-1.5,0.2-1.9,0c0.8-1.4-1.1-0.6-1.4-1.6c0.1-0.2,0.3-0.1,0.4-0.1l-1-0.5
			c-0.2,0.4-0.4,0.7-0.9,0.2c-0.3,0.7-1.2-0.1-1.5,0.7c-0.1-0.5-0.5-0.8-1.2-0.7c-0.2,0.5,0.5,0.7,0.6,1.1c-0.3,0.1-0.5,0.3-0.8,0.2
			c-0.5-0.1-0.7-0.7-0.6-0.9l-1.6,0.2c-0.4-0.5-0.3-1-0.2-1.4c7.4-0.6,15.7,0.1,23.5-0.6c4.3,0.7,9.3,0.1,13.6,0.4
			c10.8,0.7,21.2,0.1,31.9,1c12.8,0.6,25.4,1.6,38.4,2.2v-0.6c-5.6-0.4-11.2-1-16.9-1.1c-7.3-1.3-15.1-0.9-22.5-1.3
			c-1.5-0.4-3.2,0-4.5-0.5c-4.3,0.1-9.1-0.5-13.4-0.3l-1.4-0.4l1-0.5c-0.4-6.2-0.4-13.4,0-19.3c-0.3-1.4-0.6-3.4,0.2-4.5
			c3,1,6.2,0.4,9.1,1.3c1.5-0.8,2.5,0.5,4,0.2c0,0.4,0.6,0,0.8,0.4l0.2-0.4c0.5,0,1,0,1.1,0.4c0.9-0.6,2.6,0.5,2.5-0.9l-6-0.6
			c-0.9-0.9-1.8,0-2.8-0.4c-1.1-0.2-2.1-0.1-3.2-0.6c-1.3,0.9-2.4-0.8-3.3,0c-1-0.4-1.8-0.1-2.7-0.5c0.1-9-0.2-18.3,0.2-27.1
			c1.1,0.3,2.2,0,3.3,0.2c0.6,0.1,0.7-0.8,0.6-0.9c-0.6,0.3-1.4-0.4-2-0.2c-1.4,0.2-2.4-0.8-2.3-2.2c-0.6,0.7-1,1-1.4,1.9
			c-4.8-0.9-10.4-0.7-15.2-2c-0.4,0.4-0.7,0.9-0.5,1.2c0.7,0.4,1.6,0.2,2.4,0.2c4.1,0.8,8.6,0.9,12.7,1.5c0.5,0.8-0.6,0.9-0.4,1.5
			c1.1,0.6-0.5,1.6,0.7,1.9c-1.6,0.8,0.5,1.9-0.9,2.7c1.1,0.6,0.5,2,0.5,3.2H475l-0.2,1.4c0.4,0.8-0.4,2,0.2,2.8
			c-1,1.3,0.8,2.6-0.4,3.9l1.2,0.4c0.3,0.9-0.9,0.3-1.1,0.8c0.3,0.4,1.1,0.9,0.5,1.4c-1.4,1.1,0.3,2.3-0.6,3.7
			c0.7,0.8-0.3,2.1-0.2,3.2c-0.6,3.7,0.7,7.1-0.1,10.9c0.4,0.4,1.2-0.1,1.4,0.5l-0.3,0.2c-1.6-0.4-0.5,1.2-1.2,1.9
			c0.8,0.3,0.1,0.9,0.1,1.4c0.7,0.9-0.5,1.9-0.1,2.9c0.1,0.5,1,0.1,0.9,0.7l-0.8,0.1c0.1,0.6-0.6,1.1,0.2,1.5
			c-0.9,0.7,0.2,1.7-0.4,2.1c0.4,1.2-0.3,1.5-0.1,2.6c0.5,0.8,0.9,0.2,1.4,0.8c0.1,0.2,0,0.5-0.2,0.6c-10.7-0.4-22.7-0.4-33.8,0
			c-2-0.1-4.3-0.3-6.8-0.2c-1.4-0.3-2.8,0.4-4.2,0v-26.9l0.5-1.2c11.4,1.3,22.1,1.4,33.3,3.3c0.4,0.2,1.4-1.1,1.4,0.2l0.5-0.5
			c0.9,0.1,1.8-0.1,2.1,0.8c0.4,0.5,0.3,1.4-0.1,1.7c1.4,1-1.7,2.8,0.6,3.5c-0.6,0.3,0,1.2-0.6,1.4c0.2,1.4,0.1,3,0.1,4.4
			c-1.1,1.2,0.5,2.1-0.2,3.3c0.1,1.1-0.4,2,0,2.9c-1,0.8,1.1,1.5-0.1,2.2c-0.3,0.6,0,1.5,0.5,1.8c1.4-0.3,0.5,1.3,1.1,1.6
			c2.8-0.9,1.4-4.3,1.4-6.3c-0.3-1,0.6-2-0.3-3c1.2-0.9-0.2-2,0.5-2.9c-0.3-0.9,0.1-1.5,0.1-2.6c0.2-0.6-0.8-1.2-0.1-1.7
			c-0.8-1.4,0.7-2.9,0-4.4c-1-1.5,0.8-3-0.2-4.5c0.7-4.2,0.1-8.3,0.4-12.6c-0.2-0.3-0.5-0.4-0.6-0.7c1.1-2.3-0.2-5,0.8-7.2
			c-0.5-1-0.2-2.3,0-3.1c0.2-0.9-0.8-1.1-1.4-0.9c0-0.3,0.2-0.5,0.3-0.7c-0.2-0.2-0.4-0.3-0.6-0.3c-0.5,0-0.5,0.5-0.5,0.9
			c-0.9,1.1-1.3,2.3-1.1,3.7c0.9,0.6,0.1,1.4,0,2.1c0.7,0.8,0.5,1.8,0.3,2.8c0.4,0.6-0.2,1.4,0.2,2.1c-0.9,1.2,0.9,1.8,0.2,2.9
			c-1.1,1.1,0.7,3.1-0.8,3.7l0.5,0.6c-1.3,0.6,0.6,1.7-0.4,2.3c0.9,2.5-2.1,1-2.8,2c-1-1.1-2.8-0.7-4.2-1c-1,0.8-1.4-0.5-2,0.3
			c-0.8-1.4-1.2,0.7-1.9,0.2v-0.6c-0.4,0.3-0.7,0.8-1.3,0.7v-0.8h-4.2c-0.2,0.3-0.1,0.8-0.6,0.7c-0.4-0.3,0.2-0.5,0.2-0.8
			c-0.9,0.3-2.2-1.1-2.7,0.3l-0.4-0.6l-0.3,0.8c-0.2-0.1-0.4-0.3-0.3-0.6c-1.4,0.1-3-0.6-4.2-0.2c0,0.3,0.6,0.6,0,0.9
			c0-0.8-1.6-0.3-0.9-1.2h-3.6c-0.4,0-0.6-1-1-0.3c-0.1,0.2,0.1,0.3,0.2,0.5c-0.7,0.5-0.5-0.6-1.2-0.7c-0.5-0.1-1.2,0.1-1.5,0.2
			c-1.3-1.1-1.4,1.1-2.7,0.7c0,1.4,1.9,0.2,2.6,0.9c-1.3,0.4-2.6-0.4-3.4,1.2c-0.7,0.1-1.4,0-1.8-0.7c-0.6-0.3-0.6,0.4-0.7,0.8
			c1.3,1.4-0.6,2.9,0.3,4.3c0.3,1.7,0.1,4.1-0.2,5.5c1.1,1.5-0.6,3.1,0.1,4.5c-0.3,1.8,0,2.9,0.2,4.5c-0.5,3-0.1,6.6-0.4,9.9
			c-0.6,0-1.3,0-1.6-0.4c-0.1-0.6-0.4-1.4,0.2-1.9c-0.1-1.4,0.1-3.4,0.7-4.7c-0.9-0.7-0.2-1.4-0.5-2c0.7-0.9-0.3-2.1,0.5-2.7
			c-1.1-0.6,0.9-2.1-0.6-2.6c1-0.2,0.4-1.4,0.6-1.8c-0.8-1.8,0.2-4.3-0.5-6.5c-0.2-0.9,0.2-2.2-0.4-3.3l0.9-1.7
			c0-0.3-0.4-0.3-0.6-0.5c0.4-1.1-0.8-1.5-0.7-2.6c-1.6-0.9-2.8-0.5-4.6-0.9l0.6-0.6c-1.4-0.1-2-0.2-3.5-0.4v0.9
			c-0.7,0.1-1.3-0.8-1.9-0.1v-0.6c-0.3,0-0.3,0.4-0.4,0.6c-0.2-0.1-0.6,0.1-0.8-0.2l0.6-0.6c-0.7-0.5-1,1.2-1.7,0.4
			c0.1-0.1,0.4-0.3,0.4-0.5l-0.9,0.6l-0.1-0.7c-0.3,0.1-0.7-0.1-0.8,0.2c-0.4-0.1-1.1-0.1-1.5,0.2c0-0.2,0.3-0.3,0.2-0.5
			c-0.7-0.2-0.2,1-1,0.6c-0.4,0-0.6-0.4-0.5-0.7c-1.4-0.2-2.5,0.2-3.8,0.1c-0.6-0.9-1.5,0.1-1.9,0.1c0.1-0.1,0.1-0.2,0.1-0.4
			c-0.6-0.2-1.3,0.1-2,0.5c-0.4,0.1-1-0.5-1-0.7h0.3c-0.6-0.6-0.6,0.7-1.4,0.4c-0.2-1.4-1.1,0.3-1.6-0.6c-1.4,0.1-3.1,0.5-4.1-0.2
			c-0.9,1-1.5-0.8-2.3,0.2c-1.5-0.9-2.3,0.1-3.7-0.6v0.2c-0.8-0.2-1.7,0.5-2.4-0.2c0,0.2,0.1,0.4-0.1,0.6c-0.4-0.1-0.9,0.1-1.1-0.2
			c-0.2-9.1,0.2-18.4-0.3-27.4c0.5-1.9-1.4-1.3-2.4-2.2c0.3-0.2,0.9,0,0.9-0.6c-0.5-0.2-0.9-0.7-1.5-0.5c-0.3,0.2-0.3,0.8-0.8,0.6
			c-0.1,0.6-1.1,1.5,0,1.9c-0.8,0.8,0.6,1.2-0.4,1.6l0.6,0.2c-1.5,0.7,0.3,2.1-0.6,3.2c0.2,0.2,0.7,0.7,0.2,1
			c0.7,0.8-0.7,1.6,0.2,2.3c-0.8,1.3,0.2,2.5,0,3.8c-0.1,0.6-0.5,1,0,1.4l-0.3,0.3c0.8,1.2,0,2.7,0.4,4c-1,0.4,0,1.2,0,1.8l-0.4,0.1
			l0.3,0.9c-0.3,1,0.2,1.8,0,2.9c-0.5,0.1-0.5,0.9,0,1.1c-0.4,1.2,0.5,2.3-0.3,3.4c0.8,0.6,0,1.4,0.3,2c0,0.8-0.3,1.7-0.2,2.2
			c0,2.5,0.5,5.6,0,8.4c0.2,1.2,0.3,2.9,0.4,4.1H383l-0.1,3.6c0.3,2.3-0.2,4.6,0,7.1c0.2,1.2-1,2.4,0,3.4c-0.8,1.4-0.3,2.6-0.2,4.3
			c-0.6,0.2-1.5,0.5-2.4,0.2c-0.4-0.1-0.7,0.8-1,0.1c-0.2-10.8-0.3-22.8,0-32.7c-0.3-0.8,0-2.1-0.2-2.8V94.1
			c0.2-1.3,0.9,0.4,1.5-0.2c0.6,0.2,1.5,0.2,1.7,0.8h0.3c0.8-0.9,0.7,1.1,1.5,0.3c1.1,0.1,2.4,0.2,3.4,0.6c5,1.3,9.7,1.5,14.6,2.9
			c0.1-0.6,0.8-0.2,1.3-0.3c1.4,0.8,3.5,0.8,5,1.3c0.4-0.2,1.1,0.2,1.5-0.3c0.8,0.8,1.9,0.4,3,0.9v-0.8c0.6,0,0.1,0.6,0.5,1
			c1.4,0.2,2.8,0.1,4.1,0.1l-0.5-0.5l0.2-0.2c1.3,0.5,3.2-0.5,4.2,0.7c0,1.2-0.8-0.2-1.2,0.3c-0.7-0.9-1.4,0.1-2.2-0.3
			c0,0.3,0.2,0.6,0.4,0.7l0.3-0.3l4.4,0.8c1.7,0.9,3.7-0.5,5.1,0.8c1.9-0.4,3.6,0.7,5.2,0.5c1.2-0.5,2.5,0.9,3.3-0.2l-1.6-0.3
			l0.3-0.2c0.7,0.1,1.6-0.3,2,0.4l-0.3,0.3c0.3,0,0.9,0.6,1.4,0.2l-0.2-0.6c0.2,0,0.3,0.1,0.5,0.2c0.7-0.4,1.6,0.2,2.3,0.3h1.1
			c0.9,0.4,1.4,0.4,2.1,1l0.7-0.8c0.9,0,0.2,0.8,0.3,1c0.1-1.3,1.4-0.4,1.8-1c-11.8-1.7-25.2-3.4-37.2-4.9c-0.2-0.3-0.7,0.4-0.8-0.2
			l-1.9-0.3l-0.1,0.6c-0.8,0.3-0.3-0.6-0.8-0.8c-0.7,0.2-2.1-0.9-2.3,0.2c-0.1-1.1-1.2-0.2-1.4-0.8c-4.2-0.4-9-2-13.4-2.2
			c0.2,0.7-0.7,0.4-0.8,1c-0.6-0.6,0.1-0.7,0.2-1l-2.1-0.5v0.2c-0.1,0.3-0.4,0.2-0.6,0.2c-0.2-0.2,0-0.4,0-0.6
			c-1.3-0.6-3.1-0.9-4.5-0.7v-0.5h-0.2v0.1c-0.1,0.2-0.3,0.5-0.6,0.4c-0.6-0.1,0-0.4-0.2-0.6l-0.6,0.2c-1.1-0.9-2.9-0.7-4.3-1.1
			c-0.8-0.2-2.2-0.8-3.2-0.6c-3.4-1.4-7.4-1.7-11.4-2.7c-0.9-0.7-2-1-3.3-1c-1.9-0.7-3.8-1-5.8-1.5c-0.8-0.3-1.7-0.4-2.6-0.9
			c-1.6,0.2-2.9-1.2-4.5-0.9c-1.9-0.4-3.8-1.5-5.8-1.7c-1.8-0.7-3.8-0.7-5.2-1.7c-1-0.2-2-0.4-2.9-1c-2.8-0.9-5.9-1.3-8.5-2.7
			c-3.5-0.8-6.5-1.9-9.9-2.9c-4.7-1.9-9.9-3.7-14.7-5.7c-3.8-0.9-7.1-2.6-10.8-3.8c-1.2-1-2.8-1-4.1-1.8c-1.6,0.2-2.7-1.5-4.3-1.7
			c0.6-0.1,0.8-0.6,1.2-1l0.3,0.6l0.1-0.1c0.4-0.3,0.6-1.3,1.2-0.6c0.1-0.2,0.6-0.3,0.5-0.7c-0.5,0-1.2-0.2-1.2,0.5
			c-0.3,0-0.7-0.1-0.7-0.4c0.3-1.1,2,0.2,1.8-1.3c0.3,0.2,0.2,0.6,0.4,0.9l0.4-0.3c0.4-0.4,1.1-0.9,0.5-1.4c1.3,0.2,1.5-1.4,2.6-1.3
			c0.9-1.4,2.2-0.5,3.7-0.3c1,1,2.4,0.9,3.4,1.8c1.3,0.2,2.8,0.8,4,1.7c0.9,0,1.6,0.1,2.2,0.7c2.3,0.7,4.4,1.5,6.6,2.7
			c1.7,0.3,3.1,1.6,4.8,1.7c0.7,1,1.8,0.4,2.6,1.1c1.9,0.9,4.1,1.4,6.3,2.1c4,1.8,8.4,2.7,12.3,4.3c0.6,0.7,1.7,0,2.3,1
			c8.6,2.8,17.2,5.9,26,7.9l0.3,0.4c5.2,1.4,10.7,2.8,16,4.1c11.3,3.1,23.9,5.5,35.3,7.9c5.2,1.3,11.1,2.3,16.4,3
			c1,0.7-0.1,1.8,1,2.3c1-0.5-0.4-1.3,0.2-1.8c3,0.5,6.7,1,9.8,1.3l0.4,0.3c8.8,1.4,17.4,2.3,26.1,3.5c17.1,2.2,34.5,3.6,52.3,4.2
			c1.4,0.7,3.2,0.4,4.8,0.3c0.6,0.5,1.7-0.3,2.2,0.1c0.3-0.3,1.3-0.5,0.6-1.1c-1.1,0.5-2.5,0.3-3.1-0.5l-0.4,0.6
			c-0.5,0-0.9-0.5-1.2-0.6c-0.4,0.4-1.1-0.2-1.5-0.3c-1,1.4-1.7-1.4-2.9,0.1c-0.8-1.4-1.5,0.4-2.5,0v-0.4c-0.8,0.7-2.1,0.3-3.1,0.4
			c-0.5-1-1.9,0.2-2.8-0.4l0.4-0.6l-0.4-0.2l-0.2,0.8c-0.3,0.3-0.8,0.1-0.8-0.3c-1.5,0.4-2.5,0.1-4.2,0.2c-1.3-0.4-3.8,0.3-5.3-1
			c-0.7,0.5-1.6-0.5-1.7,0.6c-0.7-0.8-1.7,0.2-2.6-0.6c0-0.3,0.1-0.5,0.3-0.9c-0.5,0.5-1,0-1.4,0c-0.1,0.7-0.1,0.4,0.1,0.9
			c-1.4,0.3-3-0.8-4.4-0.3c-0.4,0.1-0.4-0.4-0.2-0.6l-1.8,0.4c-3.1-0.3-6.2-0.2-9.1-1.2l0.5-0.4l-0.2-0.2c-0.5-0.2-0.7,0.4-0.9,0.8
			c-2.2,0-4.2-0.2-6-0.8c-1.5,0.5-3.4,0-4.8-0.7c-2.9,0.3-5.2-1-8.1-0.7c-0.3-0.4-1.1-0.1-0.9-0.7c-0.8,1.1-1.8-0.4-2.5,0.2
			c-7.9-1.1-14.5-2.1-22.6-3.5c-0.2-0.8-1.1,0.1-1.6-0.4c-0.4-0.4,0.3-0.4,0.3-0.7l-0.6-0.7c0.5-0.6-0.2-1.4,0.2-1.8
			c-0.3-2.1,0.7-4.4-0.5-6.4l-0.4,0.4c-0.2,0.8-0.5,1.3,0.1,2c-0.6,1.4,0.2,2.7-0.1,4.1c-0.4,1.1,0.2,2.1-0.6,2.9
			c-0.4-0.6-2.8,0.1-3.2-1.1c-0.7,0.7-1.8,0-2.9,0.1c-0.8-1.2-1.9,0.2-2.8-0.5c-3.8-1.1-8.1-1.4-11.7-2.9c-0.1-0.6,1.1-0.3,0.5-0.9
			c-0.8,0.2-0.9,0.4-0.8,1.1c-0.5,0.1-0.8-0.2-1.2-0.3c-0.4-0.5-2,0.3-1.5-0.8c-2.4,0.2-5.2-0.4-7.5-0.9c-1.2-0.9-3.2-0.1-4.6-1.2
			c-0.6-0.7-1.6,0.1-1.9-0.8l-0.6,0.3c-0.9-0.6-2.2-0.4-3-0.8c-0.2-0.2,0.2-0.3,0.2-0.5c-0.1-0.2,0.2-0.9-0.3-1l-0.3,1.2
			c-1.5-0.2-2.9-0.5-4.1-1.2c-1.4,0.3-3.1-0.3-4.4-0.8c-3.9-0.7-7.6-1.8-11.3-2.9c-0.7-0.3-2,0.3-2.5-0.9l1-1
			c-1,0.6-0.7-1.2-1.7-0.6l0.1,0.9c0.2,0.1,0.7-0.7,1-0.2c-0.5,0.2-0.3,1-0.8,1.1c-0.9-0.4-2.8-0.1-2.6-1.2l-1.9-0.4
			c-0.6-0.5-1.8,0-2-0.7c0.3-0.2,0.7-0.1,1.1-0.2c0-0.1,0-0.3-0.1-0.3c-0.6-0.2-1.5-0.6-1.5,0.5c-0.3,0-0.6-0.1-0.8-0.4
			c0.2-0.4,0.3-1.3,0.9-1.2c0-0.2,0.1-0.6-0.1-0.6v0.4c-0.5-0.2-1.2,0.3-1.3-0.4c0.1-0.1,0.1-0.2,0.2-0.2c-0.1-0.1-0.4-0.6-0.9-0.4
			c0.3,0.6-0.6,0.6-0.5,1c0.2,0.5,1.2-0.1,1.2,0.8c-0.2,0.2-0.4,0.5-0.6,0.5c-0.4-0.9-1.2-1.4-2.1-1.4c-0.2-1-1.5-0.5-1.8-1.4
			c0.4-0.6,0.2,0.5,0.8,0.1c0.3,0,0.6-0.1,0.5-0.5h-0.4c-0.8,0-2.4-0.4-3.4,0.4c-0.4-1-1.8-1.2-2.1-2l-0.2,0.1
			c-0.1,0.4-0.4,0.9,0.2,1.1l-0.3,0.3c-0.5-0.2-1.1,0-1.3-0.8l0.4-0.4h-0.4v0.1c-0.5-0.3-1.3,0-1.6-1l-0.7,0.6
			c-0.2-0.9-1.4-0.5-1.4-1.3l-1.4,0.8c-0.6-0.2,0-0.6,0-0.9c0-0.4-0.5-0.1-0.6-0.4c-0.2,1.2-1.5,0-2.3,0.3c0.2-0.6,0.3-0.9,0.5-1.4
			c-0.6-0.1-0.1,0.9-0.9,0.6c-0.4,0-0.4-0.4-0.4-0.7c-0.6-0.1-0.5,0.5-1,0.7c-0.4-0.5-0.7-0.7-1.2-1c-0.3-0.4,0.6-0.6,0-0.9
			c-0.4,0.2-1.1-0.2-1,0.5c-0.9-0.3-2.2,0.7-2.6-0.6c-0.3-1.1,1.2,0.1,0.9-1c-0.4-0.1-0.6-0.4-1-0.3c-0.2,0.1-0.3,0.3-0.1,0.5
			c-0.2,0.5-0.6,0.5-1.1,0.5c0,0.4,0.2,0.7,0,1c-0.4-0.1-0.9,0.1-1-0.4c-0.3-0.1-0.4-0.9,0.1-1.2c-0.2-0.2-0.4-0.6-1-0.5
			c-0.9-1.9-3.4-1.4-4.6-2.9c-0.2,0.9-0.9,0.4-1.4,0.5c-0.7-0.2-0.4-0.8-0.1-1.1c-0.7-0.4-1.8-0.3-2.4,0.3c-0.6,0.4-1.2-0.2-1.6-0.5
			l0.2-0.3c0.2,0,0.3,0.2,0.5,0.3c0.1-0.3,0.7-0.6,1.1-0.4c-0.2-0.7-1.1-0.3-1.6-0.2c-0.2-0.5-0.5-0.1-0.7,0
			c-0.5-0.3,0.1-0.8-0.6-1.1c-0.4,0-0.7-0.6-1,0l1,0.5c0.2,0.1,0.2,0.6-0.1,0.6c-0.6-0.8-1,0.2-1.5-0.4c0-1.5-2.3-0.2-2-1.6
			c-1.4,0.1-1.3,2-2.4,1.5c-0.1-0.2,0.4-0.7,0.9-0.5c0.7-0.7-0.3-1.1-0.6-1.5l0.1-0.1c-0.5,0.2-0.5-1.2-1.2-0.6l0.4,0.6l-0.1,0.1
			c-0.4-0.2-1.1-0.4-1.1-1V60c-0.2,0.3-0.4,0.4-0.8,0.3c-0.5-0.9-1.8-1.1-2.3-1.9l-0.6,0.6c-0.3-0.5-0.8-1.2-1.5-1.1
			c-0.2-0.1,0.1-0.4,0.1-0.6c-0.8,0.1-1.5-0.2-2.5-0.6c-0.3-0.3,0-1-0.6-1c-1.4,1-2.6-0.6-4-0.8l0.1-0.6h-1.4
			c-0.4-0.3,0-0.5,0.2-0.7l-1.2-0.5c-1.4,0.7-1.1-1.2-2.2-1.2c0.4-1.1,2.4-1.4,2.8-2.9c1.1,0.6,0.8-1,1.6-1.4l0.1,0.2
			c0.1,0.2-0.2,0.3-0.1,0.4c0.5,0.2,0.2-0.4,0.5-0.7c0.1,0.1,0.3-0.1,0.4,0.1c0.8-0.4,1-0.8,1.6-1.2l-0.8,0.1c-0.3-2,1.6,0.2,2.4-1
			c0.6-0.5,1-1.1,0.3-1.5c0.1-0.3,0.4-0.2,0.7-0.2c1.4,1.2,1.8-1.1,3-1.1c1.2-1.1,2-2.1,3.5-2.3c1.2-1.6,3.4-1,4.2-3.1l0.2,0.3
			c0.9-0.2,1.2-1.4,2.2-1.1c0.7-0.7,1.7-1.1,2.4-1.4c-0.7-1.3,1.2-0.4,1.5-1.2c1.3-0.1,2.1-1.2,3.3-1.4c1.2-1,2.7-1.3,4.1-1.9
			c1.2-1.2,3.1-1.1,4.1-2.4c1.4,0.2,3-0.8,4.2-1.5c0.9,0.6,1.4-0.4,2-0.7c0.9,0.4,1.1-1.1,1.9-0.6c0.9-1.1,3.2-0.5,4.2-1.8l-0.1-0.1
			l-0.1,0.1c-0.3,0.2-0.5,0.2-0.8-0.1c0.7-0.8,1.3-0.2,2,0c0.6,0.3,0.7-0.5,0.8-0.9c0.3,0.1,0.7-0.1,0.9,0.3
			c0.1-0.4,1.1-0.7,0.3-1.1c0.2-0.2,0.4-0.1,0.6-0.1v0.7c0.3-0.1,0.5-0.3,0.9-0.3c0-1.2,1.4,0.5,1.3-0.9c0.4-0.2,0.5,0.2,0.6,0.3
			l0.3-0.3c0-0.8,1.1-0.8,1.5-0.8c-0.1-1.6-2.2,0.2-3.2-0.3c-0.7-0.1-1,1.1-1.5,0.5c-1.2,0-2.2,0.7-3.4,1.1c-4.1,0.3-7.5,3-11.4,3.6
			c-7.4,3.7-15.3,6.5-22,11.4c-7.1,3.1-13.4,9.4-20.1,14c-0.9-1.2-2.5-0.1-3.1-1.7c0.8,0,0.2-1,0.9-1.1c1.1,0.2,0.6-1.5,1.6-1.1
			c0.4-0.4,0.7-0.6,1-1.1c0.9,0.4,0.9-0.7,1.7-0.6c0.3-0.5,1.2-0.8,0.9-1.4c0.6-0.3,1.1-1.2,1.8-0.5c0.3-0.2,0.3-0.7,0.5-1
			c0.3-0.6,0.9-1.2,1.4-1.1c0.1-1,1.3-0.9,1.8-1.3l1.1-1.2c1.4-0.1,1.4-2.3,3.2-1.8l-0.3-0.4c0.2-0.4,0.7-0.1,1-0.2
			c0.3,0,0.8-0.6,0.3-1c1.4-0.2,2.3-2,4.1-1.8c0.4-1,1.9-1,2.4-1.9c0.2,0.2,0.3,0.4,0.1,0.6c0.9,0,0.8-1.2,1.5-0.9
			c0.7-1.2,2-0.6,2.7-1.7c1.3,0.2,0.5-1.4,1.6-1.4c0.2,0.1,0.2,0.3,0.1,0.5l0.6,0.2c0.8-0.3,0.4-0.9,0.5-1.3l1.2,0.4
			c0.4-0.8,1.3-0.7,2-0.9c0.5,0,0.6-0.9,1.2-0.6c1.1-1.1,2.7-1,3.7-2l-0.6-0.4c0.1-0.3,0.5-0.7,0.8-0.5l0.3,0.8
			c1,0.8,0.9-1.2,1.8-0.6c1.1-0.5,2.2-0.8,3.3-1.4c0.1-0.3,0-0.6-0.4-0.9c0.2-0.2,0.5-0.3,0.7-0.4v0.8c0.7,0,1.5,0.2,1.7-0.6
			c1.4,0.5,1.9-1.3,3.2-0.7c1.3-0.6,2.6-1,3.9-1.2c0.7-1.3,2.7-0.5,3.1-1.7c0.9,1.1,2-0.6,3.2-0.3c2.8-1.3,5.5-1.1,8.4-2.2
			c1.2-0.1,2.8-0.1,3.6-0.9c1.4-0.1,3-0.4,4.3-0.3l-0.1-0.8c0.1-0.4,0.5-0.2,0.8-0.4c0.5,0.3,0.2,0.6,0.2,1c1,0.2,1.8-0.3,2.6-0.5
			c0.5,0.2,1.2,0.5,1.5-0.1l-0.5-0.4l0.6-0.5c0.2,0.2,1.1,0.4,0.6,0.9l1.5-0.2c-0.1-1-1.4-0.6-1.5-1c1.5-1,2.5,1,4,0.8
			c0.6-0.3,1.7-0.1,1.3-1.2c0.5-0.3,1.4-0.3,1.7,0c0.2,0.1,0.2,0.5,0,0.6c-0.1-0.2-0.4-0.1-0.6-0.1v0.2c0.8-0.3,1.7,0.5,2.2-0.1
			l-1-0.3c0.3-1.2,1.2,0.1,1.6-0.4c0,0.3-0.3,0.4-0.3,0.7l0.9-0.8c0.1,0.1,0.5,0.3,0.3,0.5H376c1,0.2,1.9,0.6,2.7-0.5
			c1.4,1.2,2.7-0.1,4.2,0c-0.4-0.7-1.4-0.1-1.4-1c0.6-0.2,1.4-0.2,2.1,0c0.2,0.6-0.2,0.9-0.6,1.1c0.5,0.7,1.2,0.2,1.7,0.2
			c1.1-0.1,2.4,0.3,3.3,0.2c2,0.4,4-0.4,5.9-0.3l0.1,0.3c0.4-0.2,1.4,0.3,1.8,0c-0.6-1.4,1.1-1.3,1.4-2.2c0.5,1-1.1,1.4-0.7,2.4
			l2.2,0.2c0.8-0.3-0.1-0.8,0.6-1.2l-0.7-0.3c0.1-0.7-1.3-0.7-0.4-1.3c0.2-0.1,0.4,0.1,0.6,0.2c0.2,1.4,1.8-0.2,2.4,0.6
			c0.9-0.1,2.2,0.1,3.3-0.1c-0.4,1-0.2,1.4-0.4,2.2c0.5-0.7,1.2,0.2,1.6-0.4c0.6-0.4,0.1-0.9,0-1.3c0.1-0.2,0.2-0.6,0.6-0.5
			c0.8,0.7,1.5-0.4,2.3,0c0.4,1.7,1.3-0.5,2.1,0.7l-1.1,1c1.1,0.4,1.6,0.6,2.8,0.5c0.1-0.4,0.3-0.7,0-1.1l1.9,0.1
			c-0.2,0.2-0.3,0.7,0.1,0.8c0.5,0.1,0.7-0.3,0.9-0.7c0.3,0.1,0.7-0.1,0.9,0.3l-0.5,0.6c1,0.2,2.3-0.4,2.8,0.5
			c-0.3,0-1.1-0.3-1.4,0.2l1.7,0.8c-0.5,0.8-1.7-0.6-2.2,0.2c0.9,0.3,2.1,0.8,3.2,0.8c0.3-0.5-0.3-0.3-0.3-0.7
			c0.1-0.2,0.4-0.4,0.6-0.3c-0.4,1,0.8,0.3,0.8,1c0-0.3,0.6-1.1,0.9-0.7l-0.6-0.6c-0.5,0.1-0.9-0.3-1.4,0.2
			c-0.2-0.1-0.2-0.3-0.2-0.6c0.2-0.2,0.4-0.3,0.7-0.3c1,0.3,1.4,0,2.3,0c0.2,0.2-0.8,0.4-0.1,0.8c0.8,0.4,0.4-0.6,0.7-0.7
			c0.2-0.1,0.3,0.1,0.4,0.2c-0.4,0.7-0.1,1.6-0.7,2.2c0.5,0.1,0.6-0.1,1.1-0.4v0.8h0.3v-0.5c0.8-0.4,0-1.8,1.3-1.2
			c-0.3,0.8,1.4,0.8,0.4,1.4c-0.2-0.1-0.3-0.4-0.5-0.3c-0.2,0-0.3,0.2-0.3,0.3c1,0.2,2.2,0.9,3.6,1.1c1.2-0.5-0.7-1.2,0.5-1.8
			c0.7-0.2,0.7,0.6,1,1c0.6,0.1,0.7-0.3,0.9-0.6l1.1,0.6l-0.4,0.2c-0.5,1,1.1,0,1.1,0.9c0.3-0.4,0.1-1,0.6-1c0,0.1,0.2,0.1,0.2,0.3
			c0.8,0,1.5,0.3,1.9,0.9c-0.3,0.4-1,0.1-0.7,0.7c-0.4-0.1-0.9-0.6-1.3-0.2c0.3,0.2,1,0.7,1.3,0.7h0.7v0.1c0.1,0,0.3,0,0.4-0.1
			c0-0.5-0.5-0.1-0.6-0.4c0.4-0.3,1.2-0.3,1-0.9c0.4,0.1,1.1,0.2,1.1,0.7c1.1-0.8,1.8,0.9,2.5,1.3c-0.1,0.3-0.7,0.7-0.2,0.7
			c0.6-0.2,0.4-1.1,1-1.1c0.5-0.1,0.5,0.6,0.5,0.6c0.7-0.9,1.1,0.3,1.8,0.4l-0.3,0.7c0.5-0.1,1.2-1.2,1.7-0.6
			c-0.2,0.3-0.5,0.7-0.9,0.7c0.4,0,0.7,0.7,1.2,0.4c-0.3-1.8,2.3,0.1,3.1-1.2l0.1,0.1l0.3-0.9c-1-0.5-1.3,0.9-2,0.6l0.3-0.8
			c-1,0.5-1.3-0.8-2-1c0.3,0.2-0.2,0.5-0.3,0.7c-1,0.4-0.3-1.2-1.1-1.3c-0.9-0.3-1.4,0.1-1.9,0.6l-0.2-0.5l0.6-0.4
			c-0.2,0-0.2-0.3-0.4-0.2c-0.5,0.4-0.8,0.4-1.2-0.3c0.3,0,0.3-0.3,0.5-0.6c-0.2-0.3-0.5-0.2-0.8-0.2c-1.1,1.3-0.7-1.6-1.9-0.5
			c-1.3-1-3.8-1.4-5.5-1.8c-2.2-0.6-4.7-1.5-6.9-1.7c-4.1-1.1-8-1.5-12-2.4c-1.6-0.5-3.4-0.3-4.9-1c-1.4,0.3-2.7-0.3-4-0.1
			c-0.5,0.1-1.3-0.9-1.8-0.2c-5.7-0.6-11.3-0.3-16.8-0.7c-3.2,0.1-7.1,0.3-10.7,0.7c-0.7-0.8-1.4,0.6-2.3-0.2c-3.5,1-8.2,0.8-12,2
			c-5,0.5-9.3,1.5-14.1,2.9c-0.1-0.2-0.3-0.2-0.2-0.4l-0.5,0.6c-2.6,0.9-5.2,1.7-7.8,2.2C338,16,337.2,15,337,16
			c-1.1,0.2-2.2,1.2-3.4,0.9c-0.9,0.5-2,0.3-2.6,1.3c-1.7-0.8-1.9,1.3-3.3,0.9c-0.7,1.1-2.2-0.2-2.8,0.8h0.5c0.1,0.2,0,0.3-0.3,0.3
			c-0.5,0.5-1,1.2-1.4,0.4c-0.3,0-0.5,0.3-0.8,0.5c-0.1-0.2-0.3-0.4-0.6-0.5c-0.3,0.3-1.1,0.5-1,1.1c-0.6,0.3-0.5-0.5-0.8-0.6
			c-0.6,0.2-0.4,0.9-0.6,1.2l-0.3-0.3c-1.4,1.7-3.5,1.1-5,2.3l0.1,0.4c-0.8,0.6-2.2,0.4-2.3,1.7c-1.2-0.2-1.3,0.2-2.3,0.3l0.2,0.2
			c-0.2,0.3-0.1,0.6-0.4,0.8c-0.5,0.1-0.8,0-0.9-0.3l0.7-0.5c-0.3-0.3-0.8,0.1-1.1,0.1c0.3,0.3,0,0.6-0.2,0.7
			c-0.2,0-0.4,0.1-0.5-0.1c0.3,1.4-1.8,0-2.3,1.2c0.5,1.1-1.2,0.8-1.7,1c-0.7,1.1-2.6,0.8-2.6,1.9c-0.7-0.2-1,0.9-1.7,0.7
			c-0.5,0.6-1.4,1-1.3,1.8c-0.6-0.4-0.9,0.2-1.4,0.2c0,0.4,0.1,0.7,0.4,0.9c-0.7,0.1-1.3,1.1-2.2,0.9c-0.4,1.5-2.2-0.2-1.7,1.7
			c-0.6,1.6-2.5,0.2-2.9,1.7l0.6,0.3c-0.5,0.4-1,0.5-1.4,0.7c0,0.2-0.1,0.4,0.2,0.5l-0.8,0.4c-1-1.2-0.9,1.2-1.8,0.9
			c1.7,0.7-0.8,0.6-0.5,1.4c-0.2,0-0.3-0.3-0.4-0.4c-1.1-1.2-0.7,1.1-1.8,1.3c-0.9-0.1-1.2,1.4-2,1.2c0,0.7,0.8,0.1,0.9,0.6
			c-0.4,0.5-1.5,0.7-2.3,0.8l0.4,0.4c-0.3,0.3-0.5-0.2-0.9-0.2c-2,0.7-3.1-1.5-4.8-1.7v-0.1c-0.9-0.1-1.2-0.7-1.8-1
			c-0.5-0.5-0.7,0.4-0.9,0.7c-1.4,0.1-0.5-1-0.8-1.6l-0.5,0.2c-0.9-1.4-2.1-1.3-3.4-1.9c-0.2-1.2-1.6-0.6-1.9-1.4
			c-2.1-0.1-2.8-2.4-4.8-2.1c-0.6,0.8-1.2,1.3-1.4,2c0.3,0.6-0.6,1.4,0.4,1.8c-0.2,0.1-0.3,0.4-0.5,0.4v0.4c5.4,3.2,11.6,4.4,17,7.7
			l-0.2,0.5l0.6,0.3c-0.4,0.6-0.9,0-1.3,0c-0.9,0.7,0.5,0.3,0.6,0.7c-0.8,0.4-1.1,1.1-1.7,1.4l-0.2-0.6c-0.7,0.5-0.1,1-0.5,1.4
			c-0.9-0.3-0.9,0.5-1.4,0.6c0,0.1-0.1,0.3,0.1,0.3l-1.1,1.1c-0.2,0.2-0.8,0-0.6,0.5c0,0.3-0.4,0.4-0.6,0.4c-0.8,1.4-2-0.7-3.3-0.4
			c-2.6-1.2-5.3-2.4-8.1-3.8c-0.8-0.2-1.7-1.4-2.6-0.4l-0.3-0.8c-1.3-0.4-2.5-1.9-3.9-1.2c0.4,0.4-0.1,1,0.6,1.3
			c0.5,0.8,1.8,0.5,1.9,1.5c1.5,0.8,2.7,1.6,4.2,2.3c1,1.4-0.9,1.8-1.6,3.1c-0.5,1.2-2.2,1.9-2.1,3.4c-0.4-0.8-0.7,0.3-1.1,0.3
			c0.8,1.2-1.9,1.4-0.7,2.5c-0.4,0-1-0.2-1.2,0.3c0.2,0.2,0.3,0.4,0.2,0.6c-0.1,0.8-0.7,0-1,0.4c-0.4,0.1,0.4,0.7-0.3,0.7
			c-0.6,1-1.5,1.8-1.9,3.2c-1.3-0.2-0.4,1.4-1.5,1.4c-0.2,0.4,0,0.9,0.2,1.2c-0.1,0.5-0.6,0.2-0.9,0.3c-1,0.3-0.2,1.4-1,1.5
			c0.4,1.1-1.2,1.1-1.1,2.1c-1,0.6-0.3,2.1-1.4,2.2c0.3,0.9-1.2,1.5-0.4,2.4c-0.8,0.3-1.3,1.5-1.3,2.2c-1.3,0.3-1.1,2-1.6,2.7
			c-1.2,0.5-0.1,1.8-0.9,2.6c0.5,0.8-1.2,1.6,0.2,1.9c0.5-1,0.7-2.8,2-3.3c-0.5-1.1,0.9-1.7,0.6-2.8c1.3-0.3,1.2-2.2,2-3
			c-0.3-0.7,0.8-1.2,0.9-1.8c0.4-0.8,1.2-1.3,1.4-2.1c1.7-2.1,2.7-4.5,4.7-6.6c0.3-1.7,2.1-2.3,2.6-3.9c3-3.5,5.8-7.1,9.3-9.9
			l1.8,1.1c1.4-0.7,1.3,1.9,2.4,0.8c1.4,0.8-0.5,1.2-0.2,2.1c-0.5,0.3-0.3-0.4-0.7-0.5c-0.1,0.2-0.4,0.3-0.2,0.6
			c0,0.4,0.4,0.4,0.6,0.6c0,0.3,0,0.5-0.2,0.6c-0.3-0.5-1-0.8-1.4-1.1v1.2c-0.3,0.4-0.6,0.6-1.1,0.5c-0.1,0.6,1.1,0.1,1,0.9
			c-0.4,0.7-0.8-0.3-1.3,0c-0.8-0.2-1.3,0.5-1.4,1.1c0.1,0.5,0.4,0.1,0.6,0.3c-0.4,0.4-1.3,1.4-1.7,1.6l0.5,0.3
			c0.6,1.4-1.1,0.1-1.3,1.2l0.3,0.4L261,69c-1.4-1.4-1,1.3-1.8,1.4c-0.5,0.5-1.4,1.9,0,2.1l-0.4,0.4c-0.2,0.5-0.6,0-0.9-0.3
			c-0.6-0.2-0.9,0.6-1.2,1c0.3,0.6-1.2,1.3-1.4,1.9c0.3,0.1,0.7,0.6,0.4,0.9c-0.8-0.1-1,0.6-1.4,0.9c0.5,1.5-1.4,2.2-2.2,3.3
			c0.2,0.4-0.3,1.1-0.6,1.1l0.1,0.5c-1.4,0.3-0.2,2.4-1.9,2.2c-0.2,0.6,0.6,0.5,0.7,1.1c-0.4,0.7-1,0.8-1.5,1.2
			c-0.3,0.7-0.7,2-1.4,2.4c-0.4,0.8-1,1.8-0.6,2.7c-1.6-0.6-0.9,1.8-2.1,2c0.1,0.5,0.9,0.1,1.2,0.4c0.4,0.3-0.2,0.5-0.4,0.6
			c-0.6,0.3-0.4-0.3-0.9-0.5c-0.2,0.2-0.1,0.4-0.1,0.5h0.2c-0.4,0.5-1,0.7-0.4,1.3c-1,0.9,0.2,1.7-0.4,2.5c-0.2-0.1-0.6-0.2-0.7-0.5
			l0.4-0.4c-1.4-0.2-0.2,1.5-1.4,1.9l0.3,0.3c-1,0.8-0.6,1.8-1.2,2.7c-0.6,0.5-0.6,1.1-1.4,1.3c-0.3,0.3,0,0.5,0.1,0.7
			c-0.1,1.1-0.6,1.9-0.9,2.7l-0.7-0.1v0.5c0.1,0,0.4-0.1,0.5,0.1c0,0.3,0,0.6-0.3,0.7c1,1.1-1.4,1.4-0.6,2.2
			c-0.1,0.2-0.3,0.3-0.6,0.3l0.2,1.5c-0.1-0.1-0.3-0.1-0.3-0.3h-0.7v0.2h0.1c1.6,1.4-0.9,1.1-0.9,2.1c0.2,0,0.4-0.1,0.6,0.2
			c-0.4,0.9-0.4,1.3-1.1,2.1c0.5,0.2,0.6,0.8,0.4,1.3c-0.2,0-0.4-0.1-0.6-0.2c-1.4,0.5,0.4,1.4-0.3,2.2c-0.9,0.1-1.7-0.1-2.1-0.7
			c-0.3,0.3-1.2,0.3-1.4,0c-0.3,0.1-0.2,0.4-0.4,0.6c-0.5-0.2-1.4,0.4-1.5-0.5c-0.3-0.3-1.2,0-1.4,0.1c-0.6-1.2-1.5,0.4-2.2-0.6
			l-0.3,0.6c-0.8-0.9-2-0.2-2.5-1.1c-0.4,0.3-0.6,0.9-1.1,0.6c-0.6,1.3-0.5-0.8-1.4-0.2v0.6c-0.4,0-0.7,0.1-0.9-0.1l0.1-0.5
			c-0.3,0-0.7-0.1-0.9,0.1c-0.3-0.4-1.4,0.2-1.6-0.1c0.1,0.7-0.8,0.3-1.2,0.6c-0.7-1.1-1.7-0.8-2.7-0.6c0,0.1,0.1,0.4-0.1,0.5
			c-0.4-0.3-1.4,0-1.4-0.8c-0.4,0.9-1,0-1.4-0.1l-0.4,0.6c-0.3,0.3-0.6-0.4-1.1-0.2c-0.1,0.1-0.3,0.3-0.2,0.5l-1.1,0.1
			c-0.3,0.2,0.1,0.4,0.1,0.6l9.7,0.2c3.3,0.3,6.5,0.5,9.9,0.3c2.4,0.3,3.7,0.1,6.4,0.3c1.3,1-1.4,1.3-0.1,2.1
			c-1.4,0.9,0.5,1.3,0.2,2.2c-0.9,0.7-2.1-0.1-3.1,0.3c-1.3,0.3-2.6,0.4-3.7-0.1c-7,0.6-15.3,0.1-22.4,0.9c-0.3,0.4-1.3,0.9-0.5,1.4
			c-0.7,0.7,0.1,1.4,0.2,2c0.8-0.2,1.7,0.6,2.4-0.3c0.6,0.6,1.4-0.3,1.7,0.2c2.3-0.6,4.5-0.1,7.1-0.5l0.4-0.2l5-0.1
			c2-0.4,4.8,0.3,6.9-0.7c1.3,1.4,3.2-0.3,4.4,1c-0.7,0.2-0.9,0.7-1.1,1.3c1,0.6-0.3,1.4,0.2,2.1c-0.8,0.9,0,1.9-1,2.8
			c-0.3,0.5,0.1,0.8,0.4,1.2l-0.5,0.3c0.5,1-0.8,1.6-0.7,2.7h0.4c-0.4,1.4-0.9,3.2-1,4.9l-0.5,0.4c0.2,1.6-0.4,3.3-0.1,4.8
			c-1,2.9-0.2,6.5-1,9.3c0.3,0.6-0.5,1.5,0.1,2.1c0.8,1.1-0.7,2.7,0.2,3.5l-0.4,0.3c0,0.3-0.1,0.7,0.1,0.9c-0.2,0.6,0.9,1.5-0.1,1.9
			c0.3,0.6-0.4,1.3,0.6,1.3c0.3,0.7-0.6,0.4-0.6,1l0.4,0.3c-0.4,1,0.6,1.8,0,2.8c0.7,1.4-1.1,3.5,0.3,4.1c-0.3,0.4-0.3,1-0.1,1.4
			c-1,1.4,1.3,2.1,0.6,3.6c-0.9,1,0.9,2,0.5,2.8c-6,1.6-12.2,2.7-17.7,4.6c-1.9,0.6-3.8,1.1-5.7,1.5c-2.1,1.1-4.7,0.7-6.8,1.8
			c-0.6,0.2-1.3,0.6-1.6,0.6l-1.6,0.3c-0.4,0.7-1.3,0.5-1.7,0.6c-2.1,1.2-4.6,1.2-6.8,2.4c-3,0.8-5.7,2.1-8.8,2.8
			c-1.1,0.8-2,0.5-3.1,1.2c-2.4,0.2-4.3,1.5-6.5,2.3c-1,0.2-2.7,0.6-2.9,1.8c0.5,0.2,1,0.3,1.2-0.1c1.2,0.8,1.8-0.7,2.9-0.7
			c0.8-0.5,2,0,2.6-1c1.4,0.5,1.3-1.4,2.7-1.1c1.4,0.8,3-1,4.7-1c0.2-0.2,0.2-0.5,0-0.6c-0.6,0-1.2,0.3-1.6,0.7
			c-0.4-1.4,1.8-0.6,2.5-1.4l-0.2,0.9c1.2,0.2,2.2-0.7,3.1-1.1c1,0.5,1.8-0.2,2.7-0.7c1.6-0.5,3.3-0.7,4.8-1.9
			c2.5-0.4,4.9-1.2,7.2-1.9c1.4,0.2,0.1-1.1,1.2-1.4c0.3,0.1,0.6,0,0.8,0.2l-0.2,0.7c1.4,0,3-0.5,4.1-1v-0.1c-0.2,0.5-0.9-0.4-1.4,0
			c0.4-1.1,1.7-0.7,1.9-1.5l1.2,1.1c0.5-0.6,0.8,0.4,1.4,0v-0.3c-0.6,0-1.3,0.1-1.5-0.5c0.3-0.3,0.9,0,1.1-0.4
			c0.7-0.7,1.9-0.1,2.6,0.1l-0.5-0.6l1.2-0.6c0.9,0.2-0.2,0.6,0,1.2h0.3c0.1-0.5,1.1-0.7,0.4-1.2c0.1-0.2,0.4-0.2,0.6-0.3
			c0.5,0.7,1.8,0.3,2.6,0.2c0.1-0.7-0.7-0.1-0.9-0.5c-0.1-0.7,0.9,0,1.3-0.6l0.4,0.7c0.6,0.5,1.2-0.2,1.8-0.3l-0.1-0.1
			c-0.3-0.3-0.3-1.1,0-1.2l0.4,0.2c0.2,1.1,1.3,0.5,1.8,0.6v-0.1c-0.2,0-0.3-0.3-0.5-0.4l1.2-0.1c0.3-0.2-0.1-0.4-0.2-0.6l0.2-0.2
			c0.4,0,0.9,0.7,1.1,0.9l0.5-0.6c1,0.1,1.6-1.4,2.4-0.5c0.2-0.2,0.2-0.8,0.7-0.7c0.3,0.2-0.2,0.3,0,0.5l2.1-1
			c0.5,0.1,1.2,0.2,1.5-0.3c0.8,0.1,1.2,0.6,1.6,1.2l-0.4,0.2c-0.3,0.3,0,0.6,0.3,0.7c-0.5,0.6,0.3,1.2,0.2,1.5
			c-0.6,0.5,0.2,0.5,0.2,1c-0.4,0.2-0.1,1-0.7,0.9c-0.4-0.1-0.8-0.1-1.2-0.4c-0.7,0.7,0.5,0.9,0.4,1.4c-0.6-0.1-0.9-0.9-1.5-0.5
			c-1.4,0.3-2.3-0.7-3.5-0.2c-0.5,0-0.8,0.6-0.5,0.9c-0.2,0.2-0.3,0.4-0.5,0.4c-0.1-0.1-0.3-0.2-0.2-0.4c-0.8-0.1-1.4,0.3-1.7,0.6
			c0.1,0.2,0.5,0.2,0.3,0.5c-0.1,0.2-0.3,0.1-0.4,0.1c-0.5-0.1-1.2-0.4-0.9-0.9c-1,0.2-1.2,1.7-2.3,1.2c-0.8,1.3-1.5-1-2.2,0.3
			c-0.6-0.4-1.3,0.3-1.6,0.8c-0.4-0.2-0.7,0.2-1,0.3c0.1,0.2,0.4,0.3,0.2,0.5c-0.9-0.4-1.1,1.5-1.9,0.3c0,0.2-0.3,0.7-0.7,0.8
			c0,0.3,0.6,0.5,0.3,0.8c-0.5-0.3-1.1-0.7-1-1.3c-0.5,0.7-1.2-0.4-1.7,0.1c-0.2,2-1.8,0.1-2.7,1.2c0.1,1.3,1.3,0.8,1.8,1
			c-0.6,0.8-1.9,0.1-2.6,1.2c-1,0.1-0.3-0.8-0.6-1h0.1c0.2,0.2,0.6,0.2,0.7-0.1c0.5-0.1,0.3-0.6,0.1-0.8c-0.8-0.3-1.7,0-2.6,0.6
			c-0.4,0-0.7-0.6-1.1,0c0,0.2,0.1,0.3,0.3,0.4l-0.7,0.6c0.2,0.1,0.3,0.4,0.5,0.4c0,0.4,0.5,0.9,0,1.1c-0.2-0.8-0.9-0.5-1.4-0.6
			v-0.1c0.2-0.2,0.4-0.5,0.8-0.4c0.5-1.1-1.1-0.5-1-1.3v0.2c-0.5,0.1-1.1,0.7-1.7,0.3c-0.3,1.2-1.5,0.2-2,0.8c0.2,0,0.3,0,0.4,0.2
			c0,0.2,0.1,0.4-0.1,0.6c-0.3,0.1-0.4-0.3-0.6-0.4c-0.8-0.3-0.8,0.4-1.1,0.8c0.3,0.9,0.9-0.6,1.2,0.4c0,0.1-0.1,0.2-0.1,0.2
			c-0.9-0.1-0.4,0.8-0.5,1.1c-0.6,0.3-0.8-0.7-1.3-0.3l0.3,0.5h-0.3c-1.4,0.4-0.8-1.1-1.3-1.4l-0.1-0.1h-0.4c-0.7,0.3-1.7-0.6-2,0.6
			c0.1,0.1,0.3,0.3,0.5,0.5h-1.4c-0.5,0.9-1.1,1.3-2.1,1.4c-0.1-0.3,0.1-0.5,0.1-0.8h-0.7c-0.9,0.5-1.9,0.9-2.5,1.4
			c-0.3-0.1-0.2-0.6-0.6-0.4c-0.5,0.4-1.3,0.4-1.2,1.3l-0.6-0.5c-0.3,0.2-0.4,0.5-0.4,0.8l-0.6-0.4c-0.9,0.1,0,0.8-0.4,1.3
			c-0.9,0.4-0.4-0.8-0.8-1l-0.7,0.6c-1.9-0.1-3.1,1.6-5.2,1.2c-0.7,0-0.3,1.1-1.1,0.9l0.5,0.1c-0.3,0.3-1.5,0.4-2.1,0.5
			c0.2-0.1,0.2-0.3,0.3-0.4h-0.4c-0.1,0.3,0.1,0.4,0.2,0.5c-0.3,0.2-0.7,0.7-0.9,0.6l-0.2-0.7c-0.5,0,0.1,0.6-0.4,0.7
			c-1.2-0.7-1.7,1.3-2.5,0.5c-0.7,1.8,0.5,4.3,0.3,6.1c-1.4,1.2,1.3,1.1,0.3,2.2c0.8,0.9,0.3,3.1,2,3c0.4-0.5,1-0.4,0.9-1.2
			c0.4-0.9,1,0.2,1.5-0.1V219c2,0.1,3.2-1.7,5.2-1.4c3.9-2,7.8-3.3,11.8-5c0.2-0.6,0.8-0.7,1.2-0.6c3.4-1.5,6.6-2,9.7-3.8
			c1.4-0.7,3,0,4.3-1.3c1,0.1,1.6-1,2.5-0.7c2.9-1.1,6-2,8.8-3.2c1.5,0,3.3-1.5,4.8-1.2c1.2-1.1,3.3-1,4.6-1.7
			c1-1.3,2.9-0.3,4.1-1.3c1,0.5,1.8-1.1,2.6-0.3c0.6,0.1,0.2,0.7,0.2,1c1,0.4-0.4,2.4,1.2,2.7c-0.8,1.4,0.6,2.6,0.5,4.3
			c1.4,1.4-0.1,3.6,1.7,4.8c-1.2,1.3,0.6,2.3,0.6,3.3c1.5,1.6,0.9,4.2,2.5,5.7c-0.4,0.6,0.7,0.7,0.4,1.2l0.7,0.6
			c-0.2,1,1.2,1.2,0.7,2.1h0.2c0.2,0,0.5,0.4,0.2,0.7c0.4,0.5,1.1,1,1.8,0.7c1.5,0.3-0.4,0.5-0.3,1.2c0.2,1.1,1.8,0.6,1.9,1.7
			c1-0.5-0.5-1.2-0.4-1.9c-0.6-0.7,0-1.9-1-2.3c0.1-1.3-0.9-2.1-1.2-3c-0.8-0.1,0-1.2-0.8-1.5c0-2.6-1.7-4.8-2-7.4
			c-0.7-1-0.7-2-1.4-3c0.3-2.3-1.4-3.9-1.3-6.3c-1-1.8,0.3-3.8-0.7-5.6c0.9-0.4,1.7-1.1,2.8-0.8c1.6-1.1,3.8-1.5,5.8-2.1
			c1.3-0.1,2.6-1.1,4.1-1.1c1.4-1.6,3.5-0.6,5.1-1.6c1-0.7,2.2-0.2,3-0.8c1-0.8,2.4,0.6,3-1l0.2,0.6c0.3,0,0.3-0.5,0.6-0.7
			c1.2,0.7,2.1-0.4,3.2-0.5c0.8,0.1,1.6-0.7,2.3-0.6c1.1-0.2,2.1-0.4,3-1.2c1.5,0.1,2.4-0.5,3.7-0.7c1.5,0.1,3-0.6,4.5-0.6v0.6h0.3
			c0.3-0.2,0.6-0.4,0.5-0.9c0.3-1,1.2-0.3,1.6-0.7c1.6-0.2,3.6-1,5-0.7c2.2-1.4,4.3-1.4,7.1-1.7c5.4-1.4,10.2-2.5,15.6-3.8
			c1.4,0.2,2.6-0.2,4,0v-0.2c2.9-0.8,6.1-0.8,8.8-1.8c0.4,0,1.1,0.4,1.3-0.3c3.7-0.6,7.6-1.1,11.3-1.4c0.3-0.9,1.2,0,1.6-0.6
			c1.2,0.1,2.7-0.1,4-0.5c0.4,2.4,0.7,5.5,0.2,8.2c0,0.5-0.1,1.2,0.6,1v-8.7l0.5-0.5c2.4-0.6,5.7-0.8,7.9-1.2
			c4.6-1.2,9.1-0.8,13.5-1.9c1,0.6,2.1-0.3,3.2-0.2c0.4,0.2,0.7,0.2,1.1-0.1c3.1-0.2,5.9-0.5,8.8-1.2c0.9,0.6,1.6-0.2,2.3-0.3
			c3.7,0.4,6.5-0.5,9.9-1l0.2,0.2c0.3,0.4,0.4,0.8,0.1,1.2c0.5,2.8,0,6.3,0.5,8.9c-0.3,2.8-0.3,6.3,0,9.3c0.3,0.3,0.6,0.1,0.8-0.2
			l0.3-19.2c3.9-0.4,8.4-0.7,12.3-1c1.9-0.5,3.4,0.1,5.3-0.5c7-0.5,14.7-0.5,21.2-0.8c0.4-0.2,0.9-0.6,1.4-0.3c0.2,2,0.2,4.3,0,6.4
			c0.2,0.1,0.3,0.4,0.6,0.4c0.5-2.2,0-4.5,0.5-6.8l6.5-0.3c1.3,0.6,2.5-0.2,3.8-0.3c0.7,0,1.2,1,1.8,0.3c0.5,0.7,1.3-0.2,1.8-0.3
			c1.4,0,2.8,1.1,3.9,0c0.9,0.7,2.3-0.3,3.3,0.5c2.3-0.8,4,0.3,6.4,0c0.7,0,1.5-1,1.6,0.1l0.5-0.6l0.2,0.3c0.4,0.2,0.9,0.2,1-0.3
			c0.8,1.2,1.6-0.2,2.6,0.8c1.1-1.4,2.3,0.5,3.4-0.3c1.1,1.2,1.3-1.2,2.4,0.3c1-1.1,2.3,0.1,3.5-0.2v-0.2c0.7-0.3,1.1,0.5,1.7,0.6
			l0.3-0.6c1,1.2,1.8-1,2.9,0.1c0.4,3,0,6.1,0.3,9.4l0.4,1.1c0.5-3,0.2-6.7,0.2-10c0.7-0.3,1.4-0.2,1.9-0.4c0.3-0.5,0.7,0,0.9,0.3
			c0.8-0.3,1.2,0.5,1.7-0.3c0.4,1.2,1.2-0.3,1.7,0.4c0,0-0.1,0.1-0.2,0.1v0.2c0.5,0,0.8,0,1.4-0.1c0.8,0.4,1.7-0.6,2.1,0
			c0.6,0.1,1.1,0.4,1.4-0.2c0.7,1.1,1.7-0.5,2.8-0.1c0.8,0.3,1.7,1.2,2.5,0.3c0.3-0.1,0.5,0.1,0.4,0.4l0.9-0.5l0.3,0.6
			c0.9,0,1.4-0.4,2.2-0.6l0.2,0.5c0-0.1,0-0.3,0.1-0.4c0.3,0.1,0.6-0.1,0.8,0.1l-0.5,0.5c0.9-0.2,1.7,0.1,2.5-0.5l0.4,0.8
			c0.5,0,0.5-0.5,0.6-0.8c2.7,0,6.2,0.5,8.4,0.5c0.3,0,0.6,0.3,0.7,0.6c0.3,0,0.5-0.3,0.7-0.3c1.2-0.2,2.6-0.5,3.9,0.3
			c2-0.8,4.2,0.3,6.3,0.3c2.3,0.6,5.1-0.3,7.1,0.7c1-0.8,1.7,0.6,2.7,0.1c0.3,0.9,0.8-0.1,1.3,0c5.4,1.1,12.1,0.7,17.6,2.2
			c4.4,0.2,8.7,1.1,13.2,1.4c4.4,0.4,8.8,1.5,13.3,1.9c1.4,0.4,2.8,0.1,4.1,0.7c1.1-0.3,3,1.1,3.5-0.3l0.4,0.8
			c0.3-0.1,0.8,0.3,1-0.2c0.4,0.1,1.3,0.1,1.2,0.8c1.2,0.4-0.2-0.9,0.9-0.7c0.3,0,0.3,0.4,0.3,0.5c0.5-0.1,1,0,1.3,0.7
			c0.5-0.1,1-0.1,1.6-0.5l0.1,0.7c0.3-0.4,1.3,0.2,1.2-0.7h-0.1C590.9,176.4,590.8,176.1,590.8,175.8 M459.2,130.4
			c0.4,0.2,1-0.1,1,0.5h-1.1L459.2,130.4z M450,131.3l0.4,0.6c0.4-1.1,1.4,1.1,1.9-0.4l0.3,0.6c0.2-0.2,0.6-0.5,1.3-0.6
			c-0.1,0.3,0.2,0.4,0.4,0.6c0.6-0.8,1.8,0.1,2.4-0.3c1.8,0.5,4.1,0,5.9,0.5c0.9-0.1,2,0,2.8,0.4c1.2-0.2,2.6,0.1,3.3,0.4
			c-0.3,0.1-0.4,0.4-0.3,0.7c-3,0.6-5.3-0.7-8.1-0.4c-3.2-0.5-6.9-0.9-10.2-1C449.9,131.9,449.5,131.7,450,131.3 M449.4,131.8
			l-0.1,0.7c-0.3-0.8-1.1,0-1.7-0.2C448.2,132.1,448.7,131.6,449.4,131.8 M445.8,132l0.8,0.1C446.4,132.3,445.5,132.4,445.8,132
			 M444.3,130.8l0.4,0.5c-0.3,0-0.4,0.5-0.8,0.4L444.3,130.8z M443.3,131.1v0.3l-1.2-0.2C442.4,130.9,443,130.9,443.3,131.1
			 M431.1,101.5l-0.6,0.4c-0.8-0.5-1.7-0.2-2.6-0.6C429.2,101,429.9,101.8,431.1,101.5 M426.9,101.2v0.2c-0.2-0.1-1.1-0.5-1.3,0.1
			l-0.2-0.6L426.9,101.2z M424.9,101c-0.5-0.3-2,0.4-2.1-0.6C423.5,100.6,424.5,100.5,424.9,101 M414.9,99.5L414.9,99.5h-0.2H414.9z
			 M410.3,98.6l0.5,0.1C411.1,98.7,410.1,99.4,410.3,98.6 M408.7,98.6l-0.9-0.2C407.9,98.2,408.7,97.9,408.7,98.6 M402.9,97.4
			c0,0.2,0,0.5-0.2,0.5l-0.5-0.4L402.9,97.4z M353.1,77.6l-1-0.2C352.5,77,352.8,77.5,353.1,77.6 M331.7,70.4h0.5v0.4h-0.5V70.4z
			 M329.5,69.8L329.5,69.8C329.6,69.9,329.5,69.9,329.5,69.8l-0.7-0.5C329.3,68.6,329.3,69.5,329.5,69.8 M326.1,68.5
			c-0.2,0-0.8-0.3-1-0.5C325.5,68.2,325.9,68.1,326.1,68.5 M324.3,67.9L324.3,67.9l-1-0.1C323.6,67.5,323.9,68.1,324.3,67.9
			 M322.5,65.6c0.1,0.3-0.6,0.2-0.8,0.4l-0.2-0.1C321.7,65.6,322.1,65.6,322.5,65.6 M317.6,65.6L317.6,65.6l-0.5-0.2
			C317.3,65.5,317.5,65.4,317.6,65.6 M312.6,63.8V64c-0.1-0.4-0.7-0.4-0.9-0.7C312.1,63.3,312.6,63.3,312.6,63.8 M307.9,61.9v0.3
			l-0.4-0.3H307.9z M306.2,60.6V61l-1.6-0.4C305.1,60.2,305.6,61.3,306.2,60.6 M293.5,54.9c0.2-0.1,0.3,0.1,0.3,0.2v0.2
			C293.7,55.5,293.2,55.1,293.5,54.9 M343.5,21.8c0.2,0,0.3,0.2,0.5,0.3v0.1C343.7,22.2,343.4,22.2,343.5,21.8 M342.1,23l0.8,0.2
			C342.7,23.2,341.9,23.3,342.1,23 M339.7,24c0.1,0,0.3,0,0.4,0.1c0,0.3-0.3,0.4-0.4,0.5V24z M338.5,23.9c-0.2,0.5-0.7,0.3-1,0.6
			C337.5,24.2,338.1,23.6,338.5,23.9 M337.2,24.3c-0.3,0.7-0.7,0.3-1.4,0.4C336.1,24.4,336.6,24.1,337.2,24.3 M323.5,30.6h0.3
			l-0.6,0.7L323.5,30.6z M318.6,32.3c0,0.2-0.2,0.2-0.4,0.2C318.2,32.4,318.4,32.3,318.6,32.3 M314.3,34.2c0.1,0,0.3,0,0.4,0.1
			c0,0.2,0,0.3-0.1,0.4C314.4,34.6,314,34.4,314.3,34.2 M301.9,41.8c0.1,0.1-0.1,0.2-0.2,0.3h-0.4C301.3,41.9,301.5,41.7,301.9,41.8
			 M439.7,16.5l0.1,0.2l-0.3,0.3L439.7,16.5z M411.3,11.4h0.6l-0.7,1L411.3,11.4z M396.3,9.8l-0.4,1h-1.1c0.7-0.5-0.4-0.7-0.3-1
			H396.3z M390.4,10.3l-0.1,0.9c0.7-0.3,1.4-0.6,2.4-0.3l1.4-0.1c-1,0.5-2.8-0.2-3.5,1.1l-1.2-0.6L390.4,10.3z M389.1,10.7
			c-0.4,0.6-1.4-0.3-1.4,0.7l-0.3-1L389.1,10.7z M386.3,10.6c-0.3,0.2-1.1-0.2-0.9,0.6h0.7c-0.1,0.2,0.2,0.3,0.3,0.4
			c-0.6,0.7-1.2-0.2-1.6-0.3c0.1-0.2,0.1-0.4,0.1-0.6c-0.1-0.2-0.3-0.1-0.5-0.1C384.9,10.1,385.8,10.4,386.3,10.6 M379.2,11.5
			L379.2,11.5l-0.3,0.1C378.9,11.4,379.2,11.3,379.2,11.5 M375.9,10.8c0.1,0.2-0.1,0.2-0.2,0.4l-0.3-0.2
			C375.1,10.9,375.7,10.5,375.9,10.8 M370.7,11.9c0.2,0.7-0.8,0.6-1.2,1C369.3,12.5,369.9,11.6,370.7,11.9 M363.4,13.1L363.4,13.1
			H363H363.4z M358.2,13.1c-1,0.3-1.7,0.9-2.7,0.9C356.3,13.8,357,12.8,358.2,13.1 M354,13.4c0,0.3-0.3,0.3-0.6,0.3
			C353.6,13.6,353.7,13.2,354,13.4 M352.4,14.3l1.3,0.1c-0.3,0.3-0.8,0.5-1.3,0.4V14.3z M351,14.7l0.4,0.2l-0.6,0.4L351,14.7z
			 M350,15.3l-0.9,0.5C349.1,15.4,349.7,15,350,15.3 M341.9,17.2c0.4-0.3,0.6,0.3,1,0.3h-1.1L341.9,17.2z M335.5,19.2
			c-0.2,0.4-0.7,0.5-1.1,0.6C334.5,19.4,334.9,19,335.5,19.2 M334,19.8h0.2l-0.2,0.3V19.8z M332,20.4c0.1,0.2-0.1,0.2-0.2,0.3
			l-0.4-0.3H332z M330.6,20.7c0.2,0,0.1,0.3,0.1,0.5c-0.1,0-0.3,0.1-0.3-0.1L330.6,20.7z M325.1,23.5l-0.1,0.4l-0.5-0.4H325.1z
			 M318.2,26.4c0.3-0.3,0.8-0.8,1.3-0.7C319.3,26.3,318.7,26.1,318.2,26.4c-0.1,0.1-0.2,0.2-0.3,0.3C318,26.5,318.1,26.5,318.2,26.4
			 M261.3,42.1L261.3,42.1l0.9,0.1L261.3,42.1z M261.4,40.1c0.2,0.4,1.2,0.2,1.3,0.8C262.4,40.1,260.8,41.4,261.4,40.1 M266.8,44.4
			L266.8,44.4L266.8,44.4L266.8,44.4z M267.1,42.2l-0.8-0.7c0.3-0.1,0.8,0.2,0.8,0.5V42.2z M267.3,44.7c0.8,0.1,1.4,0.9,2.3,0.6
			l0.5,0.5C269.3,45.9,268,45.3,267.3,44.7 M253.5,51.2V51c0.4-0.2,0.6,0.2,0.9,0.3L253.5,51.2z M258.6,53.4l-0.6-0.5
			c0.2,0,0.5,0,0.6,0.3V53.4z M251,68.5h0.4C251.6,68.6,251.1,68.8,251,68.5 M169.3,203.6h-0.4c0.2-0.1,0.4-0.3,0.6-0.4
			C169.5,203.5,169.5,203.6,169.3,203.6 M190.8,196.3c0.2,0,0.5-0.6,0.9-0.4C191.5,196.2,191.2,196.4,190.8,196.3 M192.7,196.2
			L192.7,196.2c0-0.7,0.7-0.8,1.1-1L192.7,196.2z M197.1,194.7l-0.5-0.2c-0.2-0.2,0.3-0.4,0.5-0.2V194.7z M198.9,194.2L198.9,194.2
			l0.2-0.5C199.4,193.8,199,194.1,198.9,194.2 M201.8,193.1v-0.3c0.3,0.3,0.9,0,1.2,0.2C202.6,193.2,202.1,193.1,201.8,193.1
			 M216,189.2l0.3-0.3l0.2,0.2L216,189.2z M174.5,208.5l0.1-0.3l0.1,0.1L174.5,208.5z M175.9,208.2c-0.1,0.1-0.2-0.1-0.3-0.2
			c0.2,0,0.2-0.2,0.5-0.2C176.1,208,176.1,208.1,175.9,208.2 M177.8,207.2h-0.3c-0.2-0.1,0-0.3,0.3-0.2V207.2z M178.3,207.1
			c-0.1-0.1,0.1-0.3,0.3-0.2C179,207.1,178.5,207.1,178.3,207.1 M181.6,206.6l0.2-0.5l0.1,0.4C181.8,206.6,181.8,206.6,181.6,206.6
			 M182.6,205.8c-0.3,0.1-0.3-0.3-0.4-0.4c0.1,0,0.3-0.3,0.4,0V205.8z M184.2,206.1H184l0.1-1.4c0.2,0.3,0.8-0.2,0.8,0.5
			C185.1,205.8,184.4,205.8,184.2,206.1 M185.7,205v-0.3c0.1,0,0.3,0,0.5,0.2C186.1,205.1,185.8,205,185.7,205 M191.9,203.2
			c-0.5-0.3-0.1-0.6-0.2-0.8c0.2-0.1,0.3,0.1,0.4,0.2C192.2,202.8,191.9,203,191.9,203.2 M196.9,200.5c0.7,0.6,1.7-0.6,2,0.6
			C198.4,201.3,196.9,201.4,196.9,200.5 M201.5,200.1c0-0.4,0.7-0.8,1.2-1c0.4,0,0.5,0.9,1.2,0.6
			C203.1,200.1,202.1,200.6,201.5,200.1 M207.6,198.5c0.1-0.6,0.9-0.7,1.2-0.2C208.4,198.4,208,198.6,207.6,198.5 M210,198.2
			c0.3,0.1,0.7,0.2,1,0.5C210.7,198.8,209.8,198.8,210,198.2 M211.3,197.1l0.4-0.3l0.2,0.2C211.9,197.2,211.5,197.1,211.3,197.1
			 M212.4,197.5c0.2-0.1,0.9,0.2,1.1-0.4l-0.3-0.4c0.8-0.4,0.6,0.7,0.8,0.7C213.3,197.9,213.1,197.7,212.4,197.5 M217.1,195.9
			l0.3,0.3c-0.6,0.1-1.2-1.4-1.9-0.5l0.4,0.6c-0.6-0.5-1.3,0.5-1.9,0c1.3,0,1.2-1.7,2.7-1.1c0.1-0.2,0.4-0.3,0.3-0.6
			c0.4,0.7,1,0,1.4-0.2c0,0.4,0.1,0.9,0.4,1.1C218.2,195.8,217.2,195,217.1,195.9 M220,195.3l-0.8-1.1l0.1-0.1
			c0.5-0.1,0.5,1.1,0.9,0.4c0.1-0.3,0.5-0.3,0.7-0.2C221.6,195.3,220.2,194.9,220,195.3 M224.2,194.2c-0.9-0.9-1.4,0.6-2.3-0.1
			c0.5-0.4,1-0.3,1.5-0.7c0.7,1,1.3-1,1.6,0.3C224.7,193.9,224.4,193.9,224.2,194.2 M226.7,193.5c0.3-0.4,1-0.3,1.4-0.5
			C227.9,193.7,227,193.2,226.7,193.5 M229.4,192.6v-0.3h0.4C229.9,192.6,229.5,192.5,229.4,192.6 M357.3,88.2
			c-0.1,0.3,0.1,1.2,0.7,1.1c0.8-0.5,1,0.3,1.6,0.3c0.2-0.1,0.1-0.4,0.1-0.6c1.6,1.3,3.7,0.4,5.3,1.5c1.1-0.5,1.5,1.1,2.6,0.1
			c1.4,0.7,2.8,2.1,4.3,1.4c1.8,0.7,4.2,1,6.1,1.4c0.4,1.1-0.2,2.6,0.3,3.8c-0.4,5.2-0.1,10.8-0.2,16.2c-1.2-1.3-1.3-3.5-2.4-4.7
			c0.3-1-0.8-1.3-0.5-2.1c-0.7-1.6-2.8-2.7-3.3-4.5c-0.7-0.3-0.7-0.9-1-1.4c-1.1-0.8-1.4-2.2-2.8-2.7c-0.5-1-1.5-1.7-2.4-2.3
			c0.1-0.7-1.5-1-1.7-1.9c-0.3-0.9-1.9,0.1-1.6-1.4c-2.1-0.8-3.9-2.5-6.1-3.8C356.3,88,357,88.3,357.3,88.2 M354.9,87.8l0.2,0.2
			l-0.4-0.3L354.9,87.8z M323.7,78.5c0.3,0,0.6,0,0.9,0.2L323.7,78.5c-0.6-0.1-1.3-0.1-1.6-0.4L323.7,78.5z M320.9,77.6
			c-0.2,0.5-1.1-0.3-1.2-0.4L320.9,77.6z M317,76.3l0.1,0.2l-0.5-0.2H317z M316.1,76.1c-2.4-0.6-4.8-1-7.1-2.2
			C311.5,74.5,313.7,75.3,316.1,76.1 M306.9,73l0.3,0.2l-0.5-0.3L306.9,73z M304.6,72l-0.4-0.1c-0.4,0-1.1,0.1-1.3-0.4l1.3,0.4
			C304.4,71.9,304.6,71.9,304.6,72 M278.2,54.6c1.6-0.4,1.9-2.2,3.9-1.8c0.6,0.3,1,1.1,1.8,0.9c0.7,0.6-0.4,1.3-0.8,1.4
			c-2.3,1.6-3.8,4-5.8,5.3c-1.1-0.5-2.4-0.5-3.1-1.3C275.5,58,277.2,56.5,278.2,54.6 M276.7,64l-0.4,0.2l-0.2-0.3
			C276.3,63.9,276.5,63.8,276.7,64 M246.4,93c0,0.1,0,0.3-0.1,0.4H246C246,93.2,246.2,93,246.4,93 M240.6,105.4v0.6h-0.1
			L240.6,105.4z M239.6,116.5c0.3-1.7,1.2-3.2,1.3-4.8c1.4-2.1,1.8-4.7,3.2-6.9c-0.6-1.9,2.1-2.1,1.6-3.9c0.2-1.3,1.4-2,1.4-3.4
			c0.5-1.4,1.5-2.6,1.9-4c0.5-0.6,0.8-1.3,1.3-1.9c0.2-1.3,1.6-1.8,1.5-3.2c0.9-1.4,1.9-2.8,2.6-4.3c1.7-1,1.4-3.3,3.1-4.3
			c1.8-1.7,2.5-4.5,4.6-6.3c0.4-1.4,1.6-2.5,2.6-3.8c1.8-1.5,2.5-4.2,4.7-5.4c1.4-0.8,1.8-4.4,4.1-2.2c0.6,0.1,0.9,0.3,1.5,0.6
			c-1.4,2.2-3.8,4-5.4,6.3c-1.4,2-3.5,3.4-4.2,5.8c-1.5,1-1.8,2.9-3.2,3.8c0.2,1-1.2,1.2-1.3,2c-0.8,1.4-1.6,2.8-2.7,3.9
			c-0.2,0.9-0.7,1.4-1.3,2.1c-0.9,1.4-1.3,3.4-2.7,4.3c0.2,0.9-0.5,1.4-1.1,1.9c-1.5,3.3-2.9,6.7-4.9,9.9c-1.2,4-3.4,7.5-4.5,11.6
			l-1.8,5.5c-1.1,0.4-2.3,0.1-3.6,0.2C238.4,118.8,239.3,117.8,239.6,116.5 M275.7,122.4c1.4,0.5-0.3,1.4-0.1,2.2
			c-0.7,0.2-1.5,0-2.2-0.1c-1,0.7-1.7-0.4-2.5,0.5c-1-0.9-1.8,0.6-2.7-0.3c-0.6,0.8-1.1-0.6-1.5,0c-2.5-0.3-4,0.3-6.3-0.2
			c-0.3,0.3-0.7,0.7-1,0.2l-0.1-0.1l-0.6,0.5c-5.1-0.5-10.5,0-15.7,0c-0.8-0.4-0.5-1-0.5-1.5c1-0.7,0.3-3.4,2.2-2.2l0.6-0.2
			c6.9-0.1,13,1,19.3,0.7c0.5,0.1,0.9,0.8,1.2,0.2C269.1,122.7,272.7,121.7,275.7,122.4 M271.6,121l0.2-0.5c0.1,0.1,0.4,0.3,0.1,0.5
			H271.6z M237.9,121.2h3.5c-0.1,1.4-0.6,2.9-1.4,4c-1.1,0-1.9-0.2-3.1-0.1C236.8,123.6,237.6,122.5,237.9,121.2 M234.9,122.7
			c0.2,0.1,0,0.3,0.1,0.5l-0.9,0.2C233.9,122.7,234.8,123.3,234.9,122.7 M233,183.5c-0.3-0.8-0.2-1.7-0.9-2.4
			c0.7-0.9-0.2-2.2-0.1-3.3c0.1,0.1,0.1,0,0.2-0.1c0.1-0.4-0.4-0.4-0.5-0.6c0.5-0.8-0.1-1.5,0.1-2.2c1.1-0.8-1-1,0.2-1.7
			c-0.2-0.2-0.7-0.3-0.7-0.7c-0.2-0.6,1-0.6,0-1v-15.3c1-3.8,0.5-7.8,1.4-11.5c0.7-5.6,2.1-11.2,3.5-16.6c1-0.3,2.2,0.3,3.1-0.1
			c-1.3,3.2-2,7.1-2.6,10.2c0.4,0.6-0.3,1.1-0.3,1.5c-1,1.7-0.3,3.9-0.9,5.7c0.2,0.4-0.1,1.3,0.2,1.7c-0.9,0.8,0.4,1.4,0,2.2
			l0.4,0.4c1.4-1.7,0.7-3.8,1.1-5.9c1.2-2.4,0.9-5.7,2-8.2c0.6-1,0.1-2.4,0.9-3.3c-0.6-1.3,1.4-1.8,0.6-3c0.5-0.8,0.7-2,1.9-1.9
			c0.9,0.8,1.9,0.1,3.1,0.3c1,0.2,2-0.9,3-0.1c3.4-0.6,7.3,0.1,10.4-0.4v0.2c1-0.3,1.7,0.3,2.6-0.7c0.6-0.3,1.3,1,1.7,0
			c0.4,0.5,1.3,0.5,1.7,0.1c0.4-0.6,1,0.3,1.4-0.3c1.6,0.1,2.4-0.2,4,0.1c1.3,0.2,2.4-0.4,3.6,0.1l1.3-0.2c0.3,0.9,0.5,2,0.3,2.9
			c1.6,1.7-0.4,3.9,0.7,5.7c-0.2,0.7-0.7,2,0,2.2c-0.6,1.2-0.3,2.9-0.4,3.9c-0.1,0.9-0.2,2-0.3,3.2c0.6,0.9-0.8,1.9,0.2,2.8
			c-0.2,0-0.3,0.2-0.5,0.3c1.3,0.5-0.1,1.1,0.5,1.7c0.2,1.8-0.3,3.8-0.5,5.5c0.6,0.4-0.1,1,0.6,1.2c-0.8,0.5,0.2,1.7-0.4,2.5
			c0.6,0.4-0.4,1.1,0.4,1.2c-1,0.2,0,1.4-0.7,1.6c1.3,1.4-0.5,2.7,0.3,4.1c-1.1,1.1,0.9,1.3,0.1,2.2c-0.5,1.4,1.4,2.9,0.2,4.3
			c0.9,0,0.3,0.7,0.5,1c-1.2,0.5,0.2,1.8-1.5,1.8c-6.5,1.3-13.4,2.1-19.6,4.1c-2.9-0.2-5.7,1.3-8.7,1.5c-2.8,1-6.2,0.8-8.5,2.4
			c-1.2-0.6-2.6,0.5-4,0.5C233.7,183.5,233.3,183.5,233,183.5 M269.1,176.9l-0.7,0.4l0.5-0.4H269.1z M255.9,179.5l-0.2,0.5l-0.4-0.5
			H255.9z M251.4,187.4l-0.2-0.1l0.4-0.2L251.4,187.4z M275.5,181.2c-0.4-0.2-1.2-0.7-1.4,0l-0.2,0.3l0.5,0.6
			c-0.9-0.7-1.6,1.3-2.1-0.3c-0.6,0.6-1.1,0.4-1.6,0.8c-0.1,0.1-0.2,0.1-0.3,0.2c0.1-0.1,0.2-0.2,0.3-0.2c0.1-0.1,0.1-0.3,0.1-0.4
			l-0.4-0.4c-0.4,1.7-3-0.6-3.3,1.5c-0.9,0.2-1.6-0.1-2.3,0.2c0,1.4-1.4-0.2-1.4,1c-1,0.4-2.1-0.3-2.5,0.8l-0.5-0.7
			c-0.3,0.5-1.2,0.3-1,1c-0.8-0.4-1.6,0-2.5,0.2l-0.4,0.7c0.1-0.4-0.5-0.7-1-0.9c-0.6,0.7-2.6,0-3.5,1.1c-0.5-0.4-1.3,0.1-1.7,0.1
			l0.6,0.7c-0.2,0.5-0.7,0.3-1.1,0.3c-0.5-0.2-1.4-1.6-1.8-0.5h-0.6c0-0.2,0.1-0.5-0.1-0.6c-0.8,0.1-1.4,0.6-0.9,1.1
			c-0.6,0.5-1.5,0.3-2,1l0.1-1c0.1,0,0.3,0,0.3-0.2c-0.4-0.5-1.4,0.2-1.9,0.3c-0.6,0.4-0.2,0.8,0.1,1.2c-1.1,0.5-1.5,1.1-2.9,0.8
			c-0.2-0.3-0.1-0.8-0.5-0.9c-0.9-0.5-0.6,0.7-1.2,0.7v-1h-0.6l-0.1,0.9c-0.3,0-0.6-0.1-0.7,0.1v0.2c-0.5-0.2-1.2-0.2-1.4,0.5
			c0.3,0.6,0.7,0.2,1.1,0.1c-0.1,0.4,0.1,0.6,0.4,0.8c-0.4-0.3-2.6,0.7-2.4-1c-0.3-0.3-0.5-0.7-0.9-0.6c0,0.1,0,0.1-0.1,0.1
			c0.1,0,0.1-0.1,0.1-0.1c0.2-0.1,0.3-0.2,0.5-0.4c-1.1-0.2-0.3-1.6-1.2-1.9c0.2-0.1,0.4-0.3,0.4-0.5c-0.6-0.5-0.2-1.3,0-1.7v-0.1
			c0.3,0.5,1,0.3,1.4-0.3c1.4-0.3,2.9-0.4,4.3-1.3c1.3,0.7,2.4-0.1,3.6-0.5l-0.6-0.7c0.4,0.6,1.2-0.1,1.4,0c0.1,0.2,0,0.4,0.2,0.6
			c0.6,0,0.5-0.9,1.2-0.9c0.9,0.4,2,0.3,3,0.2c0.1-0.3,0.4-0.6,0-0.8c-0.1-0.1-0.2-0.1-0.4-0.1c0.2-0.2,0.4-0.1,0.6-0.1
			c-0.1,0.2,0.2,0.3,0.3,0.5c0.8-0.1,0.5-1.1,1.4-0.7c0,0.2-0.4,0.4-0.1,0.6c1-0.2,2.4,0.1,3.2-1l-0.3-0.2c0.1-0.4,0.7-0.2,1-0.3
			c0.2,0.1,0.3,0.5,0.6,0.4c0.2-0.3,0.1-0.5,0.5-0.9h0.2c-0.2,0.5-0.5,0.7-0.5,1.1c0.2,0.2,0.6,0.1,0.9,0.1c1.2-0.7,3.2-0.7,4.6-1.4
			l-0.9-0.6l3.1-0.5c-0.1,0.3-0.3,0.5-0.2,0.8c0.7-1,1.7,0.5,2.5-0.7l-0.5-0.5c1-0.6,1.7,0.7,2.5,0.2c0.8,0.9,0.9-1.7,1.4-0.2
			c0.6-0.1,1.5,0.2,1.5-0.7c0.1,0.1,0.2,0.3,0.4,0.3c0.3-0.3-0.3-1.2,0.6-1c0.4,0.2-0.1,0.4,0.2,0.6c0.4-0.1,1.4,0,1.1-0.8
			c1.2,1.3,2.4-1,3.2,0.2h1.4c0.1,0.4-0.2,0.9,0.2,1.1C275.8,178.6,276.5,180.1,275.5,181.2 M276.3,73.9c0.6,1.3-0.6,2.8,0.5,3.8
			c-0.4,1.6-0.9,3.8,0,5.7c-0.6,3.1,0,6.6,0,9.8l-0.7,1.1c0.7,0.8,0,1.8,0.4,2.9c-0.8,0.5-0.1,1.1,0.3,1.4c-0.5-0.1-0.5,0.6-0.5,0.8
			c1.2,1-1.2,1.6,0.2,2.3c0.4,0.8,0,1.6-0.2,2.3c0.5,0.6-0.2,1.1,0,1.5c-1.1,0.6,0,1.1,0,1.7l-0.5,2.3l0.7,0.1
			c0.2,0.5-0.4,0.9,0.2,1.3l-1,0.9c1.5,0.6-0.4,1.7,0.6,2.7c-0.9,1.2,0.9,2.6-0.6,3.6c0.9,0.5,0.4,1.2,0.4,2l-0.4,0.3
			c-2,0.2-3.9-0.3-5.5,0l0.3,0.4c-0.5,0.2-1.1,0.7-1.7,0.5c-0.3-0.3,0.4-0.8-0.2-1.1c-0.4-0.1-0.5,0.5-0.9,0.5l0.6,0.3
			c-0.8-0.3-1.5,0.9-2.1-0.1c0-0.2,0.2-0.2,0.1-0.5l-0.1-0.1c-0.8,1.1-2.5,0.4-3.8,0.6l0.5-0.7l-1.1,0.1v0.6h-0.8l0.6-0.7
			c-0.4-0.4-0.7,0.3-1.1-0.1c-0.2,1.4-2.5,0.7-3.6,0.6c-0.8-0.4-1.2-0.1-1.6,0v0.2c-0.7-0.2-1.4-0.3-2-0.3l-0.4-0.5
			c0,0.6-0.5,0.6-1,0.6c-0.5-0.2,0.3-0.7-0.4-0.6l-0.1,0.5c0-0.2,0.1-0.4-0.1-0.5c-0.8,0.6-2.2,0.3-3.3,0.2c0-0.5-0.5,0-0.6-0.2
			c-0.4,0.1-0.3,0.5-1,0.3v-0.6l-1.2,0.5v-0.3c-0.6-0.5-1,0.7-1.7,0.2c0.9-1.4,1.4-2.6,1.4-4.1c0.6,0,0.6-0.7,0.9-1.1
			c0.1-0.8,0.4-1.7,0.7-2.6c1.3-1.6,1-3.6,2.5-5.2c0.5-2.1,1.5-4.2,2.3-6.2c0.4-1.1,1.6-2.1,1.5-3.6c1-0.1,0.2-1,0.4-1.4
			c0.6,0.2,0.6-0.4,0.8-0.7l-0.2-0.7c-0.1-0.4,0.3,0.4,0.6,0.1c0.6-0.3,0.9-0.8,0.7-1.5c0.6,0,0.7-0.8,1-1.3
			c-0.4-0.8,1.4-1.3,0.6-1.9c0.8-0.1,0-1.1,0.8-1.1c0.6-0.9,0.8-1.4,1.2-2.5c0.3-0.8,1.5-0.7,1.1-1.7c1-0.5,0.8-0.9,1.7-1.5
			l-0.3-0.5c2.4-1,1.8-4.1,3.9-5.5c0.3,0.2,0.6,0.3,1,0.2c0.1-0.6-0.6-1.2,0.1-1.8c1.6,0.8,1.1-1.3,2.1-1.6c-0.2-0.4-0.3-0.8,0-1.2
			h0.2v0.5c0.3,0.3,0.7,0,1-0.2c0.1-0.6-0.9-0.5-0.4-1.1l0.7,0.7c1.1-0.4-0.2-1.6,1.1-1.7c-0.7-0.9,0.5-1.1,0.9-1.5
			c0.6,0.4,1.1-0.4,1.4-0.8c0.1-0.4-0.8-0.7-0.1-1c0.3-0.6,1.4,0.4,1.2-0.6c-0.1-0.1-0.2-0.1-0.2-0.1h-0.4c0.1,0,0.3-0.1,0.4,0
			c0.7-0.1,1.3-0.5,1.7-1.2c-0.1-0.6-0.6,0.1-0.8-0.3c0.7-0.5,2.1,0.2,2-1.2c0.9-0.1,2.3-0.8,2.5,0.5c0.8-0.1,1.3,0.3,1.6,0.9
			c0.9-0.5,1.2,0.7,1.7,0.8c2.4-0.4,3.8,2,6,1.5c0.5,1.6,1.8-0.6,2.2,1.2c2,0,3.5,1.7,5.3,1.8c0.8,1,1.9-0.1,2.6,0.9
			c0.4-0.5,1.1,0.2,1.6,0.3c0.2,1.1,2.3,0.4,2.3,1.1c1,1.1,3.5,0.3,3.5,1.5c2.4,0.5,4.8,1.5,7.3,2.2l-0.1,0.1
			c0.5,0.5,1.9-0.2,2.3,1.1c0.8-0.4,1.4,1,2.1,0.4v0.2c0.9-0.1,2.3-0.1,2.9,0.9l1.9,0.2c-0.2,0.1-0.1,0.3-0.1,0.4
			c1.2,0,2.7,0.1,3.4,1l0.8,0.1c-1.9,0.8-4.7,0.7-6.9,1.3c-0.2,0.4-1.1,0.2-1.4,0.2c-1.9,0.9-4.5,0.7-6.1,2.2
			c-1.5-0.6-2.6,1-3.8,1.3c-1.1,0.8-2.6,0.6-3.5,1.6c-1.2,0.1-1.4,1.6-2.6,1.4c-0.4,0.3-0.6,0.9-1,0.6c-4.6,4.4-10.2,9.3-11.8,15.5
			c-0.7,0.9-1.1,2.1-1.5,3.3l-0.2-40.1c-0.2-0.4-0.8-0.3-1.1-0.1l-0.7,0.7c-0.1,9,0.2,18.5-0.2,26.6c0.7,0.6-0.4,1.1,0,1.8
			c0,2.1,0,4.1,0.2,6.1c-0.7,0.6,0.5,1.3-0.2,1.8c-0.1,1.2,0.3,2.7,0,3.9c0.1,0.6,0.4,1.4,0,1.9c-0.3,1.7,0.5,3.5-0.3,4.8
			c-0.5,1.1,1.3,1.7,0,2.5c1,1.2-0.5,2.4,0.4,3.2c-0.2,0.2-0.1,0.5-0.1,0.7c0.3,0.4-0.1,1,0,1.5c-0.1,0.5,0.3,0.8-0.3,1.1
			c-2.1-0.6-4.7,0.7-6.3-1.1c0.4-0.8,0.4-1.4,0.1-2.2c-0.7-0.3,0.3-0.7,0.3-1.2c-0.4-0.5-1.3-0.5-1-1.3c0.3-0.2,1.1-0.1,1-0.8
			l-0.6-1.2c0.1,0.1,0.3-0.2,0.2-0.2c0.1-0.3-0.3-0.6-0.5-0.6c0.4-0.4,0.9-0.8,0.9-1.3c-0.8-0.3-1-0.8-0.8-1.4
			c0.3-0.2,0.6-0.3,0.8-0.5c-0.1-0.4-0.6-0.8-1-0.8c1.3-0.4-0.5-1.8,0.7-2.7c0.1-0.7-0.1-1.4,0.3-2.1l-1-1.3l0.6-0.1
			c-0.5-1.1,0.5-2.7,0-4.1c1-0.6-0.5-1.2,0.4-1.6l-0.6-0.6c0.2-0.2,0.6-0.2,0.8-0.5l-0.8-0.7l0.8-0.7l-0.6-1.1
			c0.1-0.5,0.9-0.2,1-0.8c-0.3-0.7-0.7,0.1-1.1,0v-0.7h0.6c-0.5-0.7,1-1.6-0.2-1.7h-0.4h0.4c0.6-0.2-0.1-1.1,0.4-1.5l-0.5-0.6
			c0.3,0.1,0.5,0,0.6-0.2c-0.3-0.8-0.7-0.7-0.7-1.3c0.3-0.6,0.6-1.7,0.1-2.5c-0.3-0.2-0.8-1-0.2-1.2c0.1-0.3-0.4-0.4-0.4-0.7
			c0.3-0.3,0.8,0,1-0.4l-0.6-0.6c0.3-0.2,0.5-0.5,0.2-0.8c-1.2-0.6,1.4-1.2,0.2-1.8c0.9-0.6-0.6-1.3,0.4-1.9c0-0.6-0.9-0.2-0.7-0.9
			c0.3-0.1,0.9,0.2,1-0.3l-0.9-0.9c0.4-0.6,0.8-1.3,0.9-2l-0.6-0.5c0.2,0.1,0.4,0.3,0.6,0c0.7-0.8-1-1.8,0.1-2.4
			c0.7-2-0.4-3.8,0-5.9c-1.2-0.5,0.7-0.9-0.2-1.4c-1.7,0.2-1.3-2.7-3.2-1.7c-0.2,0.6-0.4,1.3-1,1.7C275.7,69,277.4,71.4,276.3,73.9
			 M316.5,88.9c0,0.5-0.5,0.2-0.7,0.2C315.6,88.6,316.3,88.8,316.5,88.9 M315.9,87.1c0-0.2,0-0.3,0.2-0.3v0.3H315.9z M314,87.4
			c-0.7,0.2-0.3-0.3-0.5-0.6h0.6C313.9,86.9,314,87.2,314,87.4 M308.4,90.2c-0.9,0.1-1.2-1-2.1-0.5v-0.2c1.7,0.5,0.5-1.5,2.1-1.3
			c0,0.9,1.1,1.1,1.7,1.3C309.5,90.1,308.3,88.7,308.4,90.2 M309.2,90.5L309.2,90.5H309C309.1,90.5,309.2,90.4,309.2,90.5
			 M308.8,91.3c-0.2,0-1.3,0.3-1.3-0.4L308.8,91.3z M309,87.9c0.5-0.6,1-1,1.7-1.1l0.1,1C309.9,86.9,309.9,88.3,309,87.9
			 M311.9,88.2c-0.1,0.3-0.6,0.7-1.1,0.6l-0.1-0.2C311,88.3,311.7,88.6,311.9,88.2 M309.6,90.5c1.4,0.5,1.2-1.6,2.7-1.2
			c-1.1,0.5-1.5,1.4-2.7,1.4V90.5z M311.8,87.3c0.6,0,1.1-0.4,1.5,0.1C312.8,88,312.2,87.3,311.8,87.3 M311.5,86.6
			c0.7-0.2,1.4-0.7,2.1-0.9v0.4C312.8,86.1,312.2,86.3,311.5,86.6 M303.4,90.8c0,0.2,0,0.3-0.1,0.4l-0.2-0.4H303.4z M293.2,144.4
			v0.2l-0.4-0.3C292.9,144.3,293.1,144.3,293.2,144.4 M292.7,148.3l-0.5-0.1l0.1-0.4L292.7,148.3z M291.7,141.5L291.7,141.5l0.1,0.5
			h-0.1V141.5z M291.2,158.1c-0.3,0.1-0.4,0.6-0.8,0.3l0.5-0.7C291,157.8,291.7,157.8,291.2,158.1 M277.4,168.1
			c0.7-1.2-0.1-2.4,1.4-3.3c-0.3-0.3-0.8-0.8-0.6-1.4c0.3,0,0.8,0.5,1.1-0.2l-0.3-1.5c-0.3-0.2-0.5,0.5-0.7,0.1v-0.3
			c0.5,0.5,0.6-0.4,0.9-0.7c0.8-1.2-1-2,0.2-3.3c-0.4-0.9-0.7-1.9,0-2.9c-0.6-3,0.2-6.2-0.2-9c0.6-0.6-0.2-1.4,0.2-1.9
			c-1-1.6,1.3-2.8-0.2-4.3c0.2-0.4,0.2-0.8,0-1.2c-0.3-1.4,1.5-2.8,0.2-4c-0.1-0.9,0.8-1.5-0.2-2.1c0.3-0.6,0.4-0.4,1-0.8
			c-1.2-0.9-0.5-2.4-0.2-3.5c0.9-0.3-0.1-0.8-0.1-1.2c0.8-0.6,2.1,0.5,2.9,0c0.8,0.3,1.1-0.6,1.6,0.1c0.8,0,2.1-0.2,1.9,1.2
			c-0.4,0.8-0.4,1.6,0.1,2.2c0.3,1.6-0.5,2.9,0,4.2c-0.2,0.9-0.5,1.8-0.1,2.6c-0.6,0.9,0.3,2.5-0.4,3.3c0,1.4,0,2.9,0.4,4.2
			c-0.7,0.7-0.1,2-0.1,2.9c-0.5,2.5-0.2,5.6,0.1,8.2c-0.5,3-0.1,5.1-0.4,8.2c-0.2,3.2,0.6,5,0.4,7.7c0.4,0.4,0.5,0.7,0.4,1.2
			c-0.8,0.5-2.2,0-3.1,0.5c-1.8,0.7-4.2,0.5-6.1,1.1C276.7,172,277.7,170.2,277.4,168.1 M283.9,180l-0.3-0.3
			C283.7,179.7,283.9,179.6,283.9,180L283.9,180z M306.6,175l0.4,0.5C306.6,175.7,306.8,175.2,306.6,175 M337.4,170.8
			c-0.5,0.1-1.4-0.3-1.4,0.6c-1.2-1.8-1.4,1.4-2.5-0.3c-0.7,0.3-1.3-0.5-1.7,0.3c-0.3-0.8-0.8,0-1.2,0l-0.1,0.1c0,0.5,1,0.5,0.6,0.9
			c-0.6-0.5-1.6-0.4-2.1-0.2l-0.3,0.3c-0.4-1.4-1.6-0.2-2.5-0.6c0.1,1.1-1,1.2-1.7,0.9c-0.7-0.3-2,1.4-2.8-0.1
			c-0.3,0.2-0.9,0.3-0.9,0.7c-0.3,0-0.5-0.5-0.8-0.6c-0.9-0.1-0.8,1.3-1.7,0.8l-0.7-0.8c-0.6,0.4,0,2-1.4,1.4
			c-0.3-0.7-1-0.6-1.4-0.7l-0.3,0.2l0.5,0.5c-1.2-1-1.1,0.6-2.2,0.3l-0.2,0.4c0-0.7-0.9-1.1-1.4-0.7l0.4,0.5
			c-0.8-0.1-0.5,0.9-1.1,1.2c-0.2-0.3-0.6-1.2-0.1-1.6l0.1-0.1l-0.2-0.3c-0.7,0.4-1,1.3-1.7,1c-0.2,0.2-0.2,0.6-0.5,0.6
			c-0.5-0.1-0.8-1.1-1.5-0.7c-0.2,0.5-1.4,1.2-1.9,1.6c-0.2-0.5,0.4-0.6,0.2-1.3c-0.8,0.8-2.1-0.6-2.6,0.9c0.3,0.6,0.7-0.1,1.1,0.1
			v0.4c-1.1,0.2-1.5-0.4-2.5-0.6c0-0.2-0.1-0.4-0.3-0.5c-0.1-0.1-0.2,0.1-0.3,0.2c0,0.2-0.1,0.3,0.1,0.4h0.2
			c-0.1,0.2-0.1,0.5-0.4,0.4c0.3-1.2-0.8,0-1.2-0.4c-0.3,1.2-1.4,0-1.9,1.2c-1.4,0.1-2.1,0.9-3.6,0.5c-0.5-0.5-1.2-0.6-1.6-0.1
			c-0.5,1.4-2.5,0.6-3.4,1.4c-0.3-0.6-1-0.4-1.2,0c-0.8-1.2-1.2,1-2.4,0.3c0.2-0.1,0-0.4,0.1-0.5c-0.2-0.2-0.4-0.3-0.6-0.3
			c0.5,1.6-1.8-0.1-1.4,1.5c-0.6-0.6-1.1,0.2-1.4,0.6c-0.6-0.4,0.6-0.7-0.2-1.1c-0.4,0.6-1.8,1.4-2.4,0.5c-0.5,0.4,0,0.9-0.8,0.9
			c-1.4-0.9-0.4-2.5-0.9-3.9l0.4-1.2c0.9,0.9,1.4-0.6,2.1-0.4c0-0.2-0.1-0.5,0.1-0.6c0.2,0.8,1.2,0.4,1.8,0.4c0.4-1,1.5,0.3,1.7-1
			c0.5,1,1.2,0.1,1.8,0.2l1.4-0.6c0.3,0.4,0.3,1.6,1.3,1.2c0.8-0.3,0-1.2,0.6-1.4c1.2,0.7,1.9-1.4,2.9-0.4c2-0.7,4-0.6,6-0.9
			c1-1.1,2.1,0.3,3.1-0.9c0.8,0.4,1.5-0.6,2.1,0c1.6-1,3.3-0.2,4.9-1c0.7,0.8,1.3-0.4,1.8,0.3c0.6-1.4,1.7,0.4,2.6-0.7
			c1.3-0.2,3.1-0.5,4.3-0.4c1.4-1,3-0.6,4.5-0.8c1.4-0.6,3-0.1,4.4-0.9c0.6,0.6,1.4-0.5,2,0l9.4-1.4c1-0.3,1.5,0.8,1.1,1.4
			C337.7,168.9,337.9,170.2,337.4,170.8 M338.5,106.5c0-1.1-0.5-2.4,0-3.8c-0.4-2.2,0.3-4.6-0.4-6.5c-0.6-0.1-0.4,0.7-0.4,1.1v26.5
			c-1.2,0.9,0.8,1.8-0.5,2.9l0.5,1.1v37.7c-1,0.7-2.3,0.3-3.3,0.9c-7.5,0.4-15.4,1.8-22.7,2.7c-2,0.4-4.5,0.7-6.7,0.6
			c-0.8,0.3-2.1,0.7-3.1,0.7c-2.8,0.1-4.8,0.9-7.5,1.3c-1-0.1-2.5,0.2-3.6,0.5c-0.9,0.2-1.8,0.2-2.8,0.4v-15l0.3-0.5
			c0.7,0.8,0.6,1.8,1.5,2.3h0.3c-0.5,0.6-0.4,1.3,0.2,1.4l0.6-1.3c0,0.8,1.3,1,1.2,1.6c-0.2-0.1-0.5,0-0.6,0.2
			c0.6,0.5,1.4,1.4,0.4,1.8c-0.1,0.3,0,0.7,0.3,0.7h0.4c-0.8,0.3-0.1,1.3,0.3,1.4c-0.2,0.1-0.5,0.2-0.7,0.5c1.9-0.1-0.8,2.5,1.5,1.7
			c-0.7-0.7,1-1,0.2-1.7c0.4-0.4,0.4-1.2,0-1.5c0.5-12.2,0.2-24.1,0.4-36.7l0.7-0.8c0.6,1.3,1.2-0.7,2,0.1c0-0.4,0.4-0.7,0.6-0.4
			c0.2,1,1.9,0.1,2.8,0.4c0.2-0.7,0.9-0.3,1.4-0.4c0.4,0.5,1.3,0.2,2,0c1.3-0.5,2.3,1.5,3.2,0c0.8,1.1,2,0.4,3,0.6
			c0.8-0.7,1.5,0.5,2.3-0.3c3.5,0.2,6.6,0,9.7,0.6c0.5-0.7,1.4-0.3,2-0.4c1.1,0.5,2.1,0,3.3,0.5c0.8-0.8,1.7,0.6,2.3-0.5
			c1.4,0.9,3.1,0.2,4.7,0.6c-0.9,0.9,0.6,1.9-0.2,2.8c0.7,2.9-0.2,4.9,0.3,7.8c-0.8,1.1,0.5,2-0.3,3.2c0.4,1.1,0.5,2.6-0.1,3.7
			c0.5,0.9,0,2.3,0.1,3.6c0.4,1.3-0.1,2.8,0,4.1c-0.6,2.4,0.2,4.8,0.3,7.2c0.2,0.8-0.6,3,0.7,3.4l0.5-0.5c0.1-1.5-0.2-3.3,0.2-4.7
			c-1-0.8,1-1.4-0.2-1.8c0.5-1.9-0.4-3.5,0.5-5.4c-1.2-1.6,0.7-3-0.5-4.6c1.3-0.7-0.9-1.5,0.2-2.3c0-0.4-0.6-1,0.1-1.1
			c-0.4-1.4,0.2-2.5-0.1-4.2c1.1-1.1-1.3-2.1,0.3-3.3c-0.3-0.9,0-0.9,0-1.8c-1.4-2.1,0.7-4.1,0-6.5c-0.3-0.6,0.4-1.5-0.4-1.8
			c1.1-1.3,0-3,0.4-4.2c-0.8-1,0.7-2.4-0.2-3.4c0.5-0.9,0.1-2-0.1-2.9c0.1-5.4,0.5-10.3,0.3-15.5c0-1.9,0-5.1,0.2-7.3l-0.6-0.4
			c0.3-0.2,0.9-0.7,0.4-1l-1.4,0.2c-0.6,2,0.8,4.6-0.2,7c0.1,0.5,0.5,0.8,0.1,1.2c0.7,2.4-0.5,4.6,0.2,6.9c-0.7,1.5,0.6,3.2-0.3,4.5
			c0.8,0.7-0.4,1.4,0.3,2c0.1,1.4-1.1,2.5,0,3.5c-0.5,1.3,0.2,3-0.6,4.2c0.4,1.4,0.3,2.8,0.2,4c-1.2-1.4-3.4-0.2-4.5-0.9
			c-0.7,1.1-1.1-0.4-1.8,0.1c-3.2-0.4-6.2-0.7-9.1-0.6c-0.8-0.6-1.4,0.5-2-0.2c-1.5,1.3-2.3-0.7-4.1,0.2l-0.3-0.5
			c-0.7,0.4-1.9,0.4-2.6,0.5c-0.8,0.5-1.4-0.9-2.3-0.2c-0.9-0.7-1.9-0.2-2.8-0.4c-0.1,0.1-0.3,0.2-0.2,0.5c-0.5-1.4-1.6,0.2-2.4-0.6
			c-2.6-0.2-5.3,0.3-7.7-0.3c-0.7-4.2,0.5-8.5,1.8-12.7c1.4-3.2,2.9-6.9,5.7-9.1c0.7-1.3,2.4-2,3.6-2.9c0.2-1.6,2-1.4,3-2.3
			c0.6-0.9,1.7-1,2.6-1.6c0.4-0.8,1.4-0.1,1.8-1c1.2-0.2,2.4-0.5,3.5-1.2c1.1-0.1,2.6-0.1,3.6-0.9c0.8,0.8,1.2-0.6,1.8-0.4
			c7.3-1.9,13.7-0.5,20.8,0.4c8.8,1.2,16.1,6.7,22,13.2c2.2,3.2,4.7,6.3,6,9.8c0.9,0.8,0.1,2.7,1.5,2.6c0.3-1.2-0.9-2.1-1-3.4
			c-1.1-2.3-2.1-4.9-3.9-6.8l-0.5-1.1c-5.8-6.7-12.7-13.1-21.6-14.7l-0.5-0.5c-3.4-0.4-6.3-1.5-9.5-1.7c-1.4-0.1-2.6-0.6-4-0.7
			c-1.3-0.2-2.6,0.8-3.8,0c-1,0.4-2.5,0.4-3.7,0.5c-0.6,0-1.2-0.7-1.4,0.2c-0.8,0.1-1.3,0.3-2,0.2l1.7-0.9c-1.2-0.9-2.2,0.6-3.5,0.3
			c0.1,0.9-1.5,0-1.1,1l0.9,0.4c-0.5,0.3-1,0.3-1.4,0.4V88c0.5-0.3-0.1-1.1-0.4-1.4l0.3-0.7c0.5,0.7,1.4,0.2,1.7-0.8
			c0.3,0.3,0.8,0.6,1.2,0.3c-0.1,0.2,0.1,0.2,0.2,0.3c0.8-0.4-0.1-1.6,1-1.7c0.7,0.3,1.9-0.5,2.1,0.6c-0.1,0.4-0.5,0.8-0.1,1.1
			c1.2-0.1,0.1-1.3,0.4-1.8c0.5,0.4,0.3,0.9,0.9,1.2c1.1,0.5,1.2-0.7,1.4-1.2c0.2,0.8,1,0.5,1.5,0.4c0.3-0.8,1.8-1.3,1.6,0
			c2.8-0.6,5.9,0,9.1,0c0.4,0.3,0.8,0.6,1.4,0.3c0.7,0.9,1.8,1.8,3.3,1.3l0.3-0.2c0.3,1.4,1.9-0.5,2.6,1c0.6-0.6,0.8,0.4,1.4,0.4
			l1.4-0.1V87h1c-0.1,0.2,0.1,0.3,0.2,0.4l0.9-0.1v0.3c2.1-0.1,4.7,1.7,7,2.9c9.1,6,15.6,14.7,18.5,24.5l1.3,4.3
			c-1.5,0.7-3.7-0.6-3.7,1.9c-0.4,1.4,0.7,2.6,0.1,3.7c-1.4,1.1-2.3-1.4-3.7,0l-0.2,0.4c-1.5-0.5-3.3-0.5-4.7-0.1
			c-1.5-0.2-2.7-0.6-4.3-0.5c-0.4-1.5-2.3,0.3-2.8-1.2c-1.1,0.5-2.4-0.2-3.6,0c-0.9-0.9-1.8,1-2.5-0.3c-1.4-0.3-2.6-0.3-4-0.1
			c-3.2-0.5-6.3-0.2-9.2-0.8c-0.4-3.5-0.4-7.9,0-11C338.6,109.9,337.9,108.2,338.5,106.5 M303.1,123.6v0.9c-0.4-0.6-1.3-1.4-2-0.7
			c-0.2,0.3-0.8-0.2-0.8,0.3l0.2,0.1c-0.2,0.5-0.7,0.2-1,0.3c-0.2-0.4-0.8-1.1-1.2-0.5c-0.5,1.5-1.4-0.7-1.7,1
			c-0.2-0.4-1-1.1-1.5-0.5c-0.4,0-0.6-0.5-0.7-0.9l0.2-0.6c4.1-0.2,7.1,0.5,11,0.4c-1.1-0.1-1.1,1.3-2,1l1-0.5
			C304.3,123.2,303.6,123.7,303.1,123.6 M315.7,123.9h0.4l-0.3,0.3L315.7,123.9z M376.4,160.5c0.6,0,0.3,0.7,0.5,1
			c-0.9,0.6-1.7,0-2.5,0.4c-1.4,0.1-2.6,0.6-4,0.6c-0.8,0.5-2-0.5-2.8,0.4c-0.6-0.8-1.2,0.4-1.7-0.2c-1,0.8-2.2,0.1-3.4,1
			c-2.3,0-4.3-0.1-6.9,0.2l-0.1-0.2c-6.1,1-11.5,1.1-17.2,2.1v-38l0.2-0.4c7.2-0.1,14,0.8,21.1,0.6c1.6,0.5,3.7,0.2,5.6,0.6l8,0.2
			l0.4,0.4c-0.3,5.2,0.1,10.3,0.1,15.1l0.1,4.2c-0.2,1.2-0.1,2.5,0,3.7c-0.3,0.6-0.5,1.8,0.3,2.3c-0.1,0.2-0.4,0.3-0.3,0.6
			c0.3,0.5,0.7,0,1,0c0.1-0.7-0.3-1.3,0.5-1.7c-0.3-1.9,0.2-3.6-0.3-5.6c0.2,0,0.4-0.3,0.5-0.4l-0.2-0.7c1,0.7-0.3,2.5,1,3
			c-0.4,0.7,0.4,1.8-0.8,2.1c1.4,0.9-0.3,2.3,1.1,3.1c0.2,0.3-0.3,0.4-0.6,0.5c-0.2,0.9,0.9,1.8,0.3,2.5c0.4,0.3-0.1,1.2,0.3,1.3
			h0.5c-0.3,0.1-0.4,0.1-0.5,0C376,159.1,376.7,160.1,376.4,160.5 M343.6,125.1l1.4,0.2c-0.3,0.4-0.6,0.3-1,0.4
			C344.3,125.3,343.9,125.2,343.6,125.1 M350,125.3l1.5,0.3C351.2,125.9,350.2,125.8,350,125.3 M353.2,125.6h1.2
			C354.5,125.8,353.4,126.1,353.2,125.6 M354.7,126c0.2-0.2,0.3-0.2,0.5-0.2c0.4-0.1,0.9,0,1.2,0c-0.3,0.2-0.8,0-1.2,0
			C355,125.8,354.8,125.9,354.7,126 M357.5,126.6v-0.8c2.3,0.3,5.6,0,7.9,0.8c1.4-0.1,2.9-0.1,4.2,0.4c0.8-0.8,1.4,0.7,2.1,0
			c0.4,0.1,1.1,0.1,1.4-0.4c0.2,0.3,0.5,0.6,0.4,1c-1.9,0.4-3.8-0.5-5.6-0.6c-0.6,0.9-1.1-0.6-1.6,0.4c-1.4-1.3-2.7,0.6-4-0.7
			C360.6,127.2,359.2,126,357.5,126.6 M375.1,144.8c0.3,0.1,0.1,0.7,0.3,1.1l-0.1,0.1C374.5,145.7,375.3,144.9,375.1,144.8
			 M385.2,165.4c-1.5-0.3-2.4,0.6-3.8,0.6c-0.4,0.3-0.8,0.7-1.3,0.5c0.2-0.9-0.8-0.5-1.1-0.9c-0.6,0.5-1.4,0.7-2.1,0.8
			c-0.8-0.4-1.5,0.6-2.2,0.7l-1.5-0.1c0-0.1,0.1-0.3-0.1-0.4l-0.2,0.5c-0.1-1.3-1.1,0.5-1.6-0.6c-0.9,1.3-2.7,0.3-3.9,1
			c0-0.1-0.1-0.2-0.1-0.3c-1.2-0.2-1.4,2.3-2.3,0.5c-1.8,0-3.9,0.3-5.7,1c-0.4-0.5-1.1-0.2-1.4,0l-0.1-0.4L357,169
			c-0.4-0.3-0.6-0.8-1.1-0.8c0,0.2-0.3,0.2-0.3,0.4l0.3,0.2v0.2c-0.5-1.3-1.5,0.2-2.3-0.6c-0.5,1.4-1.6-0.5-2.2,0.4l0.6,0.5
			c-0.7-0.7-1.6,0.9-2.7-0.3c-1,0.6-1.8,1.4-2.9,0.6l-0.9,0.3c-0.1-0.6-0.8-0.2-1.2-0.3c0,1.1-1.1-0.3-1.4,0.7l-0.6-0.4
			c-0.8,2.5-2.1-1.4-3.2,1c0-0.3-0.5-0.7-0.8-0.4c-0.2-1.2-0.1-2.3-0.1-3.6c7.1-1.2,14.2-1.4,21.7-2.4c0.6,0.7,1.2-0.3,1.8-0.2
			c7.9,0,15.5-1.5,23.7-1.6C385.7,163.6,386.1,164.8,385.2,165.4 M421.2,127.9c0,0.1,0.1,0.2,0.1,0.2c0,0.2-0.2,0.2-0.3,0.2
			L421.2,127.9z M419.7,129.4c-0.1,0.2-0.5,0.1-0.8,0.1C419,129.2,419.6,129.3,419.7,129.4 M416.8,129.2c-0.3,0.8-1.4-0.1-1.8,0.3
			c-0.5-1.1-1.4,0.3-2.1-0.3C414,128.3,415.6,129.3,416.8,129.2 M412.2,128.9c-0.5,0.9-1.3-0.5-1.9,0.3l-1-0.6
			C410.5,128.7,411.2,128.4,412.2,128.9 M408.8,128.6c0,0.3-0.6,0.3-0.6,0H408.8z M398.4,128.9c0,0.2-0.4,0-0.5,0
			C397.9,128.7,398.3,128.7,398.4,128.9 M389.3,127.5l4.3,0.3C391.9,127.7,390.9,127.8,389.3,127.5L389.3,127.5z M387.1,127.4h0.5
			c0,0.2,0,0.4-0.2,0.4h-0.3V127.4z M427.2,161.7c-0.3,0.4-0.9,0.1-1,0.7h0.7c-0.6,0.5-1.7,0-2.5,0c-1.1-1-1.8,0.5-2.8,0.1
			c-0.6,1.6-1.7-0.5-2.6,1.1c-1,0-1.6-0.1-2.4,0.1l-0.1-0.5c-1.1,1.1-2-0.7-2.6,0.8c-0.7,0.1-0.4-0.6-1.1-0.6l-0.4,0.7l-0.4-0.3
			c0.1-0.2,0.3-0.3,0.2-0.6c-0.6-0.6-0.6,0.7-1.2,0.6c-1-0.6-2,0.1-3.1,0.2c-0.9,0.9-1.5-1.1-2.1,0.2c-0.5-0.4-1.4-0.6-1.7,0.1
			l-0.2-0.2c-0.5,1-1.6-1-2.1,0.5c-0.7-0.2-1.4-0.8-2,0.2l-0.2,0.3c-0.4-0.1-0.2-1-0.8-0.8c-0.4,0.8-1.8,0-2.5,0.8
			c-0.9-0.4-2.1,0.5-3,0c-1.4-0.5-1.7,0.8-2.9,0.2c-1.1,0.6-2.2-0.1-3.2,0.6c0-1-0.6-2.6,0.4-3.2c9.8-0.6,19.7-1.1,28.5-1
			c2.2-0.5,5,0,7.2-0.5c1,0.5,1.5-0.4,2.4,0.2c0.3-0.4,0.9-0.1,1.4-0.2C427.3,161.3,427.2,161.6,427.2,161.7 M426.1,160.2
			c-4.2-0.2-8.8,0.3-13.3,0.3l-0.4-0.3c-7.4,1.1-15.7,0.4-23.2,1.5l-2.1-0.3l0.1-31.9c10.8,0.4,21,0.8,31.7,1.7
			c2.1,0.2,4.4,0.7,6.8,0.5c1.5,1.2-0.8,2.2,0.3,3.6c-0.3,7.1-0.2,13.9-0.1,21.3c1.8-0.5,1.3,1.6,1.4,2.7
			C427.5,160.2,426.4,159.9,426.1,160.2 M439.7,164.1v-0.4c0.2,0.1,0.4,0.1,0.5,0.3C440.1,164.1,439.9,164.1,439.7,164.1
			 M441.4,163.8l-0.2-0.3c0.1,0,0.1,0,0.2,0.1V163.8z M442.7,164h-0.2c0-0.2,0.2-0.3,0.4-0.3C442.9,163.8,442.8,163.9,442.7,164
			 M446.6,163.1l0.3-0.3l0.2,0.2C447,163.2,446.8,163.1,446.6,163.1 M449.1,163.1L449.1,163.1v-0.2V163.1z M472.7,163.6
			c0.1-0.3,0.4-0.5,0.6-0.2C473.4,163.7,473,163.6,472.7,163.6 M526.8,166.5l0.8,0.1C527.3,166.8,526.7,166.9,526.8,166.5
			 M572.5,172.2l-0.4-0.2h0.4V172.2z M575,172.7l0.1-0.5c0.4,0.3,0.8,0.5,1.2,0.4C575.9,172.8,575.4,172.7,575,172.7 M590.3,176.4
			l-0.1-0.4h0.3L590.3,176.4z"/>
		<polygon class="st0" points="327.6,68.2 327.6,68.1 327.5,68.1 		"/>
		<path class="st0" d="M401.7,11.5c-0.6-0.3-1.1,0.2-1.6,0c0.1,0.4,0.8,0.7,1.3,0.7C401.5,12,401.8,11.7,401.7,11.5"/>
		<path class="st0" d="M402.6,12.7l0.5,0.2c1-0.1,0.1-1,0.4-1.4C402.8,11.5,402.5,12.4,402.6,12.7"/>
		<path class="st0" d="M410.1,12.9c-0.7-0.6-1.3,0.3-1.9,0c0.1-0.7,1.1-0.1,0.9-0.9c-0.4,0.3-1.3,0-1.4-0.6
			c-0.3,0.1-0.9-0.1-0.9,0.4c0.3,0.6,0.7-0.3,1,0.3c0.3,0.5-0.4,0.6-0.4,0.8l0.2,0.2c0.9-0.2,1.8,0.3,3,0.5L410.1,12.9z"/>
		<path class="st0" d="M400.5,12.4c-0.3-0.2-1-0.3-1,0.2C399.9,12.5,400.2,12.9,400.5,12.4"/>
		<path class="st0" d="M412.6,13.5c0.2,0.5,0.6,0.6,1.1,0.7c0.3-0.3,0-0.6-0.3-0.8l0.5-0.5C413.4,12.6,412.8,13.2,412.6,13.5"/>
		<path class="st0" d="M410.7,13.6c0.2,0.1,0.3-0.1,0.4-0.2l-0.1-0.2L410.7,13.6z"/>
		<path class="st0" d="M414.1,13.2c0.4,0.4,0.1,1.4,0.9,1.2v-0.2c-0.1,0-0.1-0.1-0.2-0.1C415,13.7,414.6,13.2,414.1,13.2"/>
		<path class="st0" d="M416.5,13.6c-0.3-0.3-0.6,0-0.5,0.4h0.4C416.5,13.9,416.5,13.7,416.5,13.6"/>
		<path class="st0" d="M422.9,15.2v-0.3V15.2z"/>
		<path class="st0" d="M422.2,15.2c-0.1,0.3,0.4,0.3,0.6,0.5l0.2-0.5C422.7,15.3,422.5,15,422.2,15.2"/>
		<path class="st0" d="M430.5,17.5h0.6v-0.6C430.7,16.7,430.2,17.2,430.5,17.5"/>
		<path class="st0" d="M360.4,18.9c0.6-0.2,0.8-0.9,0.9-1.4c-0.2-0.6-1-0.6-1.4-0.4C359.6,17.8,359.9,18.6,360.4,18.9"/>
		<path class="st0" d="M436.8,18.4l-0.1,0.5l1.4,0.5C438.1,18.4,437.3,18.9,436.8,18.4"/>
		<path class="st0" d="M326.6,18.7V19h0.2C326.9,18.9,326.7,18.8,326.6,18.7"/>
		<path class="st0" d="M352.8,19.2v0.4h0.3c0.1-0.1,0.3-0.1,0.2-0.3C353.2,19.1,353,19.2,352.8,19.2"/>
		<path class="st0" d="M350.3,19.6c-0.4,0.2-0.3,0.7-0.1,0.9c0.3-0.2,1,0,1-0.6C351.1,19.4,350.6,19.7,350.3,19.6"/>
		<polygon class="st0" points="440.9,20.1 441.5,20.4 441.1,19.9 		"/>
		<path class="st0" d="M445.4,21.5l0.3,0.1v-0.7C445.4,20.9,445.1,21.2,445.4,21.5"/>
		<path class="st0" d="M310.7,21.2c-0.6-0.5-0.4,0.4-0.6,0.6C310.3,21.7,310.9,21.8,310.7,21.2"/>
		<path class="st0" d="M451.6,21.6l0.2,0.8c1.4-0.1,2.4,1.2,3.8,1.4c0.5,0.1,1.1,0.2,1.4,0.3c1,0.9,3,1.5,4.3,1.5l-1.2-0.9
			c-1.4-0.3-2.2-1.2-3.3-1.3c-0.2-0.2,0.1-0.3,0.1-0.5c-0.8-0.1-1.4-0.1-2.1,0c0-1.5-2-0.8-2.5-1.8l-0.1,0.7
			C452,22.1,451.6,21.9,451.6,21.6"/>
		<polygon class="st0" points="305.9,22.7 305.7,22.4 305.9,22.8 		"/>
		<path class="st0" d="M305.1,23.3c-0.4-0.1-0.7,0.4-0.4,0.7C304.8,23.7,305,23.4,305.1,23.3"/>
		<path class="st0" d="M303.3,24.7c0.1-0.2,0.4-0.3,0.3-0.6c-0.3-0.2-1.1-0.1-0.9,0.4C302.9,24.6,303,24.7,303.3,24.7"/>
		<path class="st0" d="M305.3,24.6c0.2-0.2,0.4-0.3,0.4-0.6C305.5,24,304.9,24.4,305.3,24.6"/>
		<path class="st0" d="M302.1,25.6c0.3-0.3,0.1-0.7-0.2-0.8l-0.4,0.4C301.8,25.4,301.9,25.7,302.1,25.6"/>
		<polygon class="st0" points="304.2,24.9 303.9,24.9 304.2,25.1 		"/>
		<path class="st0" d="M301.1,25.8c-0.1-0.1,0.1-0.3-0.1-0.4c-0.4,0.1-0.6-0.4-0.9,0l0.6,0.8L301.1,25.8z"/>
		<path class="st0" d="M310.6,25.8c0,0.2,0.2,0.2,0.3,0.2c0.1-0.2,0.4-0.3,0.4-0.5C311,25.4,310.6,25.5,310.6,25.8"/>
		<path class="st0" d="M461.7,26.1l-0.3,0.5c0.3,0.1,0.5,0.2,0.8,0.3C462,26.5,462,26.1,461.7,26.1"/>
		<path class="st0" d="M300.8,26.6l0.4,0.3c0.2,0,0.4-0.3,0.4-0.6C301.1,26.4,301,26.2,300.8,26.6"/>
		<path class="st0" d="M300.2,27.7c0.2,0,0.3-0.2,0.4-0.3c-0.6-0.2,0.4-1.2-0.6-1.1C299.9,26.9,299.6,27.3,300.2,27.7"/>
		<path class="st0" d="M463.1,26.5c0-0.2-0.2-0.2-0.3-0.2L463.1,26.5L463.1,26.5z"/>
		<path class="st0" d="M297.3,27.2c-0.2,0.1-0.7,0.1-0.6,0.5h0.4C297.2,27.5,297.4,27.4,297.3,27.2"/>
		<path class="st0" d="M288.3,35.3l1.4-0.9c-0.4-1.2,1.2-0.5,1.4-1.4c1.7-0.6,2.7-1.8,4.2-2.8c0.1-1.4,2.1-1.2,3-1.8
			c-0.7-0.3-1.1,0-1.6-0.4c-0.3,1.2-1.6,0.6-2.3,1.3c-0.3-0.5-0.6-0.1-0.9,0.2c-0.2,0.9-1.7,0.6-1.5,1.9c-1.1-0.1-1.5,1.6-2.5,0.9
			c-1,0.2,0,1.1-0.3,1.6c-0.8-0.6-0.8,0.5-1.4,0.3C287.6,34.8,288.2,34.9,288.3,35.3"/>
		<path class="st0" d="M299,28.3c-0.3-0.2-0.4,0-0.5,0.2h0.3C298.9,28.5,299.1,28.3,299,28.3"/>
		<path class="st0" d="M278.6,46.3c0.7-1.5-0.8-4.5,1.3-4.8c1.4-1.6,3.5-1.9,4.8-3.6c-0.2-0.6,0.5-0.6,0.7-0.7
			c0.5-0.9,1.3-0.7,2.2-1.4c0-0.7-0.9-1.2-0.6-1.8c-0.1,0.1-0.1,0.2-0.1,0.1c0,0.6-0.7,1-1.1,0.9c-0.9,0.4-1.7,1.3-2.6,2
			c-0.9-0.5-1.2,1.2-2,0.6c-0.4-0.3,0.2-0.5,0.2-0.8c-0.5,0.9-1.7,0.7-2.4,1.5c-0.4-3.1-0.2-6.4-0.3-9.7l-0.3-0.5
			c-0.4,5.9-0.3,12.1-0.2,18.1H278.6z"/>
		<path class="st0" d="M212.7,32.4c1.7,1.1,3.7,2.1,5.6,2.9c0.6,0,0.8,1.1,1.4,0.4c2,1.2,4,2.3,6.1,2.9l0.2,0.5
			c1.6,0.1,2.8,1.4,4.2,2.2c1.1-0.1,2.2,0.5,2.8,1.4c1.4-0.1,2.5,1.2,3.8,1.4c2.1,0.8,4.1,1.8,6.2,2.9c1.1-0.6,1.4,1.2,2.7,1
			c0.5,0.5,1.4,0,1.7,0.8c1.2-0.2,1.8,1.4,3,0.7c-0.2-0.4-0.2-0.8-0.5-1.2c-0.8-0.1-1.5-0.9-2.3-0.6c-1.1-0.7-2.5-1.5-3.9-1.8
			c-1-0.8-2.1-0.4-2.9-1.6c-3-1.1-5.8-2.7-8.7-4.2c-2.3-0.5-3.9-3-6.3-3.3c-2.6-1.8-5.6-3.7-8.7-5.1l-0.4,0.7l-0.9-0.9l0.4-0.2
			c-0.7-0.7-1.8-0.7-2.3-1.6c-0.5,0.3-0.9,0-1.1-0.4c-0.7-0.7-0.8,0.5-1,0.9l0.9-0.2c0.1,0.1,0.4,0.2,0.3,0.4
			c-0.7,0.3-1.9-0.3-1.7,1.1C211.4,32.1,212,32.5,212.7,32.4"/>
		<path class="st0" d="M286.4,42.8c0.1,0,0.3,0.1,0.3-0.1c0-0.2,0.3-0.6-0.2-0.6L286.4,42.8z"/>
		<polygon class="st0" points="251.8,49.8 251.5,49.8 251.8,50 		"/>
		<path class="st0" d="M387.1,58c-0.4-0.1-0.5,0.2-0.5,0.4C387,58.5,387,58.3,387.1,58"/>
		<path class="st0" d="M387.2,58.5c-0.2,1-0.9-0.5-1.4,0.4c0.4,0.5-0.4,0.9,0.2,1.3c0.4,0.6,1,0,1.4,0
			C387.8,59.8,387.6,59,387.2,58.5"/>
		<path class="st0" d="M307.2,59.5h0.2c0.1,0,0.1,0,0.1-0.1c0-0.2-0.2-0.2-0.3-0.2V59.5z"/>
		<path class="st0" d="M386.3,78.3c0.1,0,0.3,0.1,0.4-0.1c0.1-4.3,0.5-9.7,0-14.3h-0.3L386.3,78.3z"/>
		<path class="st0" d="M378.6,77.4h0.3c0.2-3.3,0-6.7,0.2-10.1l-0.4-0.2c-0.4,1.9-0.4,4.3,0,6.2C378.3,74.5,378.4,76.1,378.6,77.4"
			/>
		<path class="st0" d="M334.5,70.1c0-0.2,0-0.3-0.1-0.4L334.5,70.1L334.5,70.1z"/>
		<path class="st0" d="M264.9,78.1L264.9,78.1c0.2-0.1,0.2-0.3,0.2-0.4C265,77.7,264.6,78,264.9,78.1"/>
		<path class="st0" d="M358.7,78.4c-0.2,0.3,0.4,0.6,0.7,0.6c0.2-0.2,0.4-0.6,0.5-0.9C359.2,77.2,359.5,78.7,358.7,78.4"/>
		<path class="st0" d="M362.1,78.7c-0.1-0.1-0.4,0-0.5,0C361.4,79,362.1,79,362.1,78.7"/>
		<path class="st0" d="M365.8,80.2L365.8,80.2L365.8,80.2z"/>
		<path class="st0" d="M365.3,80.3c0.1,0.1,0.4-0.1,0.4-0.1l-0.4-0.4V80.3z"/>
		<path class="st0" d="M366.8,80.5L366.8,80.5c0.6,0.2,1.1,0.2,1.2-0.3C367.6,80.2,366.9,79.8,366.8,80.5"/>
		<path class="st0" d="M368.3,81.6l0.3,0.1c0.1-0.1,0.3-0.2,0.3-0.5C368.6,81,368,81.2,368.3,81.6"/>
		<path class="st0" d="M369.5,81.5c0-0.1,0-0.3-0.1-0.4L369.5,81.5L369.5,81.5z"/>
		<path class="st0" d="M370.4,81.1h-0.3v0.7c0.1,0.3,0.3,0,0.5-0.1C370.3,81.6,370.5,81.3,370.4,81.1"/>
		<path class="st0" d="M469.3,95.2L469.3,95.2l-0.3,1.5c0.2,0.2,0.7,0,0.6,0.5c0,0.4,0.2,0.5,0.6,0.6c0.6-4.7,0.3-10.9,0.2-15.8
			c-0.3,0.3-0.7,0.4-1.3,0.6c-0.3,0.7,0.5,0.5,0.5,1.1c-0.7,0.3,0.4,1.1-0.6,1c1.1,0.9-0.8,2,0.3,2.5c-0.3,0.5-0.6,1.2,0.2,1.4
			c-1.1,0.9,0.5,1.6,0,2.7l-0.2-0.1c-0.2,0.1-0.7-0.2-0.7,0.2c0.2,0.2,0.4,0.3,0.6,0.3C469.4,92.6,469.3,94.3,469.3,95.2"/>
		<path class="st0" d="M372.9,82.7c0.2,0,0.4-0.2,0.3-0.5C373,82,372.7,82.6,372.9,82.7"/>
		<path class="st0" d="M375.8,83.6l0.4,0.1c0.1-0.2,0.5-0.2,0.3-0.5C376.3,82.7,375.5,83.3,375.8,83.6"/>
		<path class="st0" d="M380.9,83.7c0.1,0,0.1,0.1,0.2,0.1c0.1-0.2,0.4-0.6,0.2-0.6L380.9,83.7z"/>
		<path class="st0" d="M377.4,83.9c1-0.5,1.4,1.1,1.9,0.3c-0.3-0.9-1.2-0.7-1.7-1C377.3,83.3,377.2,83.7,377.4,83.9"/>
		<path class="st0" d="M383.8,85l0.2,0.1c0.1-0.2,0.6-0.5,0.4-0.7C384.2,84.5,383.9,84.8,383.8,85"/>
		<polygon class="st0" points="385.6,84.4 385.4,84.4 385.6,84.8 		"/>
		<polygon class="st0" points="429.1,85.5 429.1,85.2 428.9,85.2 		"/>
		<path class="st0" d="M384.7,85.9h0.2c0.1-0.1,0.2-0.2,0.1-0.3C384.9,85.4,384.5,85.6,384.7,85.9"/>
		<path class="st0" d="M390.6,86.3c0.3-0.2,0.4-0.4,0.4-0.7C390.6,85.5,390.5,86.1,390.6,86.3"/>
		<path class="st0" d="M324,86.1l1.1,0.2v-0.2C325,85.7,324,85.5,324,86.1"/>
		<path class="st0" d="M319.5,86.3h0.4c0.2,0,0.5-0.2,0.4-0.4C320,85.9,319.6,86.1,319.5,86.3"/>
		<path class="st0" d="M388.7,86.6v-0.3c-0.4-0.4-1.2-0.2-1.4,0.3C387.8,86.8,388.4,86.8,388.7,86.6"/>
		<path class="st0" d="M392.1,87.3h0.4c0.1,0,0.1-0.2,0.1-0.3C392.3,86.8,391.9,87,392.1,87.3"/>
		<polygon class="st0" points="393.7,87.4 393.2,87.1 393.2,87.6 		"/>
		<path class="st0" d="M400,89.4c0.5-0.1,1-0.2,0.9-0.9c-0.1,0-0.1-0.3-0.3-0.2c-0.1,0.9-0.7,0.3-1.3,0.5
			C399.3,89.3,399.8,89.2,400,89.4"/>
		<path class="st0" d="M404.6,89.4c0,0.3,0.4,0.9,0.8,0.7c0.3,0,0.4-0.4,0.3-0.5l-0.2,0.1C405.1,89.9,404.9,89.5,404.6,89.4"/>
		<path class="st0" d="M408.7,90.7c0.1,0.2,0.4,0.1,0.5,0.1c0.2-0.1,0.6-0.1,0.5-0.3C409.4,90.6,408.8,90.4,408.7,90.7"/>
		<path class="st0" d="M410.5,90.5c-0.2-0.1-0.6,0-0.6,0.2h0.4C410.3,90.6,410.6,90.5,410.5,90.5"/>
		<path class="st0" d="M412.1,90.5c-0.3,0-0.6,0.2-1.1,0.1c0,0.2,0.2,0.4,0.3,0.5L412.1,90.5z"/>
		<path class="st0" d="M239.4,90.7c-0.7,0.4,0.2,0.8,0.2,1.1C239.6,91.4,239.9,90.7,239.4,90.7"/>
		<path class="st0" d="M412.5,91.3c-0.3,0.3,0,0.7,0.3,0.8c0.3-0.1,0.1-0.4,0.2-0.5C412.8,91.5,412.7,91.3,412.5,91.3"/>
		<path class="st0" d="M416.6,91.9c-0.5,0-1.5-0.9-2.1-0.1C415,91.9,416.1,92.7,416.6,91.9"/>
		<path class="st0" d="M238.7,92.5c0.7,0.3-0.2,0.6,0.2,0.9c0.6,0,0.3-1.2,0.4-1.3L238.7,92.5z"/>
		<path class="st0" d="M316.5,98.6c2-1.4,4-3.3,5.4-5.1c-0.2-0.5-0.7,0-1.1,0c-1.3-0.7-1.9,1.5-3.2,1.7c-2.9,2.7-5.6,5.8-8.6,8
			c0,0.3,0.4,0.7,0,0.9l-0.4-0.4c-1,1-2.4,1.6-3,2.7c0.5,0.7,1,1,1.7,0.4C310.4,104.3,313.3,101.4,316.5,98.6 M308.1,104.8
			c0,0.1,0,0.2-0.1,0.2h-0.2C307.7,104.8,307.9,104.8,308.1,104.8"/>
		<path class="st0" d="M314.3,95.7c-1.5-0.1-2.2,1.8-3.4,2.7l-0.8,0.2l0.3,0.5l-0.2,0.2c-0.3,0.4-0.3-0.2-0.7-0.2
			c-2.4,2.1-4.3,3.7-6.6,6.1l-0.3-0.2c-0.7,1.2-2.2,1.4-2.8,2.7c0.6,0.2,0.1,1.1,0.8,1.2c5.1-4.5,10.2-8.7,15.4-13.6
			C315.8,94.3,314.4,94.9,314.3,95.7"/>
		<path class="st0" d="M434,95.5h0.5v-0.2C434.4,95.1,434,95.2,434,95.5"/>
		<path class="st0" d="M320.5,98.2c-3.2,3-6.9,5.7-10,9c-1,1-3.2,2.2-3.6,3.8h0.6c3.1-2.6,5.8-4.5,8.6-7.5l0.1,0.1
			c1.9-2,4.4-3.8,6.5-6.2l-0.4-0.4C321.5,97.2,321.2,98.2,320.5,98.2"/>
		<path class="st0" d="M448.2,97.9c0.1,0,0.3-0.1,0.2-0.3h-0.2V97.9z"/>
		<path class="st0" d="M478.6,101.3h-0.4l0.2,0.3C478.6,101.6,478.6,101.4,478.6,101.3"/>
		<polygon class="st0" points="482.8,101.4 482.6,101.4 482.8,101.8 		"/>
		<path class="st0" d="M485,102.1c-0.1-0.6-0.9,0-1.3-0.5C483.7,102.3,484.8,101.7,485,102.1"/>
		<path class="st0" d="M493.9,103c0-0.1,0.1-0.1,0.1-0.2c-0.1-0.1-0.3-0.4-0.5-0.3C493.4,102.7,493.5,103.2,493.9,103"/>
		<polygon class="st0" points="505.2,102.7 505.1,102.9 505.3,102.8 		"/>
		<path class="st0" d="M500.2,102.9c-0.2-0.2-0.4,0-0.5,0.2C499.9,103.2,500.1,103,500.2,102.9"/>
		<path class="st0" d="M429.1,109.6c0.2-0.6-0.3-0.5-0.5-1c1.4-0.8-1-1.4,0.4-2.2c-0.7-1,0.3-1.9-0.5-2.8c-0.5-0.3-1.5,0.6-1.6-0.6
			c-0.7-0.5-0.8,0.6-1,1c0.3,6.7-0.1,14.4,0,21.2c-0.5,1.1,0.3,1.7,1.4,1.7c-0.1,0.1-0.1,0.3-0.1,0.4c0.4,0.3,0.2,1.4,0.9,1.2
			c-0.4-1,1.3-1,0.4-1.8c0.6-1,0.5-1.9,0.2-3c0.3-0.8-0.3-2,0-3c-0.9-0.9,0.7-1.1,0-1.9c1.2-1-0.3-2.3,0.4-3.4
			c0.3-1-1.2-1.7-0.1-2.6c-0.2-0.6,0.4-1.7-0.3-1.9C428.6,110.3,428.6,109.8,429.1,109.6"/>
		<path class="st0" d="M442.2,120.4l1.9-1.7c1.5-0.8,2.3-1.9,3.6-3.2c1.4-1,3.1-2,3.9-3.8c1.1,0.4,1.2-1,1.7-1.3
			c1.5-0.9,2.8-2.2,3.8-3.5c1.4,0,1.4-2,2.7-1.7c0.2-1.8-2.7-0.8-3.7-1.4c-2.6-0.3-5.9-0.8-8.4-0.9c-0.4,0.4,0.3,0.3,0.4,0.6
			c-0.2,0.3-0.5,0.2-0.8,0.2v0.4c0.6,0.4,1.2,0.3,1.7,0.1l-0.4-0.8c0.5-0.1,1,0,1.4,0c0.5,0,1,0.6,0.5,1l1.5,0.4
			c0.6-0.1,0.9-0.6,1.4-0.8c0.3-0.1,0.3,0.1,0.3,0.3c0.5,0.1,1,1,1.4,0.7c0.1-0.4-0.1-0.4-0.3-0.7l0.5-0.5l0.8,1.4
			c0.7,0.1,1.2-0.8,1.7-0.2c-1,1.4-2.6,2.1-3.5,3.7c-2.8,1.9-5.7,5.2-8.7,7.5c-1.1,1-2.9,2.6-4,4.1
			C441.9,120.5,442.1,120.3,442.2,120.4"/>
		<path class="st0" d="M509.4,103.7c0.1-0.1,0-0.2-0.1-0.2l-0.1,0.1c-0.3,0.1-0.2-0.3-0.4-0.4l0.4,0.8L509.4,103.7z"/>
		<path class="st0" d="M511,104.1c0.2-0.1,0.1-0.3,0.1-0.5c0-0.2-0.2-0.1-0.3-0.1C510.4,103.7,510.8,104.2,511,104.1"/>
		<path class="st0" d="M430.7,128.1V105c0.1-0.4-0.1-1.5-0.7-0.8V121c0.6,2.1,0.4,4.8,0.1,7.1C430.3,128.2,430.5,128.5,430.7,128.1"
			/>
		<path class="st0" d="M530.3,105.8c-0.2,0-0.3,0-0.4,0.1C530,105.9,530.1,105.8,530.3,105.8"/>
		<path class="st0" d="M527.8,106.9l0.3-0.5l0.4,0.5c0.2-0.6,0.9-0.8,1.4-1c-0.9,0-1.6-1.2-2.1,0.2l-0.5-0.7c-0.4,0-0.6,0.2-0.7,0.5
			l0.2,0.4l-0.2,0.2l-0.6-0.5C525.2,107.2,527.5,106.1,527.8,106.9"/>
		<path class="st0" d="M533.8,106.9c0.2,0,0.4,0.1,0.5-0.1c0.2-0.7-0.9-0.1-0.5-0.7c-0.2-0.1-0.4,0.2-0.4,0.3h0.3
			C533.8,106.5,533.8,106.7,533.8,106.9"/>
		<path class="st0" d="M529.7,106.9c0.4-0.1,1.2-0.2,1.5-0.5C530.7,106.4,529.7,106.1,529.7,106.9"/>
		<path class="st0" d="M536.8,106.4h-0.3v0.2C536.6,106.5,536.8,106.5,536.8,106.4"/>
		<path class="st0" d="M532.1,106.6c0-0.1-0.2-0.1-0.3-0.1l0.3,0.4V106.6z"/>
		<path class="st0" d="M481.9,107.1h0.2c0.2,0,0.1-0.2,0.1-0.3C482,106.8,481.9,106.9,481.9,107.1"/>
		<path class="st0" d="M445.7,113.7l4.5-4.3c0.2-0.9,2-0.8,1.5-1.9c-1.4,0.2-2.7,2.2-3.8,3.1c-2.7,1.7-4.6,4.6-7.2,6.9l-0.7,0.1
			c-0.7,1-2,1.3-2.3,2.2c0.2,0.3,0.5,0.6,0.8,0.3c2.1-2,4.5-4,6.8-6.3H445.7z"/>
		<path class="st0" d="M373.5,117.4c0.2,0.3,0.7,0,0.9-0.1c0-0.7-0.3-1.6-1-2C373.9,116.1,372.8,116.7,373.5,117.4"/>
		<polygon class="st0" points="235.5,117.3 235.1,117 235.3,117.4 		"/>
		<path class="st0" d="M264.9,120.4L264.9,120.4c0.2-0.2,0.4-0.2,0.3-0.4C265,119.9,264.6,120.2,264.9,120.4"/>
		<path class="st0" d="M436.7,121c0.2-0.2,0.1-0.6,0.2-0.8C436.6,120.2,436.5,120.7,436.7,121"/>
		<path class="st0" d="M419.4,127.8h0.5v-0.1C419.7,127.4,419.5,127.8,419.4,127.8"/>
		<path class="st0" d="M431.8,130.6c0.1,0.2,0.3,0.1,0.5,0.1c0.3,0.1,0.5-0.3,0.6-0.5C432.5,130,431.8,130.1,431.8,130.6"/>
		<path class="st0" d="M498.5,136.5l-0.5,1.9c0.4,0.1,0.6,0.6,1.1,0.4c0.9-0.4,0.6-1.1,1-1.7C499.7,136.3,498.9,136.9,498.5,136.5"
			/>
		<path class="st0" d="M366.8,137.1c-2.1,2-4.2,3.4-6.1,5.5l-1.2,0.5c-1.9,2.3-4.2,3.7-6.3,5.7c-1.6,2.3-4.3,4.5-6.7,6.3
			c0.2,0.5-0.7,0.8-0.3,1.2l1.8-1c5.5-5.4,13.2-11.8,19.2-17.8C367.4,137.3,367,137.3,366.8,137.1"/>
		<path class="st0" d="M419.8,140.5l-4.9,4.4h-0.5c-2.8,3-5.7,4.8-8.3,8c-0.4,0.3-1.2,0.2-1.4,0.9l0.7,0.3c1.1-0.7,2.2-2.1,3.6-2.6
			c3-3.6,6.3-5.6,9.4-8.8c0.2-1.1,1.7-0.7,2-1.8C420.4,140.7,420,140.7,419.8,140.5"/>
		<polygon class="st0" points="366.7,142.2 366.7,142 366.3,142 		"/>
		<path class="st0" d="M365.6,143.2l0.2,0.4c0.3-0.2,0.9-0.1,0.9-0.6C366.2,142.3,365.8,143.1,365.6,143.2"/>
		<path class="st0" d="M364.9,143.3c-2.7,2.6-5.8,5.4-9,8.4c-0.5,1.3-2,0.8-2.1,2.1c-1.5,0.6-2.1,2.2-3.6,2.8
			c-1.4,2.7-5,3.8-6.2,6.3c2.5-1,4.7-3.8,7-5.8c3.8-3.3,7.4-6.8,11-10c1.5-0.8,2.5-1.8,3.4-3.3C365.2,143.7,365.1,143.4,364.9,143.3
			"/>
		<path class="st0" d="M267.9,144.6c0.2,0,0.4-0.4,0.1-0.4l-0.4,0.6l0.1,0.1L267.9,144.6z"/>
		<path class="st0" d="M250.3,162.8c6.2-6.2,13.2-11.7,19.2-17.6c0.1-1.5-1.1,0.1-1.5,0.2c-2.1-0.6-2.8,1.8-4.5,2.9
			c-2,2.1-3.9,4-6.3,5.7c-0.6,0.5-0.8,1.6-1.6,1.3c0,0.5-0.2,1-0.6,0.8c-2,1.7-3.6,3-5.3,5.1c0.2,0.7,0.1,1-0.3,1.4
			C249.7,162.9,250.1,162.7,250.3,162.8"/>
		<path class="st0" d="M416.2,147.1c-2.1,2.6-4.7,3.9-7.1,6.5c-1,0.1-1.4,1.1-1.6,1.6c-1.4,0.7-2.6,2.3-3.9,3.5
			c0,0.6,0.5,0.3,0.9,0.4l4.3-4.1c0.5-0.9,1.5-0.6,1.5-1.6c1.5-0.4,1.9-1.9,3.4-2.4c1-2,3.8-2.5,4.2-4.7
			C417.1,146.2,416.9,147.3,416.2,147.1"/>
		<path class="st0" d="M267.2,153.2v-0.6l-0.9-0.1c-1.4,0.2-2.1,1.4-2.7,2.4c-2,0.9-3.5,2.6-5.3,4.2c-0.9-0.2-0.7,1.1-1.3,1.1
			c-1.6,0.6-1.4,2.7-3.4,2.8c-0.3,1.4-2,1.7-2.8,2.7c0.2-0.1,0.2,0.1,0.3,0.2l-0.7,0.3c-0.3,0.3-1,0.7-0.8,1.4
			c-0.4,0.7-1,0.4-1.4,0.4c0.2,1-1.3,1.5-1.1,2.5h0.7C254.6,164.4,261.1,158.8,267.2,153.2"/>
		<path class="st0" d="M404.9,154.6h-0.2v0.4C404.8,154.9,405,154.8,404.9,154.6"/>
		<path class="st0" d="M374.1,156.2h0.2v-0.4c0,0-0.1-0.1-0.2-0.1V156.2z"/>
		<path class="st0" d="M293.4,168.4c0.2,0,0.4,0.1,0.4-0.2C293.8,168.1,293.4,168.2,293.4,168.4"/>
		<path class="st0" d="M560,169.2c-0.2-0.1-0.3-0.3-0.5-0.2v0.4h0.3C559.9,169.4,560,169.3,560,169.2"/>
		<path class="st0" d="M566.9,170.3c-0.1-0.1-0.1-0.1-0.2-0.1l0.1,0.5C566.9,170.6,566.9,170.4,566.9,170.3"/>
		<path class="st0" d="M570.5,171.5v-0.2c-0.1-0.3-0.5,0-0.3,0.2H570.5z"/>
		<path class="st0" d="M328.6,172c0.2-0.1,0-0.3,0.2-0.5h-0.2V172z"/>
		<path class="st0" d="M323.4,172.5h0.3c0-0.1,0.1-0.1,0.1-0.3h-0.4V172.5z"/>
		<path class="st0" d="M469.5,172.4c-0.1,1-0.5,2.5-0.2,3.5c0.1,1.4-0.3,2.3,0.2,3.6c0.1,3-0.9,6.4,0.1,8.8l0.6-0.3
			c0.7-3.5,0.1-7.5,0.2-11.3c0.1-1.3-0.2-2.6,0.3-4L469.5,172.4z"/>
		<path class="st0" d="M592.5,175.9c-0.4-0.2-0.7,0.1-0.9,0.1l0.6,0.3C592.3,176.1,592.6,176.1,592.5,175.9"/>
		<polygon class="st0" points="294.4,176.5 294.4,176.4 294,176.4 		"/>
		<path class="st0" d="M591.7,177.3l0.5,0.6c0.6-0.1,1.5,0.3,1.7-0.3C593.5,176.4,592,176.7,591.7,177.3"/>
		<path class="st0" d="M595.1,177l-0.9,1.1l0.4,0.3l0.5-0.3C595.7,177.7,594.9,177.2,595.1,177"/>
		<path class="st0" d="M476.3,177.5v0.3l0.2-0.2C476.5,177.5,476.4,177.4,476.3,177.5"/>
		<path class="st0" d="M286.3,177.9v0.5h0.1C286.3,178.3,286.5,177.9,286.3,177.9"/>
		<path class="st0" d="M596.2,178.2v0.6h0.2c0-0.2,0.2-0.3,0.1-0.5C596.5,178.1,596.3,178.2,596.2,178.2"/>
		<path class="st0" d="M597,178.5l0.1,0.8c0.3,0.1,0.4-0.2,0.5-0.3C597.5,178.7,597.4,178.5,597,178.5"/>
		<path class="st0" d="M282.5,178.9v0.5h0.1C282.6,179.3,282.7,178.9,282.5,178.9"/>
		<path class="st0" d="M600.3,179.4v0.5h0.1c0.2-0.2,0.2-0.4,0.2-0.4S600.4,179.4,600.3,179.4"/>
		<path class="st0" d="M334.5,180.1l-0.1,8.9c0,0.7-0.3,1.7,0.6,1.8l0.2-8.1C334.7,181.8,335.8,180.2,334.5,180.1"/>
		<path class="st0" d="M605.6,180.9c-0.3,0.2-0.2,0.7-0.1,1c0.9-0.3,1.6,1.2,2.4,0.2C608.3,179.4,606.5,182.5,605.6,180.9"/>
		<path class="st0" d="M269.7,181.5l-0.1,0.3h0.2C269.8,181.6,269.9,181.5,269.7,181.5"/>
		<path class="st0" d="M243.2,182.4v0.4h0.3v-0.2C243.4,182.5,243.4,182.4,243.2,182.4"/>
		<path class="st0" d="M265.6,182.7l0.1,0.5c0.2-0.1,0.1-0.3,0.1-0.4C265.8,182.7,265.7,182.7,265.6,182.7"/>
		<path class="st0" d="M286.9,187.3l-0.7-0.1c-0.4,1.1-0.3,2.4,0.1,3.4c-0.9,3.1,0.6,6-0.4,9c-0.4,1.7,0.2,2.8,0.3,4.4h0.3
			c0.2-0.8,0.9-1.3,0.4-2c0.4-2,0.1-4.4,0.2-6.5C287,193.2,287.3,190,286.9,187.3"/>
		<path class="st0" d="M240.1,188.5c0.7,0.2,1.1,0.3,1.7,0.4v-1.5C241.2,187.4,240.4,188.1,240.1,188.5"/>
		<path class="st0" d="M276.5,187.6c-0.6,0.7-0.2,1.8-0.3,2.6c0.1,0.1,0.3,0.2,0.2,0.4h0.3c-0.3-0.6,0.5-1.4-0.3-1.8
			C277.2,188.5,276.5,187.8,276.5,187.6"/>
		<path class="st0" d="M235,190h0.2c0.1-0.1,0.3-0.2,0.3-0.4C235.2,189.6,235,189.9,235,190"/>
		<path class="st0" d="M209,193.3c0.1-0.3-0.2-0.6-0.6-0.6C208,193.2,208.8,193.5,209,193.3"/>
		<path class="st0" d="M205.7,194.1c0-0.4-0.4-0.7-0.6-0.4C205.1,194.1,205.4,194.4,205.7,194.1"/>
		<path class="st0" d="M276.3,194.4h0.4c0.1,0,0.1-0.2,0.1-0.3C276.6,193.7,275.9,194.2,276.3,194.4"/>
		<path class="st0" d="M276.3,196.5h0.2c0.1-0.1,0.2-0.1,0.2-0.3C276.5,196,275.9,196.2,276.3,196.5"/>
		<path class="st0" d="M276.3,199.3l0.4-1.2l-0.6-0.3C276,198.2,276.5,198.7,276.3,199.3"/>
		<path class="st0" d="M276.1,199.6v0.6c0.1,0,0.3,0.1,0.3-0.1C276.3,199.9,276.3,199.7,276.1,199.6"/>
		<path class="st0" d="M194.1,203c0.1-0.5-0.4-1-0.8-1.2c0,0.6-0.9,0.9-1.2,0.4c-0.1,0.1-0.1,0.2-0.1,0.4c0,0,0.1,0.1,0.2,0.1
			l0.1,0.1C192.9,203.1,193.6,203.3,194.1,203"/>
		<path class="st0" d="M188.3,203.8c-0.2-0.2-0.6,0.3-0.3,0.3C188.1,203.9,188.5,204,188.3,203.8"/>
		<path class="st0" d="M187.7,204c-0.2-0.3-0.7,0.1-0.3,0.3L187.7,204z"/>
	</g>
	<g>
		<path class="st1" d="M109.3,324.2c-2-5.8-2.5-10.3-2.5-24.1v-32.5c0-19.8-17.1-29.2-52.6-29.2c-32.4,0-47.8,7.9-49.1,25.9h29.9
			c1.2-9.6,6.9-13.2,20.6-13.2c14.5,0,21.1,5.1,21.1,16.5v3.3c-19.8,0.4-29.2,0.8-36.5,1.4C14.4,275.1,0,285.4,0,300.9
			c0,15.3,16.1,25.6,39.7,25.6c17.2,0,27.9-4,38.7-14.1c0.2,4.5,0.8,7.1,2.2,11.8H109.3z M76.7,283.7c0,8.3-0.2,11-1.5,15.1
			c-2.4,7.7-12.5,12.8-25.5,12.8c-11.8,0-18.6-4.5-18.6-12.6c0-11,9.9-15.2,36.8-15.2c1.7,0,2.9,0,5.9-0.2H76.7z"/>
		<rect x="119.5" y="203.2" class="st1" width="30.8" height="121"/>
		<path class="st1" d="M310.4,315.5c10,7.8,20.1,11,33.3,11c29.9,0,50.2-18.4,50.2-45.7c0-25.8-18.8-42.5-48-42.5
			c-16.1,0-26.3,3.8-35.5,13.6c-0.2-4.9-0.2-6.4-0.7-11.3h-30.9c0.2,3.8,0.7,11.6,0.7,14.6v100.3h30.9V315.5z M337.5,253.6
			c16.1,0.5,24.9,10.3,24.9,27.9c0,18.5-10.5,29.7-27.7,29.7c-15.9,0-25.5-10.3-25.5-27.2C309.2,263.9,319.2,253,337.5,253.6"/>
		<rect x="401.5" y="203.2" class="st1" width="30.9" height="121"/>
		<path class="st1" d="M549.7,324.2c-2-5.8-2.5-10.3-2.5-24.1v-32.5c0-19.8-17.2-29.2-52.7-29.2c-32.4,0-47.8,7.9-49,25.9h29.8
			c1.3-9.6,6.9-13.2,20.7-13.2c14.4,0,21.1,5.1,21.1,16.5v3.3c-19.9,0.4-29.2,0.8-36.5,1.4c-25.8,2.9-40.3,13.1-40.3,28.7
			c0,15.3,16.2,25.6,39.8,25.6c17.1,0,27.9-4,38.7-14.1c0.2,4.5,0.7,7.1,2.1,11.8H549.7z M517.1,283.7c0,8.3-0.3,11-1.4,15.1
			c-2.5,7.7-12.6,12.8-25.5,12.8c-11.8,0-18.6-4.5-18.6-12.6c0-11,9.8-15.2,36.7-15.2c1.7,0,3,0,5.9-0.2H517.1z"/>
		<path class="st1" d="M269.1,240.6h-30.9v43.9c0,8.5-0.8,13.6-2.7,16.5c-3.7,6.2-12.6,10.1-22.1,10.1c-14.4,0-22.3-6.7-22.3-19.4
			v-51.2h-30.8v50.5c0,22.5,14.7,35.3,40.4,35.3c18.9,0,31.2-5.2,37.6-16.3c0.2,5.1,1,9.5,2.4,14h30.9c-1.7-4.7-2.4-9.3-2.4-16.3
			V240.6z"/>
		<path class="st1" d="M656.3,263.3c-1-17.5-14.5-25-44.8-25c-30.7,0-52.3,10.3-52.3,24.8c0,7.6,5.4,14.2,14.7,18.3
			c6.4,2.7,11.1,3.9,28.5,7c24.5,4.2,28.7,6.1,28.7,12.8c0,6.8-8.9,11.3-22.1,11.3c-13.9,0-20.1-4.4-21.1-14.4h-30.4v3.1
			c0,16,18.2,25.4,49.1,25.4c33.6,0,54.5-10.5,54.5-27.2c0-8.2-4.4-14.3-13.5-18.6c-6.4-3.2-11-4.4-30.6-8
			c-24.8-4.3-27.7-5.6-27.7-11.7c0-5,7.8-8.7,18.8-8.7c13,0,18.2,3.1,18.9,10.9H656.3z"/>
		<path class="st1" d="M716.8,256.3h28.7v-15.6h-28.7v-24.7l-29.9,11.5v13.2h-25.2v15.6h25.2v42.8c0,11.5,2.4,17.7,8.4,21.8
			c5.1,3.5,14.2,5.8,23,5.8c7.6,0,13-0.5,27.4-2.5v-14.6c-4.8,0.8-10.2,1.2-13.2,1.2c-10.7,0-15.6-4.3-15.6-14V256.3z"/>
		<path class="st1" d="M760.4,208.5c-7.8,0-14.2,6.3-14.2,14.1c0,7.8,6.4,14.1,14.2,14.1c7.7,0,14-6.3,14-14.1
			C774.4,214.8,768.1,208.5,760.4,208.5 M760.4,234.4c-6.6,0-11.9-5.3-11.9-11.8c0-6.6,5.2-11.8,11.9-11.8c6.5,0,11.7,5.2,11.7,11.8
			C772.1,229.1,766.9,234.4,760.4,234.4"/>
		<path class="st1" d="M766.4,225.8c-0.3-2.1-0.7-2.6-2.3-3.2c2.1-1,2.8-1.9,2.8-3.8c0-2.6-2-4.1-5.8-4.1h-7v15.6h3.6V224h2.9
			c1.5,0,2,0.4,2.2,1.9l0.2,1.8c0.2,1.5,0.3,1.9,0.6,2.5h3.8c-0.5-0.9-0.5-0.8-0.8-2.8L766.4,225.8z M760.3,221.4h-2.6v-4.1h2.7
			c1.9,0,2.7,0.6,2.7,2C763.1,220.8,762.1,221.4,760.3,221.4"/>
	</g>
</g>
</svg>
