<?xml version="1.0" encoding="utf-8"?>
<!-- Generator: Adobe Illustrator 16.0.0, SVG Export Plug-In . SVG Version: 6.00 Build 0)  -->
<!DOCTYPE svg PUBLIC "-//W3C//DTD SVG 1.1//EN" "http://www.w3.org/Graphics/SVG/1.1/DTD/svg11.dtd">
<svg version="1.1" id="Слой_1" xmlns="http://www.w3.org/2000/svg" xmlns:xlink="http://www.w3.org/1999/xlink" x="0px" y="0px"
	 width="103.242px" height="24.637px" viewBox="0 0 103.242 24.637" enable-background="new 0 0 103.242 24.637"
	 xml:space="preserve">
<g>
	<polygon fill="#1D171A" points="31.365,0.174 37.799,0.174 42.824,17.729 45.67,6.818 50.628,6.818 53.5,17.729 56.033,6.818 
		62.485,6.818 57.185,22.443 50.696,22.443 48.078,12.324 45.417,22.443 38.984,22.443 	"/>
	<path fill="#1D171A" d="M73.36,6.795c6.476,0,9.839,2.777,9.839,7.838c0,5.053-3.342,7.811-9.839,7.811h-9.892V6.795H73.36z
		 M69.452,18.289h2.975c2.956,0,4.345-0.988,4.345-3.807c0-2.781-1.364-3.814-4.345-3.814h-2.975V18.289z"/>
	<path fill="#1D171A" d="M91.003,17.688c0.11,0.82,1.069,1.313,2.709,1.313c1.595,0,2.423-0.369,2.423-1.117
		c0-0.67-0.725-1.08-2.149-1.254l-4.473-0.559c-3.701-0.453-5.576-2.021-5.576-4.652c0-3.568,2.857-5.01,8.898-5.01
		c6.278,0,9.451,1.461,9.706,4.951h-6.959c-0.15-0.973-1.147-1.484-3.002-1.484c-1.422,0-2.173,0.432-2.173,1.031
		c0,0.689,0.751,0.885,2.304,1.098l5.446,0.799c3.406,0.49,5.085,1.98,5.085,4.561c0,3.914-3.404,5.551-10.489,5.551
		c-5.872,0-8.941-1.938-8.982-5.227H91.003z"/>
	<path fill="#78B62B" d="M26.89,19.326c0.037,0,0.068,0,0.099-0.008c0.532-0.096,0.489-0.932,0.489-0.932V1.719
		c0-0.486-0.254-0.553-0.396-0.551c-0.036,0-1.205-0.197-2.001-0.33c0.088,0.074,0.16,0.211,0.16,0.467v16.992
		c0,0,0.047,0.939-0.586,0.939L26.89,19.326z"/>
	<path fill="#199BD8" d="M15.343,20.424c-0.117,0.184-0.322,0.311-0.556,0.311H7.17c-0.361,0-0.659-0.301-0.659-0.664V4.881
		c0-0.367,0.298-0.666,0.659-0.666h7.617c0.058,0,0.111,0.01,0.163,0.023l6.865-2.801V0H2.899C1.435,0,0,1.465,0,2.676v21.961
		h18.684c2.501,0,3.131-1.449,3.131-2.725v-2.311L15.343,20.424z"/>
	<path fill="#78B62B" d="M15.451,4.865L23.953,1.4c0,0,0.463-0.131,0.463,0.512v15.633c0,0,0.049,0.893-0.552,0.893l-8.413,1.158
		c0,0-0.436,0.156-0.436-0.428V5.434C15.015,5.434,15,5.053,15.451,4.865"/>
</g>
</svg>
